SplineFontDB: 3.2
FontName: SeriousShannsItalic
FullName: Serious Shanns Italic
FamilyName: Serious Shanns Italic
Weight: Book
Copyright: https://github.com/kaBeech/serious-shanns/blob/main/LICENSE
Version: 6.0.0
ItalicAngle: -12.7
UnderlinePosition: 0
UnderlineWidth: 0
Ascent: 800
Descent: 200
InvalidEm: 0
sfntRevision: 0x00003333
LayerCount: 2
Layer: 0 0 "Back" 1
Layer: 1 0 "Fore" 0
XUID: [1021 45 630387186 1984481]
StyleMap: 0x0040
FSType: 4
OS2Version: 3
OS2_WeightWidthSlopeOnly: 0
OS2_UseTypoMetrics: 0
CreationTime: 1532631502
ModificationTime: 315532800
PfmFamily: 81
TTFWeight: 400
TTFWidth: 5
LineGap: 0
VLineGap: 0
Panose: 0 0 0 0 0 0 0 0 0 0
OS2TypoAscent: 613
OS2TypoAOffset: 0
OS2TypoDescent: -188
OS2TypoDOffset: 0
OS2TypoLinegap: 98
OS2WinAscent: 778
OS2WinAOffset: 0
OS2WinDescent: 308
OS2WinDOffset: 0
HheadAscent: 796
HheadAOffset: 0
HheadDescent: -317
HheadDOffset: 0
OS2SubXSize: 317
OS2SubYSize: 293
OS2SubXOff: 0
OS2SubYOff: 37
OS2SupXSize: 317
OS2SupYSize: 293
OS2SupXOff: 0
OS2SupYOff: 171
OS2StrikeYSize: 0
OS2StrikeYPos: 132
OS2CapHeight: 576
OS2XHeight: 485
OS2Vendor: 'NONE'
OS2CodePages: 00000001.00000000
OS2UnicodeRanges: 00000001.00000000.00000000.00000000
MarkAttachClasses: 1
DEI: 91125
LangName: 1033 "" "" "Normal" "" "" "Version 0.2.0"
Encoding: UnicodeBmp
Compacted: 1
UnicodeInterp: none
NameList: AGL For New Fonts
DisplaySize: -48
AntiAlias: 1
FitToEm: 0
WinInfo: 0 16 14
BeginPrivate: 8
BlueValues 32 [-40 -6 497 511 708 718 765 769]
OtherBlues 11 [-298 -287]
BlueScale 9 0.0291667
BlueShift 1 2
StdHW 4 [86]
StdVW 4 [58]
StemSnapH 19 [82 85 86 89 90 94]
StemSnapV 7 [58 68]
EndPrivate
BeginChars: 65537 123

StartChar: .notdef
Encoding: 65536 -1 0
Width: 630
GlyphClass: 1
Flags: W
HStem: -268 54<114.699 412.699> 695 54<324.699 622.699>
LayerCount: 2
Fore
SplineSet
52.69921875 -268 m 1
 286.69921875 749 l 1
 685.69921875 749 l 1
 450.69921875 -268 l 1
 52.69921875 -268 l 1
114.69921875 -214 m 1
 412.69921875 -214 l 1
 622.69921875 695 l 1
 324.69921875 695 l 1
 114.69921875 -214 l 1
EndSplineSet
Validated: 524289
EndChar

StartChar: exclam
Encoding: 33 33 12
Width: 630
GlyphClass: 2
Flags: HMW
HStem: -24.001 152.997
VStem: 251.782 151
LayerCount: 2
Fore
SplineSet
538.786132812 738 m 0
 537.453125 732 526.116210938 688.166015625 504.783203125 606.499023438 c 0
 483.450195312 524.83203125 467.450195312 458.33203125 456.783203125 406.999023438 c 0
 446.116210938 356.999023438 439.116210938 327.166015625 435.783203125 317.499023438 c 0
 432.450195312 307.83203125 428.450195312 292.33203125 423.783203125 270.999023438 c 0
 419.116210938 256.33203125 411.116210938 244.83203125 399.783203125 236.499023438 c 0
 389.290039062 228.783203125 378.225585938 224.92578125 366.588867188 224.92578125 c 0
 365.657226562 224.92578125 364.721679688 224.950195312 363.783203125 225 c 0
 351.116210938 225 341.783203125 229.333007812 335.783203125 238 c 0
 332.606445312 242.587890625 331.018554688 248.297851562 331.018554688 255.127929688 c 0
 331.018554688 261.200195312 332.2734375 268.157226562 334.783203125 276.000976562 c 0
 338.116210938 286.000976562 341.616210938 295.66796875 345.283203125 305.000976562 c 0
 348.950195312 314.333984375 351.783203125 322.166992188 353.783203125 328.5 c 0
 355.783203125 334.833007812 359.616210938 349.833007812 365.283203125 373.5 c 0
 370.950195312 397.166992188 377.450195312 427.666992188 384.783203125 465 c 0
 389.450195312 491 395.1171875 518.5 401.784179688 547.5 c 0
 408.451171875 576.5 414.284179688 600.666992188 419.284179688 620 c 0
 424.284179688 639.333007812 429.951171875 661.333007812 436.284179688 686 c 0
 442.6171875 710.666992188 446.784179688 727 448.784179688 735 c 0
 453.451171875 753 461.118164062 766.666992188 471.78515625 776 c 0
 482.452148438 785.333007812 494.119140625 790 506.786132812 790 c 0
 507.739257812 790.047851562 508.672851562 790.071289062 509.587890625 790.071289062 c 0
 521.482421875 790.071289062 530.21484375 786.047851562 535.786132812 778 c 0
 539.385742188 772.799804688 541.186523438 765.919921875 541.186523438 757.360351562 c 0
 541.186523438 751.653320312 540.385742188 745.200195312 538.786132812 738 c 0
310.782226562 -24.0009765625 m 0
 307.447265625 -24.3818359375 304.2421875 -24.572265625 301.166015625 -24.572265625 c 0
 282.719726562 -24.572265625 268.926757812 -17.7177734375 259.784179688 -4.0048828125 c 0
 252.672851562 6.662109375 249.1171875 18.810546875 249.1171875 32.4404296875 c 0
 249.1171875 39.2548828125 250.005859375 46.439453125 251.783203125 53.9951171875 c 0
 256.450195312 73.9951171875 268.450195312 91.328125 287.783203125 105.995117188 c 0
 307.116210938 120.662109375 326.783203125 128.329101562 346.783203125 128.99609375 c 0
 347.76171875 129.025390625 348.727539062 129.041015625 349.682617188 129.041015625 c 0
 370.194335938 129.041015625 385.227539062 122.192382812 394.783203125 108.497070312 c 0
 401.6015625 98.724609375 405.010742188 87.3251953125 405.010742188 74.298828125 c 0
 405.010742188 68.2197265625 404.268554688 61.7861328125 402.783203125 54.998046875 c 0
 398.116210938 33.6650390625 387.44921875 15.83203125 370.782226562 1.4990234375 c 0
 354.115234375 -12.833984375 334.115234375 -21.333984375 310.782226562 -24.0009765625 c 0
EndSplineSet
Validated: 524289
EndChar

StartChar: quotedbl
Encoding: 34 34 13
Width: 630
GlyphClass: 2
Flags: HMW
VStem: 299.301 306.002
LayerCount: 2
Fore
SplineSet
456.306640625 738 m 0
 450.306640625 710.666992188 439.471679688 665.830078125 423.8046875 603.497070312 c 0
 408.137695312 541.1640625 396.3046875 498.331054688 388.3046875 474.998046875 c 0
 383.637695312 461.665039062 375.970703125 451.665039062 365.303710938 444.998046875 c 0
 355.606445312 438.9375 346.185546875 435.907226562 337.040039062 435.907226562 c 0
 336.125 435.907226562 335.212890625 435.9375 334.303710938 435.998046875 c 0
 321.63671875 436.665039062 311.469726562 440.83203125 303.802734375 448.499023438 c 0
 299.037109375 453.264648438 296.654296875 459.25390625 296.654296875 466.466796875 c 0
 296.654296875 470.857421875 297.537109375 475.701171875 299.302734375 480.999023438 c 0
 309.302734375 514.999023438 320.135742188 558.666015625 331.802734375 611.999023438 c 0
 343.469726562 665.33203125 352.63671875 709.33203125 359.303710938 743.999023438 c 0
 360.63671875 751.999023438 363.63671875 758.83203125 368.303710938 764.499023438 c 0
 372.970703125 770.166015625 378.303710938 774.333007812 384.303710938 777 c 0
 390.303710938 779.666992188 396.303710938 781.5 402.303710938 782.5 c 0
 408.303710938 783.5 414.303710938 783.666992188 420.303710938 783 c 0
 425.63671875 783 430.63671875 782.333007812 435.303710938 781 c 0
 439.970703125 779.666992188 444.137695312 777.5 447.8046875 774.5 c 0
 451.471679688 771.5 454.138671875 766.833007812 455.805664062 760.5 c 0
 457.47265625 754.166992188 457.639648438 746.666992188 456.306640625 738 c 0
605.3046875 737.99609375 m 0
 599.971679688 710.663085938 589.473632812 665.826171875 573.806640625 603.493164062 c 0
 558.139648438 541.16015625 545.97265625 498.327148438 537.305664062 474.994140625 c 0
 532.638671875 461.661132812 524.971679688 451.661132812 514.3046875 444.994140625 c 0
 504.607421875 438.93359375 495.186523438 435.903320312 486.041015625 435.903320312 c 0
 485.125976562 435.903320312 484.213867188 435.93359375 483.3046875 435.994140625 c 0
 471.3046875 436.661132812 461.3046875 440.828125 453.3046875 448.495117188 c 0
 448.504882812 453.095703125 446.104492188 458.834960938 446.104492188 465.71484375 c 0
 446.104492188 470.301757812 447.171875 475.395507812 449.3046875 480.995117188 c 0
 459.3046875 514.995117188 469.971679688 558.662109375 481.3046875 611.995117188 c 0
 492.637695312 665.328125 501.637695312 709.328125 508.3046875 743.995117188 c 0
 509.637695312 751.995117188 512.637695312 758.828125 517.3046875 764.495117188 c 0
 521.971679688 770.162109375 527.471679688 774.329101562 533.8046875 776.99609375 c 0
 540.137695312 779.663085938 546.137695312 781.49609375 551.8046875 782.49609375 c 0
 557.471679688 783.49609375 563.3046875 783.663085938 569.3046875 782.99609375 c 0
 575.3046875 782.99609375 580.471679688 782.329101562 584.8046875 780.99609375 c 0
 589.137695312 779.663085938 593.3046875 777.49609375 597.3046875 774.49609375 c 0
 601.3046875 771.49609375 604.137695312 766.829101562 605.8046875 760.49609375 c 0
 607.471679688 754.163085938 607.3046875 746.663085938 605.3046875 737.99609375 c 0
EndSplineSet
Validated: 524289
EndChar

StartChar: numbersign
Encoding: 35 35 14
Width: 630
GlyphClass: 2
Flags: HMW
HStem: 192 82<518.113 537.114 485.114 556.113> 445 84<385.107 525.112 419.112 492.107 419.112 618.113 419.112 584.113>
LayerCount: 2
Fore
SplineSet
216.115234375 42 m 0
 208.115234375 28 196.44140625 16.5 181.108398438 7.5 c 0
 170.493164062 1.26953125 160.99609375 -1.845703125 152.6171875 -1.845703125 c 0
 148.893554688 -1.845703125 145.390625 -1.23046875 142.108398438 0 c 0
 131.44140625 2.6669921875 124.94140625 11.1669921875 122.608398438 25.5 c 0
 122.11328125 28.5400390625 121.866210938 31.6474609375 121.866210938 34.822265625 c 0
 121.866210938 46.6162109375 125.280273438 59.341796875 132.109375 72.9990234375 c 0
 141.442382812 90.9990234375 159.109375 129.666015625 185.109375 188.999023438 c 1
 157.109375 188.999023438 l 2
 141.776367188 188.999023438 130.776367188 192.33203125 124.109375 198.999023438 c 0
 117.442382812 205.666015625 115.442382812 214.666015625 118.109375 225.999023438 c 0
 120.109375 237.999023438 125.776367188 247.999023438 135.109375 255.999023438 c 0
 144.442382812 263.999023438 157.109375 268.666015625 173.109375 269.999023438 c 0
 177.776367188 269.999023438 185.276367188 270.166015625 195.609375 270.499023438 c 0
 205.942382812 270.83203125 213.775390625 270.999023438 219.108398438 270.999023438 c 1
 291.108398438 443.999023438 l 1
 285.775390625 443.999023438 278.775390625 443.83203125 270.108398438 443.499023438 c 0
 261.44140625 443.166015625 255.44140625 442.999023438 252.108398438 442.999023438 c 0
 250.880859375 442.9453125 249.682617188 442.918945312 248.513671875 442.918945312 c 0
 235.0703125 442.918945312 225.435546875 446.4453125 219.609375 453.499023438 c 0
 213.276367188 461.166015625 211.443359375 470.666015625 214.110351562 481.999023438 c 0
 216.110351562 493.999023438 221.943359375 504.166015625 231.610351562 512.499023438 c 0
 241.27734375 520.83203125 254.444335938 525.33203125 271.111328125 525.999023438 c 0
 283.111328125 526.666015625 301.111328125 526.999023438 325.111328125 526.999023438 c 1
 366.444335938 627.666015625 387.444335938 679.666015625 388.111328125 682.999023438 c 0
 396.778320312 699.666015625 407.111328125 711.333007812 419.111328125 718 c 0
 427.111328125 722.4453125 434.815429688 724.666992188 442.223632812 724.666992188 c 0
 445.926757812 724.666992188 449.555664062 724.112304688 453.111328125 723.000976562 c 0
 465.778320312 720.333984375 474.4453125 713.666992188 479.112304688 703 c 0
 480.927734375 698.8515625 481.834960938 694.19921875 481.834960938 689.041992188 c 0
 481.834960938 680.939453125 479.594726562 671.591796875 475.11328125 661 c 2
 419.11328125 529 l 1
 525.11328125 529 l 1
 583.11328125 675 l 2
 591.780273438 692.333007812 602.11328125 704.333007812 614.11328125 711 c 0
 622.11328125 715.4453125 629.965820312 717.666992188 637.669921875 717.666992188 c 0
 641.521484375 717.666992188 645.3359375 717.112304688 649.11328125 716.000976562 c 0
 662.446289062 713.333984375 671.446289062 706.666992188 676.11328125 696 c 0
 677.747070312 692.266601562 678.563476562 688.125 678.563476562 683.57421875 c 0
 678.563476562 675.124023438 675.747070312 665.266601562 670.11328125 654 c 0
 656.780273438 626 639.780273438 585 619.11328125 531 c 1
 629.11328125 531 l 2
 643.780273438 531 655.280273438 526.5 663.61328125 517.5 c 0
 670.333984375 510.2421875 673.694335938 502.658203125 673.694335938 494.75 c 0
 673.694335938 492.852539062 673.5 490.935546875 673.11328125 489 c 0
 670.446289062 477 664.446289062 466.833007812 655.11328125 458.5 c 0
 645.780273438 450.166992188 633.447265625 445.666992188 618.114257812 445 c 2
 584.114257812 445 l 1
 518.114257812 274 l 1
 556.114257812 274 l 2
 570.78125 274 579.948242188 270.5 583.615234375 263.5 c 0
 587.282226562 256.5 588.115234375 247.333007812 586.115234375 236 c 0
 579.448242188 206.666992188 563.115234375 192 537.115234375 192 c 2
 485.115234375 192 l 1
 455.115234375 116 434.115234375 64.6669921875 422.115234375 38 c 0
 413.448242188 24 402.115234375 13.1669921875 388.115234375 5.5 c 0
 378.915039062 0.4619140625 370.291015625 -2.0576171875 362.243164062 -2.0576171875 c 0
 358.043945312 -2.0576171875 354.000976562 -1.37109375 350.115234375 0 c 0
 339.448242188 2.6669921875 332.615234375 10.5 329.615234375 23.5 c 0
 328.84375 26.8427734375 328.458007812 30.3076171875 328.458007812 33.892578125 c 0
 328.458007812 44.25 331.676757812 55.619140625 338.115234375 68 c 0
 350.782226562 94.6669921875 368.115234375 135.666992188 390.115234375 191 c 1
 377.448242188 191 358.615234375 190.833007812 333.615234375 190.5 c 0
 308.615234375 190.166992188 290.448242188 190 279.115234375 190 c 1
 249.115234375 118 228.115234375 68.6669921875 216.115234375 42 c 0
385.108398438 445 m 1
 314.109375 273.999023438 l 1
 339.442382812 274.666015625 375.775390625 274.999023438 423.108398438 274.999023438 c 1
 445.775390625 329.666015625 468.775390625 386.333007812 492.108398438 445 c 1
 385.108398438 445 l 1
EndSplineSet
Validated: 524289
EndChar

StartChar: dollar
Encoding: 36 36 15
Width: 630
GlyphClass: 2
Flags: HMW
HStem: -28.9932 84.9932<251.539 288.538 262.539 288.538> 642.998 79.002
VStem: 247.539 82.999 507.04 93.998
LayerCount: 2
Fore
SplineSet
330.538085938 -99 m 0
 325.87109375 -113.666992188 317.872070312 -124.993164062 306.5390625 -132.993164062 c 0
 295.206054688 -140.993164062 283.206054688 -144.993164062 270.5390625 -144.993164062 c 0
 259.206054688 -144.993164062 251.5390625 -140.493164062 247.5390625 -131.493164062 c 0
 245.939453125 -127.893554688 245.138671875 -123.6796875 245.138671875 -118.853515625 c 0
 245.138671875 -111.61328125 246.939453125 -102.993164062 250.5390625 -92.9931640625 c 0
 255.206054688 -76.9931640625 260.5390625 -55.66015625 266.5390625 -28.9931640625 c 1
 262.5390625 -28.9931640625 l 2
 240.5390625 -28.9931640625 220.5390625 -25.9931640625 202.5390625 -19.9931640625 c 0
 184.5390625 -13.9931640625 169.5390625 -5.9931640625 157.5390625 4.0068359375 c 0
 145.5390625 14.0068359375 135.872070312 24.673828125 128.5390625 36.0068359375 c 0
 121.206054688 47.33984375 115.5390625 59.6728515625 111.5390625 73.005859375 c 0
 110.256835938 79.9287109375 109.616210938 86.3583984375 109.616210938 92.2958984375 c 0
 109.616210938 101.794921875 111.256835938 110.03125 114.5390625 117.005859375 c 0
 119.872070312 128.338867188 128.205078125 136.671875 139.538085938 142.004882812 c 0
 147.538085938 145.337890625 154.038085938 147.670898438 159.038085938 149.00390625 c 0
 164.038085938 150.336914062 169.038085938 150.669921875 174.038085938 150.002929688 c 0
 179.038085938 149.3359375 183.538085938 146.668945312 187.538085938 142.001953125 c 0
 191.538085938 137.334960938 195.538085938 130.66796875 199.538085938 122.000976562 c 0
 207.538085938 101.333984375 218.038085938 85.1669921875 231.038085938 73.5 c 0
 244.038085938 61.8330078125 262.538085938 56 286.538085938 56 c 2
 288.538085938 56 l 1
 315.87109375 167.333007812 339.204101562 266.666015625 358.537109375 353.999023438 c 1
 355.204101562 353.999023438 350.037109375 354.666015625 343.037109375 355.999023438 c 0
 336.037109375 357.33203125 330.537109375 357.999023438 326.537109375 357.999023438 c 0
 305.204101562 360.666015625 286.537109375 366.999023438 270.537109375 376.999023438 c 0
 254.537109375 386.999023438 242.537109375 399.166015625 234.537109375 413.499023438 c 0
 226.537109375 427.83203125 221.204101562 442.83203125 218.537109375 458.499023438 c 0
 217.470703125 464.765625 216.936523438 471.05859375 216.936523438 477.37890625 c 0
 216.936523438 486.859375 218.13671875 496.399414062 220.537109375 505.999023438 c 0
 225.870117188 529.999023438 234.537109375 552.999023438 246.537109375 574.999023438 c 0
 258.537109375 596.999023438 273.704101562 617.499023438 292.037109375 636.499023438 c 0
 310.370117188 655.499023438 332.537109375 671.83203125 358.537109375 685.499023438 c 0
 384.537109375 699.166015625 412.537109375 708.666015625 442.537109375 713.999023438 c 1
 447.204101562 729.999023438 452.537109375 749.33203125 458.537109375 771.999023438 c 0
 467.870117188 808.666015625 484.537109375 826.999023438 508.537109375 826.999023438 c 0
 509.055664062 827.01171875 509.568359375 827.017578125 510.075195312 827.017578125 c 0
 530.827148438 827.017578125 541.204101562 816.641601562 541.204101562 795.888671875 c 0
 541.204101562 789.814453125 540.314453125 782.8515625 538.537109375 775 c 2
 525.537109375 722 l 1
 539.537109375 721.333007812 558.037109375 718 581.037109375 712 c 0
 604.037109375 706 620.870117188 700.333007812 631.537109375 695 c 0
 642.204101562 690.333007812 649.037109375 683 652.037109375 673 c 0
 653.2109375 669.086914062 653.797851562 665.071289062 653.797851562 660.954101562 c 0
 653.797851562 654.549804688 652.377929688 647.8984375 649.537109375 641 c 0
 646.870117188 633 643.037109375 626.833007812 638.037109375 622.5 c 0
 633.037109375 618.166992188 627.537109375 615.5 621.537109375 614.5 c 0
 615.537109375 613.5 609.870117188 613.333007812 604.537109375 614 c 0
 599.204101562 614.666992188 594.204101562 615.666992188 589.537109375 617 c 0
 584.204101562 618.333007812 577.704101562 621.166015625 570.037109375 625.499023438 c 0
 562.370117188 629.83203125 553.537109375 633.665039062 543.537109375 636.998046875 c 0
 533.537109375 640.331054688 521.204101562 642.331054688 506.537109375 642.998046875 c 1
 493.204101562 589.665039062 475.87109375 518.998046875 454.538085938 430.998046875 c 1
 481.87109375 426.998046875 505.538085938 419.831054688 525.538085938 409.498046875 c 0
 545.538085938 399.165039062 560.705078125 387.33203125 571.038085938 373.999023438 c 0
 581.37109375 360.666015625 589.038085938 345.333007812 594.038085938 328 c 0
 598.725585938 311.749023438 601.069335938 295.791992188 601.069335938 280.126953125 c 0
 601.069335938 266.818359375 599.493164062 247.967773438 593.538085938 225 c 0
 586.205078125 194.333007812 574.705078125 165.333007812 559.038085938 138 c 0
 543.37109375 110.666992188 524.538085938 87 502.538085938 67 c 0
 480.538085938 47 456.37109375 29.6669921875 430.038085938 15 c 0
 403.705078125 0.3330078125 376.205078125 -10.6669921875 347.538085938 -18 c 1
 338.205078125 -58 332.538085938 -85 330.538085938 -99 c 0
312.5390625 531.006835938 m 0
 311.206054688 524.911132812 310.5390625 519.034179688 310.5390625 513.374023438 c 0
 310.5390625 499.224609375 314.706054688 486.435546875 323.0390625 475.006835938 c 0
 334.706054688 459.006835938 353.206054688 447.673828125 378.5390625 441.006835938 c 1
 389.872070312 487.006835938 405.205078125 551.006835938 424.538085938 633.006835938 c 1
 395.87109375 624.33984375 371.37109375 611.33984375 351.038085938 594.006835938 c 0
 330.705078125 576.673828125 317.872070312 555.673828125 312.5390625 531.006835938 c 0
503.5390625 208.006835938 m 0
 505.91015625 219.267578125 507.095703125 229.73828125 507.095703125 239.418945312 c 0
 507.095703125 252.064453125 504.829101562 263.998046875 500.540039062 276.508789062 c 0
 496.540039062 288.17578125 488.70703125 299.008789062 477.040039062 309.008789062 c 0
 465.373046875 319.008789062 450.206054688 327.67578125 431.5390625 335.008789062 c 1
 424.206054688 305.67578125 413.5390625 261.508789062 399.5390625 202.508789062 c 0
 385.5390625 143.508789062 375.206054688 100.67578125 368.5390625 74.0087890625 c 1
 401.872070312 87.341796875 431.0390625 105.674804688 456.0390625 129.0078125 c 0
 481.0390625 152.340820312 496.872070312 178.673828125 503.5390625 208.006835938 c 0
EndSplineSet
Validated: 524289
EndChar

StartChar: percent
Encoding: 37 37 16
Width: 630
GlyphClass: 2
Flags: HMW
HStem: -28.001 76 170.999 74<481.087 494.087> 432 75<269.42 315.087> 632 73<338.753 342.753>
LayerCount: 2
Fore
SplineSet
280.419921875 432 m 0
 258.419921875 432 240.420898438 438.5 226.420898438 451.5 c 0
 212.420898438 464.5 203.587890625 480.833007812 199.920898438 500.5 c 0
 198.426757812 508.513671875 197.6796875 516.775390625 197.6796875 525.286132812 c 0
 197.6796875 537.665039062 199.259765625 550.569335938 202.419921875 564.000976562 c 0
 211.752929688 605.333984375 230.252929688 639.166992188 257.919921875 665.5 c 0
 285.586914062 691.833007812 319.086914062 705 358.419921875 705 c 0
 373.752929688 705 387.419921875 702.166992188 399.419921875 696.5 c 0
 411.419921875 690.833007812 421.419921875 682.333007812 429.419921875 671 c 0
 437.419921875 659.666992188 441.919921875 644.166992188 442.919921875 624.5 c 0
 443.040039062 622.139648438 443.099609375 619.734375 443.099609375 617.283203125 c 0
 443.099609375 599.307617188 439.873046875 578.879882812 433.419921875 556 c 0
 422.086914062 515.333007812 404.086914062 484.5 379.419921875 463.5 c 0
 354.752929688 442.5 321.752929688 432 280.419921875 432 c 0
100.420898438 19 m 0
 119.75390625 47.6669921875 164.419921875 107.833984375 234.419921875 199.500976562 c 0
 304.419921875 291.16796875 374.586914062 383.66796875 444.919921875 477.000976562 c 0
 515.252929688 570.333984375 563.419921875 637.000976562 589.419921875 677.000976562 c 0
 599.419921875 689.000976562 610.752929688 696.500976562 623.419921875 699.500976562 c 0
 627.3515625 700.431640625 631.122070312 700.897460938 634.732421875 700.897460938 c 0
 642.75390625 700.897460938 649.983398438 698.598632812 656.419921875 694.000976562 c 0
 666.419921875 688.66796875 670.919921875 680.834960938 669.919921875 670.501953125 c 0
 668.919921875 660.168945312 662.752929688 647.668945312 651.419921875 633.001953125 c 0
 618.752929688 592.334960938 539.919921875 488.66796875 414.919921875 322.000976562 c 0
 289.919921875 155.333984375 206.419921875 42.6669921875 164.419921875 -16 c 0
 147.189453125 -39.630859375 131.049804688 -51.4462890625 116 -51.4462890625 c 0
 110.669921875 -51.4462890625 105.477539062 -49.9638671875 100.420898438 -47 c 0
 89.4208984375 -40.666015625 83.9208984375 -32 83.9208984375 -21 c 0
 83.9208984375 -10 89.4208984375 3.333984375 100.420898438 19 c 0
307.419921875 507 m 0
 322.752929688 507 335.75390625 512.33203125 346.420898438 522.999023438 c 0
 357.087890625 533.666015625 365.087890625 547.999023438 370.420898438 565.999023438 c 0
 373.262695312 576.736328125 374.684570312 586.126953125 374.684570312 594.171875 c 0
 374.684570312 603.109375 372.9296875 610.385742188 369.420898438 616 c 0
 362.75390625 626.666992188 351.086914062 632 334.419921875 632 c 0
 319.752929688 632 306.919921875 626.166992188 295.919921875 614.5 c 0
 284.919921875 602.833007812 276.419921875 587 270.419921875 567 c 0
 268.0859375 557.666015625 266.919921875 549.416015625 266.919921875 542.25 c 0
 266.919921875 535.083007812 268.0859375 529 270.419921875 524 c 0
 275.086914062 514 287.419921875 508.333007812 307.419921875 507 c 0
423.420898438 -28.0009765625 m 0
 401.420898438 -28.0009765625 383.419921875 -21.5009765625 369.419921875 -8.5009765625 c 0
 355.419921875 4.4990234375 346.586914062 20.83203125 342.919921875 40.4990234375 c 0
 341.42578125 48.5126953125 340.678710938 56.7744140625 340.678710938 65.28515625 c 0
 340.678710938 77.6640625 342.258789062 90.568359375 345.418945312 104 c 0
 354.751953125 145.333007812 373.251953125 179.166015625 400.918945312 205.499023438 c 0
 428.5859375 231.83203125 461.752929688 244.999023438 500.419921875 244.999023438 c 0
 515.752929688 244.999023438 529.5859375 242.33203125 541.918945312 236.999023438 c 0
 554.251953125 231.666015625 564.418945312 223.166015625 572.418945312 211.499023438 c 0
 580.418945312 199.83203125 584.918945312 184.165039062 585.918945312 164.498046875 c 0
 586.030273438 162.3125 586.0859375 160.088867188 586.0859375 157.825195312 c 0
 586.0859375 139.717773438 582.530273438 119.109375 575.418945312 95.998046875 c 0
 564.0859375 55.3310546875 546.252929688 24.3310546875 521.919921875 2.998046875 c 0
 498.32421875 -17.6884765625 466.737304688 -28.03125 427.157226562 -28.03125 c 0
 425.918945312 -28.03125 424.673828125 -28.021484375 423.420898438 -28.0009765625 c 0
450.419921875 47.9990234375 m 0
 451.258789062 47.9609375 452.08984375 47.94140625 452.916015625 47.94140625 c 0
 466.528320312 47.94140625 478.36328125 53.1279296875 488.420898438 63.4990234375 c 0
 499.087890625 74.4990234375 507.087890625 88.666015625 512.420898438 105.999023438 c 0
 515.172851562 116.522460938 516.548828125 125.768554688 516.548828125 133.736328125 c 0
 516.548828125 158.578125 503.172851562 170.999023438 476.420898438 170.999023438 c 0
 461.75390625 170.999023438 449.086914062 165.166015625 438.419921875 153.499023438 c 0
 427.752929688 141.83203125 419.419921875 126.33203125 413.419921875 106.999023438 c 0
 411.166992188 98.3095703125 410.040039062 90.513671875 410.040039062 83.6103515625 c 0
 410.040039062 76.2138671875 411.333984375 69.84375 413.919921875 64.4990234375 c 0
 418.919921875 54.166015625 431.086914062 48.666015625 450.419921875 47.9990234375 c 0
EndSplineSet
Validated: 524289
EndChar

StartChar: ampersand
Encoding: 38 38 17
Width: 630
GlyphClass: 2
Flags: HMW
HStem: -41.998 93.998<234.054 277.718> 645.001 79<458.72 459.053>
VStem: 451.389 89.9971 538.386 83.5<297 297>
LayerCount: 2
Fore
SplineSet
516.385742188 -35 m 0xe0
 509.868164062 -38.5849609375 503.469726562 -40.376953125 497.19140625 -40.376953125 c 0
 490.626953125 -40.376953125 484.192382812 -38.4169921875 477.887695312 -34.498046875 c 0
 465.5546875 -26.8310546875 456.721679688 -13.6640625 451.388671875 5.0029296875 c 0xe0
 450.721679688 8.3359375 449.221679688 18.3359375 446.888671875 35.0029296875 c 0
 444.555664062 51.669921875 442.388671875 63.669921875 440.388671875 71.0029296875 c 1
 438.388671875 68.3359375 433.388671875 62.6689453125 425.388671875 54.001953125 c 0
 417.388671875 45.3349609375 411.388671875 39.001953125 407.388671875 35.001953125 c 0
 403.388671875 31.001953125 396.888671875 25.001953125 387.888671875 17.001953125 c 0
 378.888671875 9.001953125 371.388671875 2.8349609375 365.388671875 -1.498046875 c 0
 359.388671875 -5.8310546875 351.555664062 -10.998046875 341.888671875 -16.998046875 c 0
 332.221679688 -22.998046875 323.0546875 -27.498046875 314.387695312 -30.498046875 c 0
 305.720703125 -33.498046875 295.887695312 -36.1650390625 284.887695312 -38.498046875 c 0
 273.887695312 -40.8310546875 262.720703125 -41.998046875 251.387695312 -41.998046875 c 0
 216.720703125 -41.998046875 187.053710938 -32.3310546875 162.38671875 -12.998046875 c 0
 137.719726562 6.3349609375 121.052734375 31.66796875 112.385742188 63.0009765625 c 0
 107.87890625 79.2939453125 105.625976562 96.30859375 105.625976562 114.04296875 c 0
 105.625976562 130.415039062 107.545898438 147.400390625 111.385742188 165.000976562 c 0
 140.052734375 291.000976562 208.385742188 376.66796875 316.385742188 422.000976562 c 1
 313.052734375 432.000976562 308.885742188 444.000976562 303.885742188 458.000976562 c 0
 298.885742188 472.000976562 295.385742188 481.833984375 293.385742188 487.500976562 c 0
 291.385742188 493.16796875 289.21875 500.500976562 286.885742188 509.500976562 c 0
 284.552734375 518.500976562 283.385742188 526.333984375 283.385742188 533.000976562 c 0
 283.385742188 539.66796875 283.885742188 547.834960938 284.885742188 557.501953125 c 0
 285.885742188 567.168945312 287.71875 577.668945312 290.385742188 589.001953125 c 0
 293.052734375 601.001953125 297.219726562 612.834960938 302.88671875 624.501953125 c 0
 308.553710938 636.168945312 316.38671875 648.168945312 326.38671875 660.501953125 c 0
 336.38671875 672.834960938 347.88671875 683.66796875 360.88671875 693.000976562 c 0
 373.88671875 702.333984375 389.88671875 709.833984375 408.88671875 715.500976562 c 0
 427.88671875 721.16796875 448.053710938 724.000976562 469.38671875 724.000976562 c 0
 487.38671875 724.000976562 504.38671875 721.000976562 520.38671875 715.000976562 c 0
 536.38671875 709.000976562 550.219726562 700.16796875 561.88671875 688.500976562 c 0
 573.553710938 676.833984375 581.38671875 661.500976562 585.38671875 642.500976562 c 0
 587.100585938 634.358398438 587.958007812 625.817382812 587.958007812 616.87890625 c 0
 587.958007812 604.9609375 586.434570312 592.333984375 583.38671875 579.000976562 c 0
 578.719726562 557.66796875 571.552734375 537.834960938 561.885742188 519.501953125 c 0
 552.21875 501.168945312 542.21875 485.8359375 531.885742188 473.502929688 c 0
 521.552734375 461.169921875 509.052734375 449.336914062 494.385742188 438.00390625 c 0
 479.71875 426.670898438 466.71875 417.670898438 455.385742188 411.00390625 c 0
 444.052734375 404.336914062 431.052734375 397.669921875 416.385742188 391.002929688 c 1
 423.052734375 370.3359375 435.052734375 339.668945312 452.385742188 299.001953125 c 0
 469.71875 258.334960938 480.71875 231.334960938 485.385742188 218.001953125 c 1
 491.385742188 227.334960938 498.385742188 238.16796875 506.385742188 250.500976562 c 0
 514.385742188 262.833984375 521.052734375 272.833984375 526.385742188 280.500976562 c 0
 531.71875 288.16796875 535.71875 293.66796875 538.385742188 297.000976562 c 0
 553.052734375 314.333984375 565.885742188 325.166992188 576.885742188 329.5 c 0
 581.21875 331.20703125 585.525390625 332.060546875 589.806640625 332.060546875 c 0
 596.39453125 332.060546875 602.920898438 330.040039062 609.385742188 325.999023438 c 0
 617.815429688 321.181640625 622.03125 312.694335938 622.03125 300.534179688 c 0
 622.03125 288.635742188 618.213867188 271.743164062 602.385742188 248 c 0
 597.71875 242 585.385742188 228.666992188 565.385742188 208 c 0
 545.385742188 187.333007812 528.052734375 168.333007812 513.385742188 151 c 1
 517.385742188 138.333007812 523.052734375 120.166015625 530.385742188 96.4990234375 c 0
 537.71875 72.83203125 541.71875 58.9990234375 542.385742188 54.9990234375 c 0
 544.895507812 47.4697265625 546.150390625 39.5712890625 546.150390625 31.302734375 c 0
 546.150390625 22.001953125 544.5625 12.234375 541.385742188 1.9990234375 c 0
 535.385742188 -17.333984375 527.052734375 -29.6669921875 516.385742188 -35 c 0xe0
374.38671875 572.000976562 m 0
 372.385742188 563.665039062 371.385742188 554.913085938 371.385742188 545.744140625 c 0
 371.385742188 536.579101562 372.385742188 526.999023438 374.384765625 517.000976562 c 0
 378.384765625 497.000976562 384.717773438 479.333984375 393.384765625 464.000976562 c 1
 408.051757812 468.66796875 420.71875 473.500976562 431.385742188 478.500976562 c 0
 442.052734375 483.500976562 452.552734375 490.000976562 462.885742188 498.000976562 c 0
 473.21875 506.000976562 481.71875 515.833984375 488.385742188 527.500976562 c 0
 495.052734375 539.16796875 500.052734375 553.000976562 503.385742188 569.000976562 c 0
 505.462890625 577.5390625 506.500976562 585.37890625 506.500976562 592.51953125 c 0
 506.500976562 606.006835938 502.795898438 617.000976562 495.385742188 625.500976562 c 0
 484.052734375 638.500976562 468.719726562 645.000976562 449.38671875 645.000976562 c 0
 410.719726562 645.000976562 385.719726562 620.66796875 374.38671875 572.000976562 c 0
206.384765625 174.000976562 m 0
 203.237304688 160.361328125 201.663085938 147.59765625 201.663085938 135.711914062 c 0
 201.663085938 117.389648438 205.403320312 101.15234375 212.883789062 87 c 0
 225.216796875 63.6669921875 245.383789062 52 273.383789062 52 c 0
 282.05078125 52 290.717773438 53 299.384765625 55 c 0
 308.051757812 57 315.71875 59 322.385742188 61 c 0
 329.052734375 63 336.052734375 66.3330078125 343.385742188 71 c 0
 350.71875 75.6669921875 356.551757812 79.5 360.884765625 82.5 c 0
 365.217773438 85.5 370.717773438 90.1669921875 377.384765625 96.5 c 0
 384.051757812 102.833007812 388.71875 107.333007812 391.385742188 110 c 0
 394.052734375 112.666992188 398.385742188 117.5 404.385742188 124.5 c 0
 410.385742188 131.5 414.052734375 135.666992188 415.385742188 137 c 0
 410.71875 163 406.051757812 183.333007812 401.384765625 198 c 0
 397.384765625 213.333007812 388.217773438 238.333007812 373.884765625 273 c 0
 359.551757812 307.666992188 349.384765625 333.333984375 343.384765625 350.000976562 c 1
 322.717773438 341.333984375 304.384765625 330.500976562 288.384765625 317.500976562 c 0
 272.384765625 304.500976562 259.051757812 290.16796875 248.384765625 274.500976562 c 0
 237.717773438 258.833984375 229.217773438 243.000976562 222.884765625 227.000976562 c 0
 216.551757812 211.000976562 211.051757812 193.333984375 206.384765625 174.000976562 c 0
EndSplineSet
Validated: 524289
EndChar

StartChar: quotesingle
Encoding: 39 39 18
Width: 630
GlyphClass: 2
Flags: HMW
HStem: 446.001 325.499
VStem: 376.465 152
LayerCount: 2
Fore
SplineSet
528.463867188 728 m 0
 523.130859375 701.333007812 513.465820312 660.16796875 499.465820312 604.500976562 c 0
 485.465820312 548.833984375 474.1328125 509.333984375 465.465820312 486.000976562 c 0
 460.798828125 472.000976562 453.131835938 461.66796875 442.46484375 455.000976562 c 0
 432.767578125 448.940429688 423.346679688 445.91015625 414.201171875 445.91015625 c 0
 413.286132812 445.91015625 412.374023438 445.940429688 411.46484375 446.000976562 c 0
 398.797851562 446.66796875 388.630859375 451.000976562 380.963867188 459.000976562 c 0
 376.198242188 463.973632812 373.815429688 470.106445312 373.815429688 477.397460938 c 0
 373.815429688 481.8359375 374.698242188 486.703125 376.463867188 492.000976562 c 0
 386.463867188 526.66796875 396.463867188 566.66796875 406.463867188 612.000976562 c 0
 416.463867188 657.333984375 424.796875 697.666992188 431.463867188 733 c 0
 432.796875 741 435.796875 748 440.463867188 754 c 0
 445.130859375 760 450.630859375 764.166992188 456.963867188 766.5 c 0
 463.296875 768.833007812 469.296875 770.5 474.963867188 771.5 c 0
 480.630859375 772.5 486.463867188 772.666992188 492.463867188 772 c 0
 497.796875 772 502.796875 771.333007812 507.463867188 770 c 0
 512.130859375 768.666992188 516.463867188 766.5 520.463867188 763.5 c 0
 524.463867188 760.5 527.130859375 756 528.463867188 750 c 0
 529.796875 744 529.796875 736.666992188 528.463867188 728 c 0
EndSplineSet
Validated: 524289
EndChar

StartChar: parenleft
Encoding: 40 40 19
Width: 630
GlyphClass: 2
Flags: HMW
HStem: -130.998 83.998<361.372 408.041> 733.002 81<573.041 613.707>
LayerCount: 2
Fore
SplineSet
428.040039062 -93 m 0
 425.373046875 -103.666992188 419.205078125 -112.665039062 409.538085938 -119.998046875 c 0
 399.87109375 -127.331054688 390.704101562 -130.998046875 382.037109375 -130.998046875 c 0
 340.704101562 -130.998046875 306.87109375 -114.998046875 280.538085938 -82.998046875 c 0
 254.205078125 -50.998046875 237.038085938 -6.6650390625 229.038085938 50.001953125 c 0
 225.482421875 75.1875 223.705078125 102.083984375 223.705078125 130.693359375 c 0
 223.705078125 166.455078125 226.482421875 204.890625 232.038085938 246.001953125 c 0
 238.705078125 294.668945312 254.372070312 358.001953125 279.0390625 436.001953125 c 0
 303.706054688 514.001953125 330.706054688 578.334960938 360.0390625 629.001953125 c 0
 373.372070312 651.001953125 389.0390625 672.834960938 407.0390625 694.501953125 c 0
 425.0390625 716.168945312 444.706054688 736.001953125 466.0390625 754.001953125 c 0
 487.372070312 772.001953125 510.0390625 786.501953125 534.0390625 797.501953125 c 0
 558.0390625 808.501953125 580.372070312 814.001953125 601.0390625 814.001953125 c 0
 621.521484375 814.001953125 631.762695312 805.068359375 631.762695312 787.200195312 c 0
 631.762695312 782.96875 631.1875 778.236328125 630.0390625 773.001953125 c 0
 626.706054688 759.001953125 620.373046875 748.834960938 611.040039062 742.501953125 c 0
 601.70703125 736.168945312 591.70703125 733.001953125 581.040039062 733.001953125 c 0
 565.040039062 733.001953125 548.873046875 728.001953125 532.540039062 718.001953125 c 0
 516.20703125 708.001953125 500.70703125 694.334960938 486.040039062 677.001953125 c 0
 471.373046875 659.668945312 457.873046875 640.668945312 445.540039062 620.001953125 c 0
 433.20703125 599.334960938 421.70703125 577.001953125 411.040039062 553.001953125 c 0
 395.040039062 518.334960938 378.540039062 470.66796875 361.540039062 410.000976562 c 0
 344.540039062 349.333984375 333.040039062 300.000976562 327.040039062 262.000976562 c 0
 322.130859375 228.727539062 319.676757812 196.235351562 319.676757812 164.5234375 c 0
 319.676757812 157.477539062 319.797851562 150.469726562 320.040039062 143.500976562 c 0
 321.373046875 105.16796875 325.540039062 72.16796875 332.540039062 44.5009765625 c 0
 339.540039062 16.833984375 349.20703125 -5.3330078125 361.540039062 -22 c 0
 373.873046875 -38.6669921875 387.373046875 -47 402.040039062 -47 c 0
 414.040039062 -47 422.373046875 -50.3330078125 427.040039062 -57 c 0
 429.552734375 -60.58984375 430.809570312 -65.7255859375 430.809570312 -72.408203125 c 0
 430.809570312 -78.1357421875 429.88671875 -85 428.040039062 -93 c 0
EndSplineSet
Validated: 524289
EndChar

StartChar: parenright
Encoding: 41 41 20
Width: 630
GlyphClass: 2
Flags: HMW
HStem: -131.005 84<196.674 203.675> 732.998 81.002<378.343 410.676>
VStem: 471.009 86.001
LayerCount: 2
Fore
SplineSet
507.01171875 246 m 0
 483.01171875 172 454.008789062 106.662109375 420.008789062 49.9951171875 c 0
 386.008789062 -6.671875 348.341796875 -51.0048828125 307.008789062 -83.0048828125 c 0
 265.67578125 -115.004882812 224.342773438 -131.004882812 183.009765625 -131.004882812 c 0
 174.342773438 -131.004882812 166.67578125 -127.337890625 160.008789062 -120.004882812 c 0
 153.341796875 -112.671875 151.341796875 -103.671875 154.008789062 -93.0048828125 c 0
 158.008789062 -75.671875 164.008789062 -63.671875 172.008789062 -57.0048828125 c 0
 180.008789062 -50.337890625 190.341796875 -47.0048828125 203.008789062 -47.0048828125 c 0
 217.67578125 -47.0048828125 234.842773438 -38.671875 254.509765625 -22.0048828125 c 0
 274.176757812 -5.337890625 294.009765625 16.8291015625 314.009765625 44.49609375 c 0
 334.009765625 72.1630859375 353.676757812 105.330078125 373.009765625 143.997070312 c 0
 392.342773438 182.6640625 408.009765625 221.997070312 420.009765625 261.997070312 c 0
 432.009765625 299.997070312 443.342773438 349.330078125 454.009765625 409.997070312 c 0
 464.676757812 470.6640625 470.34375 518.331054688 471.010742188 552.998046875 c 0
 471.010742188 576.998046875 469.510742188 599.331054688 466.510742188 619.998046875 c 0
 463.510742188 640.665039062 458.84375 659.665039062 452.510742188 676.998046875 c 0
 446.177734375 694.331054688 437.177734375 707.998046875 425.510742188 717.998046875 c 0
 413.84375 727.998046875 400.010742188 732.998046875 384.010742188 732.998046875 c 0
 372.677734375 732.998046875 364.010742188 736.165039062 358.010742188 742.498046875 c 0
 353.856445312 746.8828125 351.780273438 753.104492188 351.780273438 761.1640625 c 0
 351.780273438 764.745117188 352.190429688 768.690429688 353.010742188 772.998046875 c 0
 355.010742188 781.665039062 358.010742188 788.83203125 362.010742188 794.499023438 c 0
 366.010742188 800.166015625 370.34375 804.333007812 375.010742188 807 c 0
 379.677734375 809.666992188 384.010742188 811.5 388.010742188 812.5 c 0
 392.010742188 813.5 396.010742188 814 400.010742188 814 c 0
 421.34375 814 441.34375 808.5 460.010742188 797.5 c 0
 478.677734375 786.5 494.510742188 772 507.510742188 754 c 0
 520.510742188 736 531.34375 716.166992188 540.010742188 694.5 c 0
 548.677734375 672.833007812 554.344726562 651 557.01171875 629 c 0
 559.049804688 611.791992188 560.068359375 593.0078125 560.068359375 572.647460938 c 0
 560.068359375 533.057617188 556.215820312 487.508789062 548.51171875 436 c 0
 536.844726562 358 523.01171875 294.666992188 507.01171875 246 c 0
EndSplineSet
Validated: 524289
EndChar

StartChar: asterisk
Encoding: 42 42 21
Width: 630
GlyphClass: 2
Flags: HMW
HStem: 292.998 103.999 305.999 77<451.193 495.193>
VStem: 300.192 86.001 400.193 86
LayerCount: 2
Fore
SplineSet
296.1953125 139 m 0x70
 292.1953125 131 286.693359375 124.999023438 279.693359375 120.999023438 c 0
 272.693359375 116.999023438 265.526367188 114.666015625 258.193359375 113.999023438 c 0
 250.860351562 113.33203125 244.193359375 113.83203125 238.193359375 115.499023438 c 0
 232.193359375 117.166015625 227.193359375 119.333007812 223.193359375 122 c 0
 218.526367188 125.333007812 214.859375 130.166015625 212.192382812 136.499023438 c 0
 209.525390625 142.83203125 208.692382812 150.665039062 209.692382812 159.998046875 c 0
 210.692382812 169.331054688 214.859375 178.998046875 222.192382812 188.998046875 c 2
 309.192382812 297.998046875 l 1
 257.192382812 294.665039062 219.192382812 292.998046875 195.192382812 292.998046875 c 0
 180.525390625 292.998046875 170.192382812 298.331054688 164.192382812 308.998046875 c 0
 160.038085938 316.3828125 157.961914062 324.086914062 157.961914062 332.110351562 c 0
 157.961914062 335.676757812 158.372070312 339.305664062 159.192382812 342.998046875 c 0
 159.859375 348.998046875 161.692382812 355.165039062 164.692382812 361.498046875 c 0
 167.692382812 367.831054688 171.525390625 373.831054688 176.192382812 379.498046875 c 0
 180.859375 385.165039062 186.859375 389.665039062 194.192382812 392.998046875 c 0
 201.525390625 396.331054688 208.858398438 397.6640625 216.19140625 396.997070312 c 0xb0
 244.19140625 394.330078125 285.524414062 390.997070312 340.19140625 386.997070312 c 1
 324.858398438 435.6640625 311.525390625 472.997070312 300.192382812 498.997070312 c 0
 297.525390625 506.6640625 296.192382812 514.247070312 296.192382812 521.747070312 c 0
 296.192382812 529.247070312 297.525390625 536.663085938 300.192382812 543.997070312 c 0
 305.525390625 558.6640625 313.525390625 568.331054688 324.192382812 572.998046875 c 0
 330.859375 576.998046875 338.359375 579.165039062 346.692382812 579.498046875 c 0
 355.025390625 579.831054688 363.025390625 577.331054688 370.692382812 571.998046875 c 0
 378.359375 566.665039062 383.526367188 558.665039062 386.193359375 547.998046875 c 0
 389.526367188 531.998046875 398.859375 493.665039062 414.192382812 432.998046875 c 1
 449.525390625 478.331054688 476.858398438 516.331054688 496.19140625 546.998046875 c 0
 502.858398438 557.665039062 511.025390625 565.665039062 520.692382812 570.998046875 c 0
 530.359375 576.331054688 539.026367188 578.831054688 546.693359375 578.498046875 c 0
 554.360351562 578.165039062 560.52734375 575.665039062 565.194335938 570.998046875 c 0
 570.52734375 567.665039062 574.360351562 562.33203125 576.693359375 554.999023438 c 0
 579.026367188 547.666015625 579.026367188 538.999023438 576.693359375 528.999023438 c 0
 574.360351562 518.999023438 569.193359375 509.33203125 561.193359375 499.999023438 c 0
 533.860351562 468.666015625 502.860351562 429.666015625 468.193359375 382.999023438 c 1
 522.193359375 382.999023438 561.526367188 386.666015625 586.193359375 393.999023438 c 0
 590.860351562 395.484375 595.172851562 396.2265625 599.130859375 396.2265625 c 0
 607.612304688 396.2265625 614.466796875 392.817382812 619.694335938 385.999023438 c 0
 625.775390625 378.068359375 628.815429688 369.717773438 628.815429688 360.948242188 c 0
 628.815429688 358.66015625 628.608398438 356.34375 628.194335938 353.999023438 c 0
 626.861328125 347.999023438 624.861328125 341.999023438 622.194335938 335.999023438 c 0
 619.52734375 329.999023438 616.02734375 323.999023438 611.694335938 317.999023438 c 0
 607.361328125 311.999023438 601.861328125 307.33203125 595.194335938 303.999023438 c 0
 588.52734375 300.666015625 581.860351562 299.999023438 575.193359375 301.999023438 c 0
 560.193359375 304.999023438 533.192382812 306.499023438 494.19140625 306.499023438 c 0
 481.192382812 306.499023438 466.859375 306.33203125 451.193359375 305.999023438 c 1
 487.193359375 189.999023438 l 2
 488.708007812 183.029296875 489.465820312 176.438476562 489.465820312 170.2265625 c 0
 489.465820312 162.771484375 488.375 155.862304688 486.193359375 149.499023438 c 0
 482.193359375 137.83203125 475.526367188 129.33203125 466.193359375 123.999023438 c 0
 459.526367188 119.999023438 451.193359375 117.666015625 441.193359375 116.999023438 c 0
 431.193359375 116.33203125 422.026367188 118.33203125 413.693359375 122.999023438 c 0
 405.360351562 127.666015625 400.860351562 135.333007812 400.193359375 146 c 0
 398.860351562 172.666992188 391.52734375 211 378.194335938 261 c 1
 334.861328125 199.666992188 307.528320312 159 296.1953125 139 c 0x70
EndSplineSet
Validated: 524289
EndChar

StartChar: plus
Encoding: 43 43 22
Width: 630
GlyphClass: 2
Flags: HMW
HStem: 356.998 84.001<348.991 375.323>
LayerCount: 2
Fore
SplineSet
406.323242188 250 m 0
 402.990234375 234.666992188 397.322265625 223.831054688 389.322265625 217.498046875 c 0
 381.322265625 211.165039062 371.989257812 207.998046875 361.322265625 207.998046875 c 0
 339.771484375 207.998046875 328.995117188 216.701171875 328.995117188 234.108398438 c 0
 328.995117188 238.778320312 329.771484375 244.075195312 331.322265625 249.998046875 c 2
 355.322265625 356.998046875 l 1
 342.655273438 356.998046875 325.822265625 356.831054688 304.822265625 356.498046875 c 0
 283.822265625 356.165039062 269.655273438 355.998046875 262.322265625 355.998046875 c 0
 246.989257812 355.998046875 236.489257812 360.165039062 230.822265625 368.498046875 c 0
 226.96875 374.1640625 225.041992188 380.678710938 225.041992188 388.041015625 c 0
 225.041992188 391.505859375 225.46875 395.158203125 226.322265625 398.998046875 c 0
 228.322265625 411.665039062 233.989257812 422.33203125 243.322265625 430.999023438 c 0
 251.98828125 439.046875 263.529296875 443.0703125 277.943359375 443.0703125 c 0
 279.052734375 443.0703125 280.178710938 443.046875 281.322265625 442.999023438 c 0
 324.655273438 441.666015625 355.98828125 440.999023438 375.321289062 440.999023438 c 1
 383.321289062 474.33203125 390.654296875 510.33203125 397.321289062 548.999023438 c 0
 402.654296875 577.666015625 419.321289062 591.999023438 447.321289062 591.999023438 c 0
 459.98828125 592.666015625 469.655273438 589.999023438 476.322265625 583.999023438 c 0
 480.244140625 580.469726562 482.205078125 575.094726562 482.205078125 567.875 c 0
 482.205078125 562.8203125 481.244140625 556.862304688 479.322265625 549.999023438 c 0
 467.989257812 511.33203125 458.322265625 474.33203125 450.322265625 438.999023438 c 1
 552.322265625 438.999023438 l 2
 566.989257812 438.999023438 576.322265625 435.666015625 580.322265625 428.999023438 c 0
 584.322265625 422.33203125 585.655273438 413.33203125 584.322265625 401.999023438 c 0
 582.989257812 395.999023438 581.15625 390.499023438 578.823242188 385.499023438 c 0
 576.490234375 380.499023438 573.323242188 375.666015625 569.323242188 370.999023438 c 0
 565.323242188 366.33203125 560.323242188 362.83203125 554.323242188 360.499023438 c 0
 548.323242188 358.166015625 541.65625 357.333007812 534.323242188 358 c 0
 524.723632812 359.200195312 508.524414062 359.799804688 485.724609375 359.799804688 c 0
 470.524414062 359.799804688 452.390625 359.533203125 431.323242188 359 c 1
 427.323242188 341 422.490234375 319.666992188 416.823242188 295 c 0
 411.15625 270.333007812 407.65625 255.333007812 406.323242188 250 c 0
EndSplineSet
Validated: 524289
EndChar

StartChar: comma
Encoding: 44 44 23
Width: 630
GlyphClass: 2
Flags: HMW
VStem: 178.421 254.999
LayerCount: 2
Fore
SplineSet
431.919921875 96 m 0
 417.919921875 63.3330078125 392.921875 12.9990234375 356.921875 -55.0009765625 c 0
 320.921875 -123.000976562 295.588867188 -165.000976562 280.921875 -181.000976562 c 0
 267.588867188 -195.000976562 252.588867188 -205.000976562 235.921875 -211.000976562 c 0
 225.921875 -214.600585938 217.361328125 -216.401367188 210.241210938 -216.401367188 c 0
 205.494140625 -216.401367188 201.387695312 -215.600585938 197.920898438 -214.000976562 c 0
 191.920898438 -212.000976562 186.920898438 -208.000976562 182.920898438 -202.000976562 c 0
 178.920898438 -196.000976562 177.420898438 -188.66796875 178.420898438 -180.000976562 c 0
 179.420898438 -171.333984375 183.920898438 -162.333984375 191.920898438 -153.000976562 c 0
 209.25390625 -133.000976562 237.086914062 -89.0009765625 275.419921875 -21.0009765625 c 0
 313.752929688 46.9990234375 338.5859375 94.33203125 349.918945312 120.999023438 c 0
 353.918945312 130.33203125 360.0859375 137.665039062 368.418945312 142.998046875 c 0
 376.751953125 148.331054688 384.751953125 150.998046875 392.418945312 150.998046875 c 0
 400.0859375 150.998046875 407.252929688 150.331054688 413.919921875 148.998046875 c 0
 422.586914062 145.665039062 429.086914062 139.33203125 433.419921875 129.999023438 c 0
 435.362304688 125.815429688 436.333007812 121.229492188 436.333007812 116.2421875 c 0
 436.333007812 110.103515625 434.862304688 103.356445312 431.919921875 96 c 0
EndSplineSet
Validated: 524289
EndChar

StartChar: hyphen
Encoding: 45 45 24
Width: 630
GlyphClass: 2
Flags: HMW
HStem: 243 87<270.842 276.51> 251 82<471.51 501.844>
VStem: 235.51 290.001
LayerCount: 2
Fore
SplineSet
284.508789062 330 m 0xa0
 319.841796875 330 362.010742188 330.5 411.010742188 331.5 c 0
 460.010742188 332.5 487.84375 333 494.510742188 333 c 0
 509.177734375 333 518.510742188 329.5 522.510742188 322.5 c 0
 526.510742188 315.5 527.510742188 306.333007812 525.510742188 295 c 0
 518.84375 265.666992188 502.176757812 251 475.509765625 251 c 0x60
 467.509765625 251 436.009765625 249.666992188 381.009765625 247 c 0
 326.009765625 244.333007812 287.509765625 243 265.509765625 243 c 0
 244.176757812 243 233.509765625 252.172851562 233.509765625 270.51953125 c 0
 233.509765625 275.106445312 234.176757812 280.266601562 235.509765625 286 c 0
 240.842773438 315.333007812 257.17578125 330 284.508789062 330 c 0xa0
EndSplineSet
Validated: 524289
EndChar

StartChar: period
Encoding: 46 46 25
Width: 630
GlyphClass: 2
Flags: HMW
HStem: -14 153.998
VStem: 254.034 151
LayerCount: 2
Fore
SplineSet
313.034179688 -14 m 0
 309.7578125 -14.3740234375 306.606445312 -14.5615234375 303.581054688 -14.5615234375 c 0
 285.052734375 -14.5615234375 271.205078125 -7.5439453125 262.036132812 6.49609375 c 0
 254.924804688 17.384765625 251.369140625 29.5341796875 251.369140625 42.94140625 c 0
 251.369140625 49.6455078125 252.2578125 56.6630859375 254.03515625 63.99609375 c 0
 258.702148438 84.6630859375 270.702148438 102.330078125 290.03515625 116.997070312 c 0
 309.368164062 131.6640625 329.03515625 139.331054688 349.03515625 139.998046875 c 0
 350.013671875 140.02734375 350.98046875 140.04296875 351.935546875 140.04296875 c 0
 372.4609375 140.04296875 387.661132812 133.194335938 397.53515625 119.499023438 c 0
 404.350585938 110.044921875 407.758789062 98.923828125 407.758789062 86.1337890625 c 0
 407.758789062 79.533203125 406.850585938 72.48828125 405.03515625 64.9990234375 c 0
 400.368164062 43.666015625 389.701171875 25.8330078125 373.034179688 11.5 c 0
 356.3671875 -2.8330078125 336.3671875 -11.3330078125 313.034179688 -14 c 0
EndSplineSet
Validated: 524289
EndChar

StartChar: slash
Encoding: 47 47 26
Width: 630
GlyphClass: 2
Flags: HMW
VStem: 76.5911 95
LayerCount: 2
Fore
SplineSet
693.58984375 676 m 0
 669.58984375 642 605.091796875 558.498046875 500.091796875 425.498046875 c 0
 395.091796875 292.498046875 330.924804688 209.998046875 307.591796875 177.998046875 c 0
 292.924804688 157.331054688 268.7578125 122.331054688 235.090820312 72.998046875 c 0
 201.423828125 23.6650390625 180.256835938 -6.3349609375 171.58984375 -17.001953125 c 0
 157.58984375 -35.6689453125 142.08984375 -48.6689453125 125.08984375 -56.001953125 c 0
 116.58984375 -59.66796875 108.96484375 -61.501953125 102.21484375 -61.501953125 c 0
 95.46484375 -61.501953125 89.58984375 -59.66796875 84.58984375 -56.001953125 c 0
 78.58984375 -52.001953125 75.58984375 -44.0654296875 75.58984375 -32.1904296875 c 0
 75.58984375 -28.232421875 75.9228515625 -23.8359375 76.58984375 -19.0029296875 c 0
 79.2568359375 0.330078125 87.2568359375 17.9970703125 100.58984375 33.9970703125 c 0
 228.58984375 193.997070312 338.922851562 336.330078125 431.58984375 460.997070312 c 0
 489.58984375 537.6640625 552.256835938 624.331054688 619.58984375 720.998046875 c 0
 626.922851562 731.665039062 635.58984375 739.83203125 645.58984375 745.499023438 c 0
 655.58984375 751.166015625 664.58984375 753.833007812 672.58984375 753.5 c 0
 680.58984375 753.166992188 688.256835938 751.333984375 695.58984375 748.000976562 c 0
 705.58984375 742.000976562 710.58984375 732.66796875 710.58984375 720.000976562 c 0
 710.58984375 707.333984375 704.922851562 692.666992188 693.58984375 676 c 0
EndSplineSet
Validated: 524289
EndChar

StartChar: zero
Encoding: 48 48 27
Width: 630
GlyphClass: 2
Flags: HMW
HStem: -24 83.999<285.936 297.268> 636.999 81.001<472.268 473.602>
LayerCount: 2
Fore
SplineSet
287.936523438 -24 m 0
 259.26953125 -24 233.770507812 -18.333984375 211.4375 -7.0009765625 c 0
 189.104492188 4.33203125 171.604492188 19.9990234375 158.9375 39.9990234375 c 0
 146.270507812 59.9990234375 138.4375 84.9990234375 135.4375 114.999023438 c 0
 134.708007812 122.295898438 134.342773438 129.770507812 134.342773438 137.422851562 c 0
 134.342773438 161.23046875 137.875 186.755859375 144.9375 213.999023438 c 0
 146.270507812 220.666015625 149.770507812 237.166015625 155.4375 263.499023438 c 0
 161.104492188 289.83203125 165.771484375 310.83203125 169.438476562 326.499023438 c 0
 173.10546875 342.166015625 178.60546875 363.833007812 185.938476562 391.5 c 0
 193.271484375 419.166992188 200.271484375 443 206.938476562 463 c 0
 213.60546875 483 221.938476562 504.5 231.938476562 527.5 c 0
 241.938476562 550.5 251.938476562 570.666992188 261.938476562 588 c 0
 287.271484375 630 320.104492188 662.166992188 360.4375 684.5 c 0
 400.770507812 706.833007812 446.603515625 718 497.936523438 718 c 0
 523.26953125 718 545.76953125 713.333007812 565.436523438 704 c 0
 585.103515625 694.666992188 601.770507812 681 615.4375 663 c 0
 629.104492188 645 638.271484375 621.666992188 642.938476562 593 c 0
 645.116210938 579.62109375 646.206054688 565.298828125 646.206054688 550.032226562 c 0
 646.206054688 532.586914062 644.783203125 513.91015625 641.939453125 494 c 0
 636.606445312 460.666992188 629.2734375 422.833984375 619.940429688 380.500976562 c 0
 610.607421875 338.16796875 599.607421875 295.500976562 586.940429688 252.500976562 c 0
 574.2734375 209.500976562 562.606445312 176.66796875 551.939453125 154.000976562 c 0
 541.272460938 131.333984375 530.60546875 111.333984375 519.938476562 94.0009765625 c 0
 509.271484375 76.66796875 498.604492188 61.66796875 487.9375 49.0009765625 c 0
 477.270507812 36.333984375 465.770507812 25.6669921875 453.4375 17 c 0
 441.104492188 8.3330078125 429.104492188 1.3330078125 417.4375 -4 c 0
 405.770507812 -9.3330078125 392.770507812 -13.5 378.4375 -16.5 c 0
 364.104492188 -19.5 350.104492188 -21.5 336.4375 -22.5 c 0
 322.770507812 -23.5 306.603515625 -24 287.936523438 -24 c 0
238.9375 229.999023438 m 0
 238.270507812 227.33203125 237.4375 223.333007812 236.4375 218 c 0
 235.4375 212.666992188 234.604492188 209 233.9375 207 c 1
 345.270507812 329 449.270507812 454.333007812 545.9375 583 c 1
 538.604492188 600.333007812 527.9375 613.666015625 513.9375 622.999023438 c 0
 499.9375 632.33203125 483.270507812 636.999023438 463.9375 636.999023438 c 0
 429.270507812 636.999023438 399.9375 626.666015625 375.9375 605.999023438 c 0
 351.9375 585.33203125 329.9375 551.999023438 309.9375 505.999023438 c 0
 301.9375 489.33203125 294.4375 469.83203125 287.4375 447.499023438 c 0
 280.4375 425.166015625 273.4375 398.166015625 266.4375 366.499023438 c 0
 259.4375 334.83203125 254.770507812 312.499023438 252.4375 299.499023438 c 0
 250.104492188 286.499023438 245.604492188 263.33203125 238.9375 229.999023438 c 0
467.9375 168 m 0
 471.9375 176 479.604492188 197.999023438 490.9375 233.999023438 c 0
 502.270507812 269.999023438 513.9375 311.166015625 525.9375 357.499023438 c 0
 537.9375 403.83203125 547.270507812 448.33203125 553.9375 490.999023438 c 1
 453.270507812 344.33203125 346.270507812 221.33203125 232.9375 121.999023438 c 1
 240.270507812 80.666015625 264.9375 59.9990234375 306.9375 59.9990234375 c 0
 323.604492188 59.9990234375 338.9375 61.4990234375 352.9375 64.4990234375 c 0
 366.9375 67.4990234375 380.770507812 72.83203125 394.4375 80.4990234375 c 0
 408.104492188 88.166015625 420.9375 99.3330078125 432.9375 114 c 0
 444.9375 128.666992188 456.604492188 146.666992188 467.9375 168 c 0
EndSplineSet
Validated: 524289
EndChar

StartChar: one
Encoding: 49 49 28
Width: 630
GlyphClass: 2
Flags: HMW
HStem: -9 85.5 -5 89<141.732 142.397>
LayerCount: 2
Fore
SplineSet
550.064453125 38 m 0x80
 547.397460938 24.6669921875 541.561523438 13.5 532.561523438 4.5 c 0
 523.561523438 -4.5 509.728515625 -9 491.061523438 -9 c 0x80
 483.061523438 -9 428.061523438 -8.3330078125 326.061523438 -7 c 0
 224.061523438 -5.6669921875 157.728515625 -5 127.061523438 -5 c 0
 113.061523438 -5 103.89453125 -1 99.5615234375 7 c 0
 96.87890625 11.9521484375 95.5380859375 17.7978515625 95.5380859375 24.5380859375 c 0
 95.5380859375 28.6865234375 96.0458984375 33.173828125 97.0625 38 c 0
 99.7294921875 51.3330078125 105.396484375 62.3330078125 114.063476562 71 c 0
 122.73046875 79.6669921875 134.397460938 84 149.064453125 84 c 0x40
 177.064453125 84 224.731445312 83.6669921875 292.064453125 83 c 1
 298.064453125 109.666992188 302.731445312 131 306.064453125 147 c 0
 306.731445312 152.333007812 310.564453125 170 317.564453125 200 c 0
 324.564453125 230 329.731445312 251.666992188 333.064453125 265 c 0
 336.397460938 278.333007812 342.897460938 303 352.564453125 339 c 0
 362.231445312 375 369.231445312 401.833007812 373.564453125 419.5 c 0
 377.897460938 437.166992188 385.23046875 465.166992188 395.563476562 503.5 c 0
 405.896484375 541.833007812 413.729492188 570 419.0625 588 c 1
 363.729492188 546.666992188 324.396484375 522 301.063476562 514 c 0
 296.9609375 512.359375 293.016601562 511.5390625 289.229492188 511.5390625 c 0
 280.708984375 511.5390625 272.986328125 515.692382812 266.063476562 524 c 0
 258.563476562 533 254.813476562 542 254.813476562 551 c 0
 254.813476562 554 255.23046875 557 256.063476562 560 c 0
 258.063476562 570.666992188 262.396484375 580.166992188 269.063476562 588.5 c 0
 275.73046875 596.833007812 285.73046875 605.333007812 299.063476562 614 c 0
 320.396484375 628.666992188 342.896484375 644.833984375 366.563476562 662.500976562 c 0
 390.23046875 680.16796875 407.563476562 693.000976562 418.563476562 701.000976562 c 0
 429.563476562 709.000976562 440.23046875 715.833984375 450.563476562 721.500976562 c 0
 460.896484375 727.16796875 469.729492188 730.000976562 477.0625 730.000976562 c 0
 490.395507812 730.000976562 502.5625 724.000976562 513.5625 712.000976562 c 0
 522.870117188 701.846679688 527.524414062 693.125 527.524414062 685.834960938 c 0
 527.524414062 683.2109375 527.524414062 683.2109375 483.5625 518.500976562 c 0
 458.5625 424.833984375 444.395507812 370.000976562 441.0625 354.000976562 c 0
 425.729492188 287.333984375 413.0625 231.666992188 403.0625 187 c 0
 397.0625 162.333007812 389.729492188 126.333007812 381.0625 79 c 1
 399.0625 79 417.895507812 78.6669921875 437.5625 78 c 0
 457.229492188 77.3330078125 473.396484375 76.8330078125 486.063476562 76.5 c 0
 498.73046875 76.1669921875 507.397460938 76 512.064453125 76 c 0
 529.397460938 76 540.564453125 72.5 545.564453125 65.5 c 0
 550.564453125 58.5 552.064453125 49.3330078125 550.064453125 38 c 0x80
EndSplineSet
Validated: 524289
EndChar

StartChar: two
Encoding: 50 50 29
Width: 630
GlyphClass: 2
Flags: HMW
HStem: -18.0049 84.0049 -12 89<484.729 521.23> 637.997 83.999<469.063 482.065>
LayerCount: 2
Fore
SplineSet
497.729492188 -12 m 0x60
 471.729492188 -12 439.231445312 -12.6728515625 400.231445312 -14.005859375 c 0
 361.231445312 -15.3388671875 326.564453125 -16.671875 296.231445312 -18.0048828125 c 0
 265.8984375 -19.337890625 235.231445312 -20.0048828125 204.231445312 -20.0048828125 c 0
 173.231445312 -20.0048828125 149.064453125 -18.671875 131.731445312 -16.0048828125 c 0
 118.3984375 -14.671875 110.565429688 -5.671875 108.232421875 10.9951171875 c 0
 107.706054688 14.7587890625 107.442382812 18.8955078125 107.442382812 23.4072265625 c 0
 107.442382812 38.8740234375 110.5390625 58.7373046875 116.732421875 82.9951171875 c 0
 123.399414062 111.662109375 135.899414062 141.829101562 154.232421875 173.49609375 c 0
 172.565429688 205.163085938 196.3984375 235.49609375 225.731445312 264.49609375 c 0
 255.064453125 293.49609375 286.731445312 316.99609375 320.731445312 334.99609375 c 0
 396.731445312 374.99609375 446.064453125 402.99609375 468.731445312 418.99609375 c 0
 498.731445312 440.329101562 520.064453125 462.99609375 532.731445312 486.99609375 c 0
 539.3984375 500.99609375 545.065429688 518.329101562 549.732421875 538.99609375 c 0
 552.514648438 551.053710938 553.90625 561.962890625 553.90625 571.72265625 c 0
 553.90625 590.021484375 549.014648438 604.279296875 539.232421875 614.497070312 c 0
 524.232421875 630.1640625 499.399414062 637.997070312 464.732421875 637.997070312 c 0
 440.732421875 637.997070312 415.732421875 629.997070312 389.732421875 613.997070312 c 0
 363.732421875 597.997070312 342.399414062 580.330078125 325.732421875 560.997070312 c 0
 317.732421875 552.330078125 310.899414062 545.497070312 305.232421875 540.497070312 c 0
 299.565429688 535.497070312 293.8984375 532.6640625 288.231445312 531.997070312 c 0
 282.564453125 531.330078125 277.564453125 531.663085938 273.231445312 532.99609375 c 0
 268.8984375 534.329101562 263.731445312 536.662109375 257.731445312 539.995117188 c 0
 248.3984375 545.995117188 243.731445312 554.662109375 243.731445312 565.995117188 c 0
 243.731445312 577.328125 249.731445312 591.995117188 261.731445312 609.995117188 c 0
 271.064453125 622.662109375 283.231445312 635.329101562 298.231445312 647.99609375 c 0
 313.231445312 660.663085938 330.231445312 672.663085938 349.231445312 683.99609375 c 0
 368.231445312 695.329101562 389.3984375 704.49609375 412.731445312 711.49609375 c 0
 436.064453125 718.49609375 458.397460938 721.99609375 479.73046875 721.99609375 c 0
 547.063476562 721.99609375 594.23046875 705.329101562 621.23046875 671.99609375 c 0
 638.451171875 650.736328125 647.060546875 622.697265625 647.060546875 587.877929688 c 0
 647.060546875 568.103515625 644.284179688 546.143554688 638.73046875 521.99609375 c 0
 626.063476562 466.663085938 602.73046875 422.330078125 568.73046875 388.997070312 c 0
 543.397460938 364.330078125 502.397460938 336.997070312 445.73046875 306.997070312 c 0
 431.73046875 298.997070312 407.397460938 286.6640625 372.73046875 269.997070312 c 0
 342.73046875 254.6640625 316.23046875 235.831054688 293.23046875 213.498046875 c 0
 270.23046875 191.165039062 252.063476562 168.33203125 238.73046875 144.999023438 c 0
 225.397460938 121.666015625 214.73046875 96.3330078125 206.73046875 69 c 1
 240.73046875 67 273.73046875 66 305.73046875 66 c 0xa0
 337.73046875 66 362.897460938 66.5 381.23046875 67.5 c 0
 399.563476562 68.5 420.73046875 70 444.73046875 72 c 2
 492.73046875 76 l 2
 493.397460938 76 496.397460938 76.1669921875 501.73046875 76.5 c 0
 507.063476562 76.8330078125 510.563476562 77 512.23046875 77 c 2
 521.23046875 77 l 2
 525.563476562 77 528.73046875 76.3330078125 530.73046875 75 c 0
 532.73046875 73.6669921875 534.897460938 72 537.23046875 70 c 0
 539.563476562 68 541.23046875 65.3330078125 542.23046875 62 c 0
 543.23046875 58.6669921875 543.397460938 54.6669921875 542.73046875 50 c 0
 542.063476562 42 539.896484375 33.5 536.229492188 24.5 c 0
 532.5625 15.5 527.229492188 7.1669921875 520.229492188 -0.5 c 0
 513.229492188 -8.1669921875 505.729492188 -12 497.729492188 -12 c 0x60
EndSplineSet
Validated: 524289
EndChar

StartChar: three
Encoding: 51 51 30
Width: 630
GlyphClass: 2
Flags: HMW
HStem: -23.9941 84<308.37 332.037> 318.006 100<337.37 344.037> 638.006 83.998<447.705 462.703>
VStem: 479.204 100
LayerCount: 2
Fore
SplineSet
571.704101562 199 m 0
 556.37109375 130.333007812 524.37109375 76.005859375 475.704101562 36.005859375 c 0
 427.037109375 -3.994140625 367.370117188 -23.994140625 296.703125 -23.994140625 c 0
 274.703125 -23.994140625 253.870117188 -20.494140625 234.203125 -13.494140625 c 0
 214.536132812 -6.494140625 197.703125 2.505859375 183.703125 13.505859375 c 0
 169.703125 24.505859375 158.036132812 36.505859375 148.703125 49.505859375 c 0
 139.370117188 62.505859375 133.370117188 75.3388671875 130.703125 88.005859375 c 0
 129.370117188 94.138671875 128.703125 100.059570312 128.703125 105.765625 c 0
 128.703125 114.326171875 130.203125 122.405273438 133.203125 130.005859375 c 0
 138.203125 142.672851562 146.370117188 151.672851562 157.703125 157.005859375 c 0
 167.358398438 161.603515625 175.982421875 163.90234375 183.576171875 163.90234375 c 0
 186.994140625 163.90234375 190.203125 163.436523438 193.203125 162.505859375 c 0
 202.870117188 159.505859375 211.037109375 151.005859375 217.704101562 137.005859375 c 0
 227.037109375 117.005859375 240.370117188 99.1728515625 257.703125 83.505859375 c 0
 275.036132812 67.8388671875 296.036132812 60.005859375 320.703125 60.005859375 c 0
 357.370117188 60.005859375 390.370117188 71.3388671875 419.703125 94.005859375 c 0
 449.036132812 116.672851562 467.703125 146.005859375 475.703125 182.005859375 c 0
 478.814453125 196.673828125 480.370117188 210.0078125 480.370117188 222.008789062 c 0
 480.370117188 228.0078125 479.981445312 233.672851562 479.204101562 239.005859375 c 0
 476.87109375 255.005859375 470.37109375 269.005859375 459.704101562 281.005859375 c 0
 449.037109375 293.005859375 432.537109375 302.172851562 410.204101562 308.505859375 c 0
 387.87109375 314.838867188 360.37109375 318.005859375 327.704101562 318.005859375 c 0
 315.037109375 318.005859375 305.370117188 323.505859375 298.703125 334.505859375 c 0
 294.2578125 341.83984375 292.036132812 349.692382812 292.036132812 358.0625 c 0
 292.036132812 362.248046875 292.590820312 366.561523438 293.702148438 371.005859375 c 0
 297.03515625 385.005859375 303.03515625 396.338867188 311.702148438 405.005859375 c 0
 320.369140625 413.672851562 331.036132812 418.005859375 343.703125 418.005859375 c 0
 395.703125 418.005859375 439.203125 429.172851562 474.203125 451.505859375 c 0
 509.203125 473.838867188 531.036132812 506.338867188 539.703125 549.005859375 c 0
 542.262695312 558.60546875 543.54296875 567.420898438 543.54296875 575.450195312 c 0
 543.54296875 592.513671875 537.762695312 606.032226562 526.203125 616.005859375 c 0
 509.203125 630.672851562 481.703125 638.005859375 443.703125 638.005859375 c 0
 436.370117188 638.005859375 429.203125 637.172851562 422.203125 635.505859375 c 0
 415.203125 633.838867188 409.203125 632.171875 404.203125 630.504882812 c 0
 399.203125 628.837890625 393.703125 626.004882812 387.703125 622.004882812 c 0
 381.703125 618.004882812 376.870117188 614.671875 373.203125 612.004882812 c 0
 369.536132812 609.337890625 364.703125 605.004882812 358.703125 599.004882812 c 2
 346.203125 586.504882812 l 2
 343.870117188 584.171875 339.703125 579.338867188 333.703125 572.005859375 c 0
 320.370117188 557.338867188 308.203125 548.671875 297.203125 546.004882812 c 0
 294.060546875 545.243164062 290.958007812 544.862304688 287.896484375 544.862304688 c 0
 280.243164062 544.862304688 272.845703125 547.243164062 265.703125 552.004882812 c 0
 256.9921875 556.982421875 252.637695312 565.0078125 252.637695312 576.083007812 c 0
 252.637695312 588.150390625 257.678710938 603.212890625 269.705078125 622.00390625 c 0
 279.038085938 635.336914062 289.705078125 647.50390625 301.705078125 658.50390625 c 0
 313.705078125 669.50390625 327.372070312 680.00390625 342.705078125 690.00390625 c 0
 358.038085938 700.00390625 375.705078125 707.836914062 395.705078125 713.50390625 c 0
 415.705078125 719.170898438 436.705078125 722.00390625 458.705078125 722.00390625 c 0
 530.038085938 722.00390625 580.038085938 706.00390625 608.705078125 674.00390625 c 0
 627.103515625 653.466796875 636.301757812 626.614257812 636.301757812 593.4453125 c 0
 636.301757812 574.932617188 633.436523438 554.452148438 627.705078125 532.00390625 c 0
 623.705078125 512.670898438 617.538085938 495.170898438 609.205078125 479.50390625 c 0
 600.872070312 463.836914062 591.372070312 450.50390625 580.705078125 439.50390625 c 0
 570.038085938 428.50390625 557.87109375 418.836914062 544.204101562 410.50390625 c 0
 530.537109375 402.170898438 517.204101562 395.670898438 504.204101562 391.00390625 c 0
 491.204101562 386.336914062 477.37109375 382.669921875 462.704101562 380.002929688 c 1
 486.704101562 374.002929688 506.704101562 366.669921875 522.704101562 358.002929688 c 0
 538.704101562 349.3359375 551.704101562 338.168945312 561.704101562 324.501953125 c 0
 571.704101562 310.834960938 577.537109375 293.66796875 579.204101562 273.000976562 c 0
 579.537109375 268.8671875 579.704101562 264.573242188 579.704101562 260.119140625 c 0
 579.704101562 242.305664062 577.037109375 221.932617188 571.704101562 199 c 0
EndSplineSet
Validated: 524289
EndChar

StartChar: four
Encoding: 52 52 31
Width: 630
GlyphClass: 2
Flags: HMW
HStem: -23.001 21G<422.947 435.614> 223.999 79.999
LayerCount: 2
Fore
SplineSet
483.611328125 55 m 0
 482.944335938 33.6669921875 477.112304688 15.33203125 466.112304688 -0.0009765625 c 0
 455.112304688 -15.333984375 442.612304688 -23.0009765625 428.612304688 -23.0009765625 c 0
 417.279296875 -23.0009765625 407.279296875 -18.16796875 398.612304688 -8.5009765625 c 0
 391.100585938 -0.123046875 387.344726562 8.380859375 387.344726562 17.0087890625 c 0
 387.344726562 23.4921875 393.22265625 48.0009765625 396.110351562 59.9990234375 c 0
 400.443359375 77.9990234375 406.610351562 103.83203125 414.610351562 137.499023438 c 0
 422.610351562 171.166015625 429.27734375 199.999023438 434.610351562 223.999023438 c 1
 421.357421875 224.15625 408.565429688 224.234375 396.234375 224.234375 c 0
 303.740234375 224.234375 237.19921875 219.822265625 196.610351562 210.999023438 c 0
 186.610351562 208.999023438 177.77734375 209.33203125 170.110351562 211.999023438 c 0
 162.443359375 214.666015625 157.110351562 219.333007812 154.110351562 226 c 0
 151.110351562 232.666992188 149.27734375 240.333984375 148.610351562 249.000976562 c 0
 147.943359375 257.66796875 148.776367188 266.66796875 151.109375 276.000976562 c 0
 153.442382812 285.333984375 156.942382812 294.333984375 161.609375 303.000976562 c 0
 172.276367188 321.66796875 196.109375 352.16796875 233.109375 394.500976562 c 0
 270.109375 436.833984375 317.276367188 489.166992188 374.609375 551.5 c 0
 431.942382812 613.833007812 472.942382812 659 497.609375 687 c 0
 508.942382812 699.666992188 520.442382812 709.166992188 532.109375 715.5 c 0
 543.776367188 721.833007812 553.943359375 725 562.610351562 725 c 0
 564.913085938 725.2421875 567.155273438 725.36328125 569.336914062 725.36328125 c 0
 579.155273438 725.36328125 587.74609375 722.909179688 595.110351562 718 c 0
 603.489257812 712.4140625 607.6796875 703.072265625 607.6796875 689.973632812 c 0
 607.6796875 684.974609375 606.553710938 656.916992188 591.611328125 579 c 0
 582.278320312 530.333007812 573.9453125 489.166015625 566.612304688 455.499023438 c 0
 559.279296875 421.83203125 548.279296875 370.999023438 533.612304688 302.999023438 c 1
 544.279296875 302.33203125 556.279296875 301.999023438 569.612304688 301.999023438 c 0
 584.279296875 301.999023438 593.612304688 298.499023438 597.612304688 291.499023438 c 0
 601.612304688 284.499023438 602.612304688 275.33203125 600.612304688 263.999023438 c 0
 593.9453125 234.666015625 577.278320312 219.999023438 550.611328125 219.999023438 c 0
 537.944335938 219.999023438 526.611328125 220.33203125 516.611328125 220.999023438 c 1
 494.611328125 123.666015625 483.611328125 68.3330078125 483.611328125 55 c 0
514.612304688 601.998046875 m 1
 392.612304688 472.665039062 307.278320312 372.331054688 258.611328125 300.998046875 c 1
 293.850585938 303.37890625 336.9140625 304.569335938 387.801757812 304.569335938 c 0
 408.153320312 304.569335938 429.756835938 304.37890625 452.611328125 303.998046875 c 1
 481.278320312 428.665039062 501.9453125 527.998046875 514.612304688 601.998046875 c 1
EndSplineSet
Validated: 524289
EndChar

StartChar: five
Encoding: 53 53 32
Width: 630
GlyphClass: 2
Flags: HMW
HStem: -18.001 83.998<305.707 312.04> 419.997 89.0029<430.041 492.709> 619 88.998<630.376 661.71> 630 79.998
LayerCount: 2
Fore
SplineSet
603.708984375 296 m 0xd0
 592.375976562 246.666992188 576.373046875 202.166015625 555.706054688 162.499023438 c 0
 535.0390625 122.83203125 511.206054688 89.83203125 484.206054688 63.4990234375 c 0
 457.206054688 37.166015625 427.5390625 16.9990234375 395.206054688 2.9990234375 c 0
 362.873046875 -11.0009765625 329.373046875 -18.0009765625 294.706054688 -18.0009765625 c 0
 267.373046875 -18.0009765625 242.873046875 -15.0009765625 221.206054688 -9.0009765625 c 0
 199.5390625 -3.0009765625 182.206054688 5.33203125 169.206054688 15.9990234375 c 0
 156.206054688 26.666015625 145.873046875 37.8330078125 138.206054688 49.5 c 0
 130.5390625 61.1669921875 124.706054688 73.333984375 120.706054688 86.0009765625 c 0
 119.373046875 93.201171875 118.706054688 99.8681640625 118.706054688 106.000976562 c 0
 118.706054688 115.201171875 120.206054688 123.201171875 123.206054688 130.000976562 c 0
 128.206054688 141.333984375 137.0390625 150.000976562 149.706054688 156.000976562 c 0
 157.706054688 159.333984375 163.873046875 161.666992188 168.206054688 163 c 0
 172.5390625 164.333007812 177.5390625 164.666015625 183.206054688 163.999023438 c 0
 188.873046875 163.33203125 193.540039062 160.665039062 197.20703125 155.998046875 c 0
 200.874023438 151.331054688 204.374023438 144.6640625 207.70703125 135.997070312 c 0
 225.040039062 89.9970703125 257.70703125 66.6640625 305.70703125 65.9970703125 c 0
 352.374023438 65.9970703125 393.874023438 85.830078125 430.20703125 125.497070312 c 0
 466.540039062 165.1640625 492.373046875 218.331054688 507.706054688 284.998046875 c 0
 511.920898438 303.6640625 514.028320312 320.59765625 514.028320312 335.796875 c 0
 514.028320312 354.252929688 510.920898438 370.153320312 504.706054688 383.497070312 c 0
 493.373046875 407.830078125 470.040039062 419.997070312 434.70703125 419.997070312 c 0
 425.374023438 419.997070312 416.20703125 419.497070312 407.20703125 418.497070312 c 0
 398.20703125 417.497070312 390.540039062 416.1640625 384.20703125 414.497070312 c 0
 377.874023438 412.830078125 370.70703125 410.330078125 362.70703125 406.997070312 c 0
 354.70703125 403.6640625 348.70703125 400.997070312 344.70703125 398.997070312 c 0
 340.70703125 396.997070312 335.040039062 393.330078125 327.70703125 387.997070312 c 0
 320.374023438 382.6640625 315.541015625 378.997070312 313.208007812 376.997070312 c 0
 310.875 374.997070312 305.875 370.830078125 298.208007812 364.497070312 c 0
 290.541015625 358.1640625 285.708007812 354.331054688 283.708007812 352.998046875 c 0
 277.708007812 348.331054688 270.875 344.331054688 263.208007812 340.998046875 c 0
 255.541015625 337.665039062 247.208007812 335.498046875 238.208007812 334.498046875 c 0
 229.208007812 333.498046875 221.041015625 334.998046875 213.708007812 338.998046875 c 0
 204.375 343.665039062 198.875 353.998046875 197.208007812 369.998046875 c 0
 196.76953125 374.208984375 196.549804688 378.673828125 196.549804688 383.392578125 c 0
 196.549804688 396.603515625 198.26953125 411.805664062 201.708007812 428.998046875 c 0
 206.375 452.331054688 211.708007812 474.831054688 217.708007812 496.498046875 c 0
 223.708007812 518.165039062 230.375 541.498046875 237.708007812 566.498046875 c 0
 245.041015625 591.498046875 249.708007812 608.665039062 251.708007812 617.998046875 c 1
 248.375 626.665039062 247.375 636.498046875 248.708007812 647.498046875 c 0
 250.041015625 658.498046875 253.041015625 668.665039062 257.708007812 677.998046875 c 0
 262.375 687.331054688 268.541992188 695.331054688 276.208984375 701.998046875 c 0
 283.875976562 708.665039062 292.04296875 711.998046875 300.709960938 711.998046875 c 0
 324.04296875 711.998046875 378.209960938 711.331054688 463.209960938 709.998046875 c 0xd0
 548.209960938 708.665039062 613.04296875 707.998046875 657.709960938 707.998046875 c 0
 665.709960938 707.998046875 671.376953125 704.331054688 674.709960938 696.998046875 c 0
 678.04296875 689.665039062 679.375976562 681.33203125 678.708984375 671.999023438 c 0
 678.041992188 662.666015625 676.375 653.999023438 673.708007812 645.999023438 c 0
 672.375 641.33203125 670.541992188 637.33203125 668.208984375 633.999023438 c 0
 665.875976562 630.666015625 663.04296875 628.166015625 659.709960938 626.499023438 c 0
 656.376953125 624.83203125 653.543945312 623.33203125 651.2109375 621.999023438 c 0
 648.877929688 620.666015625 645.377929688 619.833007812 640.7109375 619.5 c 0
 636.043945312 619.166992188 632.876953125 619 631.209960938 619 c 0xe0
 629.54296875 619 626.04296875 619.333007812 620.709960938 620 c 0
 615.376953125 620.666992188 612.376953125 621 611.709960938 621 c 0
 603.04296875 621 587.875976562 622 566.208984375 624 c 0
 544.541992188 626 525.041992188 627.5 507.708984375 628.5 c 0
 490.375976562 629.5 466.208984375 630 435.208984375 630 c 0
 404.208984375 630 371.708984375 629 337.708984375 627 c 1
 335.708984375 620.333007812 330.541992188 601 322.208984375 569 c 0
 313.875976562 537 307.875976562 513.833007812 304.208984375 499.5 c 0
 300.541992188 485.166992188 296.041992188 464.666992188 290.708984375 438 c 1
 312.708984375 458.666992188 340.041992188 475.666992188 372.708984375 489 c 0
 405.375976562 502.333007812 440.708984375 509 478.708984375 509 c 0
 506.708984375 509 530.375976562 503.5 549.708984375 492.5 c 0
 569.041992188 481.5 583.708984375 466.333007812 593.708984375 447 c 0
 603.708984375 427.666992188 609.541992188 405.166992188 611.208984375 379.5 c 0
 611.541992188 374.366210938 611.708984375 369.145507812 611.708984375 363.837890625 c 0
 611.708984375 342.611328125 609.041992188 319.999023438 603.708984375 296 c 0xd0
EndSplineSet
Validated: 524289
EndChar

StartChar: six
Encoding: 54 54 33
Width: 630
GlyphClass: 2
Flags: HMW
HStem: -21.9971 84.0049<320.472 324.14> 393.004 87.9961<402.14 477.14> 657 80.002
VStem: 142.806 82.9971 510.306 95
LayerCount: 2
Fore
SplineSet
593.806640625 246 m 0
 585.139648438 208.666992188 571.138671875 173.502929688 551.805664062 140.502929688 c 0
 532.47265625 107.502929688 510.305664062 79.169921875 485.305664062 55.5029296875 c 0
 460.305664062 31.8359375 432.305664062 13.0029296875 401.305664062 -0.9970703125 c 0
 370.305664062 -14.9970703125 339.47265625 -21.9970703125 308.805664062 -21.9970703125 c 0
 270.805664062 -21.9970703125 239.305664062 -14.1640625 214.305664062 1.5029296875 c 0
 189.305664062 17.169921875 170.97265625 39.8369140625 159.305664062 69.50390625 c 0
 148.26953125 97.56640625 142.751953125 130.848632812 142.751953125 169.349609375 c 0
 142.751953125 171.55078125 142.76953125 173.768554688 142.805664062 176.00390625 c 0
 143.47265625 217.336914062 150.139648438 263.669921875 162.806640625 315.002929688 c 0
 176.806640625 372.3359375 194.139648438 424.002929688 214.806640625 470.002929688 c 0
 235.473632812 516.002929688 258.306640625 554.669921875 283.306640625 586.002929688 c 0
 308.306640625 617.3359375 336.139648438 643.8359375 366.806640625 665.502929688 c 0
 397.473632812 687.169921875 429.140625 703.669921875 461.807617188 715.002929688 c 0
 494.474609375 726.3359375 529.807617188 733.668945312 567.807617188 737.001953125 c 0
 570.600585938 737.255859375 573.291015625 737.3828125 575.877929688 737.3828125 c 0
 586.87890625 737.3828125 596.021484375 735.088867188 603.307617188 730.500976562 c 0
 611.686523438 725.224609375 615.876953125 716.915039062 615.876953125 705.571289062 c 0
 615.876953125 701.477539062 615.876953125 691.969726562 598.806640625 676.5 c 0
 588.139648438 666.833007812 577.47265625 660.333007812 566.805664062 657 c 0
 559.47265625 655 548.305664062 652.333007812 533.305664062 649 c 0
 518.305664062 645.666992188 505.638671875 642.5 495.305664062 639.5 c 0
 484.97265625 636.5 472.305664062 632 457.305664062 626 c 0
 442.305664062 620 426.805664062 611.333007812 410.805664062 600 c 0
 394.805664062 588.666992188 378.47265625 575 361.805664062 559 c 0
 344.47265625 541.666992188 326.639648438 518 308.306640625 488 c 0
 289.973632812 458 276.473632812 431.333007812 267.806640625 408 c 1
 293.139648438 432.666992188 322.47265625 451 355.805664062 463 c 0
 389.138671875 475 424.805664062 481 462.805664062 481 c 0
 491.47265625 481 515.97265625 476.666992188 536.305664062 468 c 0
 556.638671875 459.333007812 572.805664062 445.666015625 584.805664062 426.999023438 c 0
 596.805664062 408.33203125 603.638671875 383.83203125 605.305664062 353.499023438 c 0
 605.55859375 348.90234375 605.684570312 344.178710938 605.684570312 339.330078125 c 0
 605.684570312 312.178710938 601.725585938 281.069335938 593.806640625 246 c 0
227.805664062 230.002929688 m 0
 226.3046875 218.997070312 225.552734375 207.899414062 225.552734375 196.708007812 c 0
 225.552734375 192.984375 225.63671875 189.250976562 225.802734375 185.506835938 c 0
 226.469726562 170.506835938 229.13671875 155.33984375 233.803710938 140.006835938 c 0
 238.470703125 124.673828125 244.637695312 111.340820312 252.3046875 100.0078125 c 0
 259.971679688 88.6748046875 270.471679688 79.5078125 283.8046875 72.5078125 c 0
 297.137695312 65.5078125 312.137695312 62.0078125 328.8046875 62.0078125 c 0
 351.471679688 62.0078125 375.138671875 70.6748046875 399.805664062 88.0078125 c 0
 424.47265625 105.340820312 445.805664062 127.173828125 463.805664062 153.506835938 c 0
 481.805664062 179.83984375 493.805664062 206.672851562 499.805664062 234.005859375 c 0
 506.8203125 263.977539062 510.327148438 289.375 510.327148438 310.196289062 c 0
 510.327148438 333.04296875 506.104492188 350.248046875 497.805664062 362.00390625 c 0
 489.805664062 373.336914062 479.47265625 381.336914062 466.805664062 386.00390625 c 0
 454.138671875 390.670898438 437.805664062 393.00390625 417.805664062 393.00390625 c 0
 386.47265625 393.00390625 355.305664062 384.336914062 324.305664062 367.00390625 c 0
 293.305664062 349.670898438 266.138671875 327.670898438 242.805664062 301.00390625 c 1
 235.47265625 272.336914062 230.47265625 248.669921875 227.805664062 230.002929688 c 0
EndSplineSet
Validated: 524289
EndChar

StartChar: seven
Encoding: 55 55 34
Width: 630
GlyphClass: 2
Flags: HMW
HStem: 622.497 90.5
LayerCount: 2
Fore
SplineSet
223.213867188 26 m 0
 211.880859375 8.6669921875 199.375976562 -4.3359375 185.708984375 -13.0029296875 c 0
 175.2578125 -19.630859375 165.489257812 -22.9443359375 156.403320312 -22.9443359375 c 0
 153.607421875 -22.9443359375 150.875976562 -22.630859375 148.208984375 -22.0029296875 c 0
 135.541992188 -18.669921875 128.041992188 -10.669921875 125.708984375 1.9970703125 c 0
 125.267578125 4.3935546875 125.046875 6.837890625 125.046875 9.3291015625 c 0
 125.046875 20.0087890625 129.100585938 31.564453125 137.208984375 43.9970703125 c 0
 184.541992188 112.6640625 234.208984375 180.997070312 286.208984375 248.997070312 c 0
 338.208984375 316.997070312 380.708984375 371.1640625 413.708984375 411.497070312 c 0
 446.708984375 451.830078125 477.708984375 490.997070312 506.708984375 528.997070312 c 0
 535.708984375 566.997070312 556.541992188 597.997070312 569.208984375 621.997070312 c 1
 540.1171875 623.087890625 509.8359375 623.633789062 478.36328125 623.633789062 c 0
 452.138671875 623.633789062 425.087890625 623.254882812 397.209960938 622.497070312 c 0
 335.876953125 620.830078125 295.209960938 617.330078125 275.209960938 611.997070312 c 0
 267.209960938 609.997070312 260.709960938 610.330078125 255.709960938 612.997070312 c 0
 250.709960938 615.6640625 247.04296875 619.6640625 244.709960938 624.997070312 c 0
 242.376953125 630.330078125 241.043945312 635.997070312 240.7109375 641.997070312 c 0
 240.377929688 647.997070312 240.544921875 653.997070312 241.211914062 659.997070312 c 0
 243.87890625 671.997070312 248.87890625 681.497070312 256.211914062 688.497070312 c 0
 263.544921875 695.497070312 275.211914062 700.6640625 291.211914062 703.997070312 c 0
 315.211914062 708.6640625 347.544921875 711.6640625 388.211914062 712.997070312 c 0
 408.545898438 713.6640625 428.045898438 713.997070312 446.711914062 713.997070312 c 0
 465.37890625 713.997070312 483.211914062 713.663085938 500.211914062 712.997070312 c 0
 534.211914062 711.6640625 567.37890625 710.331054688 599.711914062 708.998046875 c 0
 632.044921875 707.665039062 649.544921875 706.998046875 652.211914062 706.998046875 c 0
 658.87890625 706.998046875 664.87890625 705.498046875 670.211914062 702.498046875 c 0
 675.544921875 699.498046875 680.211914062 694.665039062 684.211914062 687.998046875 c 0
 688.211914062 681.331054688 689.044921875 672.6640625 686.711914062 661.997070312 c 0
 684.37890625 651.330078125 678.545898438 638.997070312 669.212890625 624.997070312 c 0
 655.879882812 604.997070312 633.212890625 574.830078125 601.212890625 534.497070312 c 0
 569.212890625 494.1640625 536.045898438 452.831054688 501.712890625 410.498046875 c 0
 467.379882812 368.165039062 424.546875 311.83203125 373.213867188 241.499023438 c 0
 321.880859375 171.166015625 271.880859375 99.3330078125 223.213867188 26 c 0
EndSplineSet
Validated: 524289
EndChar

StartChar: eight
Encoding: 56 56 35
Width: 630
GlyphClass: 2
Flags: HMW
HStem: -27.9922 85.9971<306.737 311.403> 646.004 72.001<459.403 464.403>
VStem: 504.57 90.501
LayerCount: 2
Fore
SplineSet
590.0703125 204 m 0
 585.403320312 182.666992188 577.90234375 161.338867188 567.569335938 140.005859375 c 0
 557.236328125 118.672851562 543.569335938 97.83984375 526.569335938 77.5068359375 c 0
 509.569335938 57.173828125 490.236328125 39.3408203125 468.569335938 24.0078125 c 0
 446.90234375 8.6748046875 421.069335938 -3.8251953125 391.069335938 -13.4921875 c 0
 361.069335938 -23.1591796875 328.736328125 -27.9921875 294.069335938 -27.9921875 c 0
 262.736328125 -27.9921875 235.569335938 -23.3251953125 212.569335938 -13.9921875 c 0
 189.569335938 -4.6591796875 171.90234375 7.173828125 159.569335938 21.5068359375 c 0
 147.236328125 35.83984375 137.903320312 53.0068359375 131.5703125 73.0068359375 c 0
 125.553710938 92.0078125 122.544921875 111.159179688 122.544921875 130.4609375 c 0
 122.544921875 141.575195312 123.374023438 165.397460938 130.0703125 196.005859375 c 0
 135.403320312 218.672851562 146.403320312 243.005859375 163.0703125 269.005859375 c 0
 179.737304688 295.005859375 200.737304688 319.005859375 226.0703125 341.005859375 c 0
 251.403320312 363.005859375 277.403320312 378.338867188 304.0703125 387.005859375 c 1
 274.737304688 403.672851562 254.0703125 425.505859375 242.0703125 452.505859375 c 0
 234.356445312 469.86328125 230.499023438 487.426757812 230.499023438 505.197265625 c 0
 230.499023438 515.069335938 231.689453125 525.005859375 234.0703125 535.005859375 c 0
 236.0703125 543.005859375 238.5703125 551.505859375 241.5703125 560.505859375 c 0
 244.5703125 569.505859375 249.403320312 580.172851562 256.0703125 592.505859375 c 0
 262.737304688 604.838867188 270.237304688 616.671875 278.5703125 628.004882812 c 0
 286.903320312 639.337890625 297.403320312 650.504882812 310.0703125 661.504882812 c 0
 322.737304688 672.504882812 336.5703125 682.171875 351.5703125 690.504882812 c 0
 366.5703125 698.837890625 384.403320312 705.504882812 405.0703125 710.504882812 c 0
 425.737304688 715.504882812 447.737304688 718.004882812 471.0703125 718.004882812 c 0
 495.0703125 718.004882812 516.237304688 715.504882812 534.5703125 710.504882812 c 0
 552.903320312 705.504882812 567.903320312 698.837890625 579.5703125 690.504882812 c 0
 591.237304688 682.171875 600.737304688 672.504882812 608.0703125 661.504882812 c 0
 615.403320312 650.504882812 620.736328125 639.337890625 624.069335938 628.004882812 c 0
 627.40234375 616.671875 629.40234375 604.671875 630.069335938 592.004882812 c 0
 630.3359375 586.938476562 630.469726562 582.112304688 630.469726562 577.525390625 c 0
 630.469726562 570.64453125 630.168945312 564.3046875 629.569335938 558.50390625 c 0
 628.569335938 548.836914062 627.069335938 539.669921875 625.069335938 531.002929688 c 0
 623.069335938 523.002929688 620.236328125 515.002929688 616.569335938 507.002929688 c 0
 612.90234375 499.002929688 608.90234375 492.002929688 604.569335938 486.002929688 c 0
 600.236328125 480.002929688 594.736328125 473.669921875 588.069335938 467.002929688 c 0
 581.40234375 460.3359375 575.40234375 454.668945312 570.069335938 450.001953125 c 0
 564.736328125 445.334960938 557.903320312 440.001953125 549.5703125 434.001953125 c 0
 541.237304688 428.001953125 534.5703125 423.501953125 529.5703125 420.501953125 c 0
 524.5703125 417.501953125 517.903320312 413.334960938 509.5703125 408.001953125 c 0
 501.237304688 402.668945312 495.404296875 399.001953125 492.071289062 397.001953125 c 1
 512.73828125 386.334960938 530.23828125 374.334960938 544.571289062 361.001953125 c 0
 558.904296875 347.668945312 569.571289062 334.501953125 576.571289062 321.501953125 c 0
 583.571289062 308.501953125 588.571289062 294.668945312 591.571289062 280.001953125 c 0
 594.025390625 268.001953125 595.252929688 257.006835938 595.252929688 247.014648438 c 0
 595.252929688 244.793945312 595.192382812 242.623046875 595.071289062 240.500976562 c 0
 594.404296875 228.833984375 592.737304688 216.666992188 590.0703125 204 c 0
322.069335938 538.004882812 m 0
 320.670898438 532.235351562 319.971679688 526.637695312 319.971679688 521.211914062 c 0
 319.971679688 505.94921875 325.504882812 492.046875 336.571289062 479.504882812 c 0
 351.571289062 462.504882812 379.071289062 445.337890625 419.071289062 428.004882812 c 1
 447.73828125 439.337890625 474.23828125 454.670898438 498.571289062 474.00390625 c 0
 522.904296875 493.336914062 536.737304688 511.336914062 540.0703125 528.00390625 c 0
 541.784179688 536.00390625 542.641601562 543.942382812 542.641601562 551.819335938 c 0
 542.641601562 562.323242188 541.118164062 572.717773438 538.0703125 583.00390625 c 0
 532.737304688 601.00390625 522.5703125 616.00390625 507.5703125 628.00390625 c 0
 492.5703125 640.00390625 474.737304688 646.00390625 454.0703125 646.00390625 c 0
 425.403320312 646.00390625 397.736328125 634.836914062 371.069335938 612.50390625 c 0
 344.40234375 590.170898438 328.069335938 565.337890625 322.069335938 538.004882812 c 0
318.071289062 58.0048828125 m 0
 336.071289062 58.0048828125 354.737304688 60.8330078125 374.0703125 66.5 c 0
 393.403320312 72.1669921875 411.5703125 80.333984375 428.5703125 91.0009765625 c 0
 445.5703125 101.66796875 460.5703125 115.66796875 473.5703125 133.000976562 c 0
 486.5703125 150.333984375 495.403320312 168.666992188 500.0703125 188 c 0
 501.821289062 195.001953125 504.620117188 208.245117188 504.620117188 221.444335938 c 0
 504.620117188 230.415039062 503.270507812 240.600585938 500.5703125 252.001953125 c 0
 497.5703125 264.668945312 492.403320312 276.3359375 485.0703125 287.002929688 c 0
 477.737304688 297.669921875 466.737304688 308.836914062 452.0703125 320.50390625 c 0
 437.403320312 332.170898438 419.0703125 342.670898438 397.0703125 352.00390625 c 1
 349.0703125 339.336914062 307.737304688 317.336914062 273.0703125 286.00390625 c 0
 238.403320312 254.670898438 216.736328125 221.337890625 208.069335938 186.004882812 c 0
 205.771484375 176.557617188 204.622070312 167.453125 204.622070312 158.690429688 c 0
 204.622070312 144.573242188 207.604492188 131.344726562 213.569335938 119.004882812 c 0
 223.236328125 99.0048828125 237.403320312 83.837890625 256.0703125 73.5048828125 c 0
 274.737304688 63.171875 295.404296875 58.0048828125 318.071289062 58.0048828125 c 0
EndSplineSet
Validated: 524289
EndChar

StartChar: nine
Encoding: 57 57 36
Width: 630
GlyphClass: 2
Flags: HMW
HStem: -22 79.9961<201.612 201.612> 234.998 89<327.945 399.279> 654.995 84.0049<467.279 470.943>
LayerCount: 2
Fore
SplineSet
201.612304688 -22 m 0
 198.81640625 -22.25390625 196.1171875 -22.380859375 193.514648438 -22.380859375 c 0
 182.465820312 -22.380859375 173.163085938 -20.0908203125 165.609375 -15.50390625 c 0
 157.442382812 -10.544921875 153.359375 -2.90625 153.359375 7.412109375 c 0
 153.359375 14.451171875 154.158203125 24.6025390625 170.610351562 38.9970703125 c 0
 181.27734375 48.330078125 191.944335938 54.6630859375 202.611328125 57.99609375 c 0
 209.944335938 59.99609375 221.611328125 62.6630859375 237.611328125 65.99609375 c 0
 253.611328125 69.3291015625 268.111328125 72.8291015625 281.111328125 76.49609375 c 0
 294.111328125 80.1630859375 308.944335938 84.99609375 325.611328125 90.99609375 c 0
 342.278320312 96.99609375 358.778320312 105.329101562 375.111328125 115.99609375 c 0
 391.444335938 126.663085938 407.611328125 139.330078125 423.611328125 153.997070312 c 0
 443.611328125 173.330078125 462.611328125 195.830078125 480.611328125 221.497070312 c 0
 498.611328125 247.1640625 511.944335938 270.331054688 520.611328125 290.998046875 c 1
 498.611328125 269.665039062 473.278320312 254.998046875 444.611328125 246.998046875 c 0
 415.944335938 238.998046875 381.611328125 234.998046875 341.611328125 234.998046875 c 0
 314.278320312 234.998046875 289.778320312 241.831054688 268.111328125 255.498046875 c 0
 246.444335938 269.165039062 229.611328125 287.33203125 217.611328125 309.999023438 c 0
 205.611328125 332.666015625 197.944335938 358.833007812 194.611328125 388.5 c 0
 193.5 398.387695312 192.9453125 408.33203125 192.9453125 418.331054688 c 0
 192.9453125 438.33203125 195.166992188 458.555664062 199.612304688 479.000976562 c 0
 208.279296875 516.333984375 222.112304688 551.166992188 241.112304688 583.5 c 0
 260.112304688 615.833007812 282.112304688 643.333007812 307.112304688 666 c 0
 332.112304688 688.666992188 359.9453125 706.5 390.612304688 719.5 c 0
 421.279296875 732.5 451.946289062 739 482.61328125 739 c 0
 558.61328125 739 608.11328125 708 631.11328125 646 c 0
 641.485351562 618.0390625 646.671875 584.586914062 646.671875 545.643554688 c 0
 646.671875 498.234375 638.985351562 442.686523438 623.61328125 379 c 0
 610.946289062 325.666992188 593.779296875 277.5 572.112304688 234.5 c 0
 550.4453125 191.5 526.278320312 155 499.611328125 125 c 0
 472.944335938 95 443.111328125 69.3330078125 410.111328125 48 c 0
 377.111328125 26.6669921875 343.444335938 10.5 309.111328125 -0.5 c 0
 274.778320312 -11.5 238.9453125 -18.6669921875 201.612304688 -22 c 0
293.609375 490.995117188 m 0
 287.879882812 466.268554688 285.015625 444.237304688 285.015625 424.8984375 c 0
 285.015625 401.482421875 289.215820312 382.015625 297.61328125 366.498046875 c 0
 312.946289062 338.165039062 342.279296875 323.998046875 385.612304688 323.998046875 c 0
 412.9453125 323.998046875 441.278320312 330.665039062 470.611328125 343.998046875 c 0
 499.944335938 357.331054688 524.944335938 375.6640625 545.611328125 398.997070312 c 1
 550.944335938 418.330078125 556.944335938 447.663085938 563.611328125 486.99609375 c 0
 565.111328125 497.99609375 565.861328125 509.088867188 565.861328125 520.276367188 c 0
 565.861328125 524.005859375 565.778320312 527.74609375 565.611328125 531.49609375 c 0
 564.944335938 546.49609375 562.27734375 561.663085938 557.610351562 576.99609375 c 0
 552.943359375 592.329101562 546.776367188 605.662109375 539.109375 616.995117188 c 0
 531.442382812 628.328125 520.942382812 637.495117188 507.609375 644.495117188 c 0
 494.276367188 651.495117188 479.276367188 654.995117188 462.609375 654.995117188 c 0
 439.276367188 654.995117188 415.776367188 646.995117188 392.109375 630.995117188 c 0
 368.442382812 614.995117188 347.609375 594.495117188 329.609375 569.495117188 c 0
 311.609375 544.495117188 299.609375 518.328125 293.609375 490.995117188 c 0
EndSplineSet
Validated: 524289
EndChar

StartChar: colon
Encoding: 58 58 37
Width: 630
GlyphClass: 2
Flags: HMW
VStem: 274.892 192.996
LayerCount: 2
Fore
SplineSet
467.887695312 417 m 0
 464.5546875 395 456.891601562 371.6640625 444.891601562 346.997070312 c 0
 438.891601562 333.6640625 429.891601562 323.497070312 417.891601562 316.497070312 c 0
 406.935546875 310.106445312 396.8125 306.91015625 387.5234375 306.91015625 c 0
 386.638671875 306.91015625 385.76171875 306.939453125 384.891601562 306.997070312 c 0
 351.831054688 308.80078125 335.301757812 321.442382812 335.301757812 344.924804688 c 0
 335.301757812 347.486328125 335.498046875 350.177734375 335.891601562 352.997070312 c 0
 338.55859375 370.997070312 343.225585938 393.997070312 349.892578125 421.997070312 c 0
 351.892578125 430.6640625 355.892578125 437.831054688 361.892578125 443.498046875 c 0
 367.892578125 449.165039062 374.559570312 453.33203125 381.892578125 455.999023438 c 0
 389.225585938 458.666015625 396.05859375 460.333007812 402.391601562 461 c 0
 408.724609375 461.666992188 415.224609375 462 421.891601562 462 c 0
 427.224609375 462 432.557617188 461.333007812 437.890625 460 c 0
 443.223632812 458.666992188 448.556640625 456.5 453.889648438 453.5 c 0
 459.22265625 450.5 463.055664062 445.833007812 465.388671875 439.5 c 0
 467.721679688 433.166992188 468.5546875 425.666992188 467.887695312 417 c 0
406.891601562 149.997070312 m 0
 405.55859375 126.6640625 398.892578125 102.66015625 386.892578125 77.9931640625 c 0
 380.892578125 64.66015625 370.892578125 54.8271484375 356.892578125 48.494140625 c 0
 344.2265625 42.7646484375 332.924804688 39.8994140625 322.987304688 39.8994140625 c 0
 321.940429688 39.8994140625 320.909179688 39.931640625 319.892578125 39.9951171875 c 0
 307.225585938 40.662109375 296.05859375 44.8291015625 286.391601562 52.49609375 c 0
 278.381835938 58.8486328125 274.376953125 67.375 274.376953125 78.0751953125 c 0
 274.376953125 80.2890625 274.548828125 82.595703125 274.891601562 84.99609375 c 0
 277.55859375 98.99609375 279.225585938 107.829101562 279.892578125 111.49609375 c 0
 280.559570312 115.163085938 282.392578125 121.99609375 285.392578125 131.99609375 c 0
 288.392578125 141.99609375 290.559570312 149.663085938 291.892578125 154.99609375 c 0
 293.892578125 162.99609375 297.725585938 169.99609375 303.392578125 175.99609375 c 0
 309.059570312 181.99609375 315.392578125 186.163085938 322.392578125 188.49609375 c 0
 329.392578125 190.829101562 336.059570312 192.49609375 342.392578125 193.49609375 c 0
 348.725585938 194.49609375 354.892578125 194.99609375 360.892578125 194.99609375 c 0
 368.225585938 194.99609375 375.225585938 193.829101562 381.892578125 191.49609375 c 0
 388.559570312 189.163085938 394.559570312 184.330078125 399.892578125 176.997070312 c 0
 405.225585938 169.6640625 407.55859375 160.6640625 406.891601562 149.997070312 c 0
EndSplineSet
Validated: 524289
EndChar

StartChar: semicolon
Encoding: 59 59 38
Width: 630
GlyphClass: 2
Flags: HMW
VStem: 186.401 300.994
LayerCount: 2
Fore
SplineSet
487.393554688 375 m 0
 484.060546875 353 476.065429688 329.666015625 463.3984375 304.999023438 c 0
 457.3984375 291.666015625 448.3984375 281.499023438 436.3984375 274.499023438 c 0
 425.442382812 268.108398438 415.59765625 264.912109375 406.864257812 264.912109375 c 0
 406.032226562 264.912109375 405.209960938 264.94140625 404.3984375 264.999023438 c 0
 396.3984375 265.666015625 388.565429688 267.499023438 380.8984375 270.499023438 c 0
 373.231445312 273.499023438 366.564453125 278.666015625 360.897460938 285.999023438 c 0
 355.23046875 293.33203125 353.063476562 301.999023438 354.396484375 311.999023438 c 0
 357.063476562 329.999023438 362.396484375 352.999023438 370.396484375 380.999023438 c 0
 372.396484375 388.999023438 376.229492188 395.999023438 381.896484375 401.999023438 c 0
 387.563476562 407.999023438 394.063476562 412.166015625 401.396484375 414.499023438 c 0
 408.729492188 416.83203125 415.729492188 418.499023438 422.396484375 419.499023438 c 0
 429.063476562 420.499023438 435.063476562 420.666015625 440.396484375 419.999023438 c 0
 446.396484375 419.999023438 452.063476562 419.499023438 457.396484375 418.499023438 c 0
 462.729492188 417.499023438 468.0625 415.33203125 473.395507812 411.999023438 c 0
 478.728515625 408.666015625 482.561523438 403.833007812 484.89453125 397.5 c 0
 487.227539062 391.166992188 488.060546875 383.666992188 487.393554688 375 c 0
399.3984375 73.9990234375 m 0
 392.731445312 52.666015625 352.399414062 -34.3349609375 278.399414062 -187.001953125 c 0
 271.732421875 -201.001953125 263.232421875 -211.168945312 252.899414062 -217.501953125 c 0
 243.55078125 -223.231445312 234.338867188 -226.096679688 225.262695312 -226.096679688 c 0
 224.306640625 -226.096679688 223.352539062 -226.064453125 222.399414062 -226.000976562 c 0
 209.732421875 -225.333984375 199.399414062 -221.000976562 191.399414062 -213.000976562 c 0
 186.346679688 -207.948242188 183.8203125 -201.69921875 183.8203125 -194.252929688 c 0
 183.8203125 -189.909179688 184.6796875 -185.159179688 186.399414062 -180.000976562 c 0
 191.06640625 -164.000976562 206.56640625 -125.000976562 232.899414062 -63.0009765625 c 0
 259.232421875 -1.0009765625 279.732421875 46.33203125 294.399414062 78.9990234375 c 0
 299.06640625 88.9990234375 303.899414062 96.9990234375 308.899414062 102.999023438 c 0
 313.899414062 108.999023438 318.732421875 112.999023438 323.399414062 114.999023438 c 0
 328.06640625 116.999023438 333.06640625 118.33203125 338.399414062 118.999023438 c 0
 343.732421875 119.666015625 348.399414062 119.666015625 352.399414062 118.999023438 c 0
 358.399414062 118.999023438 364.399414062 118.166015625 370.399414062 116.499023438 c 0
 376.399414062 114.83203125 382.232421875 112.499023438 387.899414062 109.499023438 c 0
 393.56640625 106.499023438 397.56640625 101.999023438 399.899414062 95.9990234375 c 0
 402.232421875 89.9990234375 402.065429688 82.666015625 399.3984375 73.9990234375 c 0
EndSplineSet
Validated: 524289
EndChar

StartChar: less
Encoding: 60 60 39
Width: 630
GlyphClass: 2
Flags: W
HStem: -12.3984 21G<489.678 495.411>
LayerCount: 2
Fore
SplineSet
545.502929688 14 m 0
 540.8359375 7.3330078125 535.00390625 1.66796875 528.00390625 -2.9990234375 c 0
 521.00390625 -7.666015625 512.00390625 -10.666015625 501.00390625 -11.9990234375 c 0
 498.8046875 -12.265625 496.557617188 -12.3984375 494.264648438 -12.3984375 c 0
 485.090820312 -12.3984375 475.170898438 -10.265625 464.50390625 -5.9990234375 c 0
 450.50390625 -0.666015625 434.170898438 11.0009765625 415.50390625 29.0009765625 c 0
 396.836914062 47.0009765625 377.169921875 68.5009765625 356.502929688 93.5009765625 c 0
 335.8359375 118.500976562 315.502929688 144.000976562 295.502929688 170.000976562 c 0
 275.502929688 196.000976562 254.3359375 222.833984375 232.002929688 250.500976562 c 0
 209.669921875 278.16796875 190.169921875 299.66796875 173.502929688 315.000976562 c 0
 166.8359375 321.000976562 163.502929688 330.000976562 163.502929688 342.000976562 c 0
 163.502929688 354.000976562 166.3359375 365.500976562 172.002929688 376.500976562 c 0
 177.669921875 387.500976562 184.836914062 395.333984375 193.50390625 400.000976562 c 0
 234.836914062 428.000976562 284.336914062 463.16796875 342.00390625 505.500976562 c 0
 399.670898438 547.833984375 452.170898438 586.166992188 499.50390625 620.5 c 0
 546.836914062 654.833007812 588.169921875 682 623.502929688 702 c 0
 634.8359375 708.666992188 644.8359375 712.166992188 653.502929688 712.5 c 0
 662.169921875 712.833007812 669.169921875 711.166015625 674.502929688 707.499023438 c 0
 679.8359375 703.83203125 684.002929688 699.33203125 687.002929688 693.999023438 c 0
 690.002929688 688.666015625 692.169921875 682.999023438 693.502929688 676.999023438 c 0
 694.095703125 674.48046875 694.391601562 671.953125 694.391601562 669.41796875 c 0
 694.391601562 660.545898438 690.762695312 651.573242188 683.50390625 642.499023438 c 0
 674.170898438 630.83203125 657.170898438 616.999023438 632.50390625 600.999023438 c 0
 591.836914062 574.999023438 529.169921875 532.33203125 444.502929688 472.999023438 c 0
 359.8359375 413.666015625 306.168945312 375.999023438 283.501953125 359.999023438 c 1
 302.834960938 339.999023438 324.001953125 315.83203125 347.001953125 287.499023438 c 0
 370.001953125 259.166015625 390.001953125 233.499023438 407.001953125 210.499023438 c 0
 424.001953125 187.499023438 442.834960938 163.999023438 463.501953125 139.999023438 c 0
 484.168945312 115.999023438 502.8359375 96.9990234375 519.502929688 82.9990234375 c 0
 536.169921875 68.9990234375 546.502929688 56.83203125 550.502929688 46.4990234375 c 0
 551.915039062 42.8525390625 552.620117188 39.142578125 552.620117188 35.3720703125 c 0
 552.620117188 28.45703125 550.248046875 21.3330078125 545.502929688 14 c 0
EndSplineSet
Validated: 524289
EndChar

StartChar: equal
Encoding: 61 61 40
Width: 630
GlyphClass: 2
Flags: HMW
HStem: 246.996 83<229.86 258.527> 442.999 85.001
LayerCount: 2
Fore
SplineSet
301.528320312 528 m 0
 336.861328125 526.666992188 373.02734375 525.99609375 410.02734375 525.99609375 c 0
 447.02734375 525.99609375 481.860351562 526.329101562 514.52734375 526.99609375 c 0
 547.194335938 527.663085938 566.861328125 527.99609375 573.528320312 527.99609375 c 0
 588.1953125 527.99609375 597.528320312 524.663085938 601.528320312 517.99609375 c 0
 605.528320312 511.329101562 606.528320312 502.329101562 604.528320312 490.99609375 c 0
 603.1953125 484.99609375 601.528320312 479.49609375 599.528320312 474.49609375 c 0
 597.528320312 469.49609375 594.528320312 464.663085938 590.528320312 459.99609375 c 0
 586.528320312 455.329101562 581.528320312 451.829101562 575.528320312 449.49609375 c 0
 569.528320312 447.163085938 562.861328125 446.330078125 555.528320312 446.997070312 c 0
 540.854492188 447.442382812 525.513671875 447.6640625 509.504882812 447.6640625 c 0
 501.512695312 447.6640625 493.353515625 447.609375 485.028320312 447.498046875 c 0
 460.028320312 447.165039062 425.6953125 446.33203125 382.028320312 444.999023438 c 0
 338.361328125 443.666015625 306.528320312 442.999023438 286.528320312 442.999023438 c 0
 271.1953125 442.999023438 260.028320312 446.999023438 253.028320312 454.999023438 c 0
 246.028320312 462.999023438 243.861328125 472.666015625 246.528320312 483.999023438 c 0
 248.528320312 496.666015625 254.361328125 507.333007812 264.028320312 516 c 0
 273.004882812 524.047851562 284.422851562 528.071289062 298.28515625 528.071289062 c 0
 299.3515625 528.071289062 300.432617188 528.047851562 301.528320312 528 c 0
258.52734375 329.99609375 m 0
 274.778320312 329.7734375 291.958984375 329.662109375 310.069335938 329.662109375 c 0
 346.19140625 329.662109375 386.009765625 330.10546875 429.526367188 330.993164062 c 0
 494.859375 332.326171875 527.859375 332.993164062 528.526367188 332.993164062 c 0
 543.193359375 332.993164062 552.526367188 329.493164062 556.526367188 322.493164062 c 0
 560.526367188 315.493164062 561.526367188 306.326171875 559.526367188 294.993164062 c 0
 558.193359375 288.993164062 556.360351562 283.493164062 554.02734375 278.493164062 c 0
 551.694335938 273.493164062 548.694335938 268.66015625 545.02734375 263.993164062 c 0
 541.360351562 259.326171875 536.52734375 255.826171875 530.52734375 253.493164062 c 0
 524.52734375 251.16015625 517.860351562 250.327148438 510.52734375 250.994140625 c 0
 495.853515625 251.439453125 480.364257812 251.661132812 464.059570312 251.661132812 c 0
 455.918945312 251.661132812 447.57421875 251.606445312 439.02734375 251.495117188 c 0
 413.360351562 251.162109375 378.360351562 250.329101562 334.02734375 248.99609375 c 0
 289.694335938 247.663085938 257.52734375 246.99609375 237.52734375 246.99609375 c 0
 222.194335938 246.99609375 211.694335938 251.163085938 206.02734375 259.49609375 c 0
 202.173828125 265.162109375 200.247070312 271.676757812 200.247070312 279.0390625 c 0
 200.247070312 282.50390625 200.673828125 286.15625 201.52734375 289.99609375 c 0
 203.52734375 301.329101562 209.52734375 310.829101562 219.52734375 318.49609375 c 0
 229.52734375 326.163085938 242.52734375 329.99609375 258.52734375 329.99609375 c 0
EndSplineSet
Validated: 524289
EndChar

StartChar: greater
Encoding: 62 62 41
Width: 630
GlyphClass: 2
Flags: W
LayerCount: 2
Fore
SplineSet
166.201171875 5 m 0
 155.534179688 -1 145.700195312 -4.333984375 136.700195312 -5.0009765625 c 0
 127.700195312 -5.66796875 120.533203125 -4.16796875 115.200195312 -0.5009765625 c 0
 109.8671875 3.166015625 105.700195312 7.666015625 102.700195312 12.9990234375 c 0
 99.7001953125 18.33203125 97.533203125 23.9990234375 96.2001953125 29.9990234375 c 0
 95.607421875 32.517578125 95.3115234375 35.044921875 95.3115234375 37.580078125 c 0
 95.3115234375 46.4521484375 98.9404296875 55.4248046875 106.19921875 64.4990234375 c 0
 115.532226562 76.166015625 132.865234375 89.9990234375 158.198242188 105.999023438 c 0
 198.865234375 131.999023438 261.365234375 174.666015625 345.698242188 233.999023438 c 0
 430.03125 293.33203125 483.864257812 330.999023438 507.197265625 346.999023438 c 1
 487.864257812 366.999023438 466.53125 391.166015625 443.198242188 419.499023438 c 0
 419.865234375 447.83203125 399.532226562 473.499023438 382.19921875 496.499023438 c 0
 364.866210938 519.499023438 346.033203125 542.999023438 325.700195312 566.999023438 c 0
 305.3671875 590.999023438 286.8671875 609.999023438 270.200195312 623.999023438 c 0
 253.533203125 637.999023438 243.200195312 650.166015625 239.200195312 660.499023438 c 0
 237.788085938 664.145507812 237.083007812 667.85546875 237.083007812 671.625976562 c 0
 237.083007812 678.541015625 239.455078125 685.665039062 244.200195312 692.998046875 c 0
 248.8671875 699.665039062 254.700195312 705.33203125 261.700195312 709.999023438 c 0
 268.700195312 714.666015625 277.700195312 717.666015625 288.700195312 718.999023438 c 0
 290.899414062 719.265625 293.146484375 719.3984375 295.439453125 719.3984375 c 0
 304.61328125 719.3984375 314.533203125 717.265625 325.200195312 712.999023438 c 0
 339.200195312 707.666015625 355.700195312 696.166015625 374.700195312 678.499023438 c 0
 393.700195312 660.83203125 413.3671875 639.33203125 433.700195312 613.999023438 c 0
 454.033203125 588.666015625 474.200195312 562.999023438 494.200195312 536.999023438 c 0
 514.200195312 510.999023438 535.3671875 484.33203125 557.700195312 456.999023438 c 0
 580.033203125 429.666015625 599.866210938 407.999023438 617.19921875 391.999023438 c 0
 623.19921875 385.999023438 626.032226562 376.999023438 625.69921875 364.999023438 c 0
 625.366210938 352.999023438 622.533203125 341.499023438 617.200195312 330.499023438 c 0
 611.8671875 319.499023438 604.8671875 311.666015625 596.200195312 306.999023438 c 0
 554.8671875 278.999023438 505.3671875 243.83203125 447.700195312 201.499023438 c 0
 390.033203125 159.166015625 337.533203125 120.833007812 290.200195312 86.5 c 0
 242.8671875 52.1669921875 201.534179688 25 166.201171875 5 c 0
EndSplineSet
Validated: 524289
EndChar

StartChar: question
Encoding: 63 63 42
Width: 630
GlyphClass: 2
Flags: HMW
HStem: -14.0039 153.998 637.999 84.001<456.134 468.798>
VStem: 230.468 151 306.466 95.001
LayerCount: 2
Fore
SplineSet
401.467773438 262 m 0xd0
 394.80078125 244.666992188 385.966796875 231.330078125 374.966796875 221.997070312 c 0
 367.633789062 215.775390625 359.189453125 212.6640625 349.634765625 212.6640625 c 0
 344.856445312 212.6640625 339.80078125 213.442382812 334.466796875 214.998046875 c 0
 318.466796875 219.665039062 309.133789062 228.33203125 306.466796875 240.999023438 c 0
 305.905273438 243.666015625 305.625 246.524414062 305.625 249.576171875 c 0
 305.625 261.016601562 309.572265625 275.157226562 317.466796875 291.999023438 c 0
 326.133789062 309.999023438 336.466796875 326.999023438 348.466796875 342.999023438 c 0
 360.466796875 358.999023438 372.633789062 372.666015625 384.966796875 383.999023438 c 0
 397.299804688 395.33203125 410.1328125 406.165039062 423.465820312 416.498046875 c 0
 436.798828125 426.831054688 449.465820312 436.498046875 461.465820312 445.498046875 c 0
 473.465820312 454.498046875 484.6328125 463.665039062 494.965820312 472.998046875 c 0
 505.298828125 482.331054688 514.131835938 492.498046875 521.46484375 503.498046875 c 0
 528.797851562 514.498046875 533.797851562 526.331054688 536.46484375 538.998046875 c 0
 539.247070312 551.055664062 540.638671875 561.96484375 540.638671875 571.724609375 c 0
 540.638671875 590.0234375 535.747070312 604.28125 525.96484375 614.499023438 c 0
 510.96484375 630.166015625 486.131835938 637.999023438 451.46484375 637.999023438 c 0
 442.797851562 637.999023438 433.46484375 635.83203125 423.46484375 631.499023438 c 0
 413.46484375 627.166015625 404.797851562 622.333007812 397.46484375 617 c 0
 390.131835938 611.666992188 381.631835938 604.5 371.96484375 595.5 c 0
 362.297851562 586.5 354.797851562 578.833007812 349.46484375 572.5 c 0
 344.131835938 566.166992188 337.798828125 558.666992188 330.465820312 550 c 0
 323.1328125 541.333007812 316.299804688 534.5 309.966796875 529.5 c 0
 303.633789062 524.5 297.80078125 521.833007812 292.467773438 521.5 c 0
 287.134765625 521.166992188 282.301757812 521.5 277.96875 522.5 c 0
 273.635742188 523.5 268.135742188 525.666992188 261.46875 529 c 0
 252.135742188 535 247.635742188 543.666992188 247.96875 555 c 0
 248.301757812 566.333007812 254.46875 581 266.46875 599 c 0
 276.46875 613 287.801757812 626.5 300.46875 639.5 c 0
 313.135742188 652.5 328.135742188 665.5 345.46875 678.5 c 0
 362.801757812 691.5 382.134765625 702 403.467773438 710 c 0
 424.80078125 718 445.80078125 722 466.467773438 722 c 0
 533.80078125 722 580.967773438 705.333007812 607.967773438 672 c 0
 625.188476562 650.740234375 633.797851562 622.701171875 633.797851562 587.881835938 c 0
 633.797851562 568.107421875 631.021484375 546.147460938 625.467773438 522 c 0
 621.467773438 504 614.967773438 487.666992188 605.967773438 473 c 0
 596.967773438 458.333007812 586.967773438 445.666015625 575.967773438 434.999023438 c 0
 564.967773438 424.33203125 552.967773438 414.33203125 539.967773438 404.999023438 c 0
 526.967773438 395.666015625 513.80078125 386.333007812 500.467773438 377 c 0
 487.134765625 367.666992188 474.301757812 358 461.96875 348 c 0
 449.635742188 338 438.135742188 325.5 427.46875 310.5 c 0
 416.801757812 295.5 408.134765625 279.333007812 401.467773438 262 c 0xd0
290.466796875 -14.00390625 m 0
 287.096679688 -14.3779296875 283.858398438 -14.5654296875 280.751953125 -14.5654296875 c 0
 261.731445312 -14.5654296875 247.638671875 -7.5478515625 238.469726562 6.4921875 c 0
 231.358398438 17.380859375 227.802734375 29.5302734375 227.802734375 42.9375 c 0
 227.802734375 49.6416015625 228.69140625 56.6591796875 230.46875 63.9921875 c 0
 235.135742188 84.6591796875 247.135742188 102.326171875 266.46875 116.993164062 c 0
 285.801757812 131.66015625 305.46875 139.327148438 325.46875 139.994140625 c 0
 326.447265625 140.0234375 327.4140625 140.0390625 328.369140625 140.0390625 c 0
 348.89453125 140.0390625 364.094726562 133.190429688 373.96875 119.495117188 c 0
 380.784179688 110.041015625 384.192382812 98.919921875 384.192382812 86.1298828125 c 0
 384.192382812 79.529296875 383.284179688 72.484375 381.46875 64.9951171875 c 0xe0
 376.801757812 43.662109375 366.134765625 25.8291015625 349.467773438 11.49609375 c 0
 332.80078125 -2.8369140625 313.133789062 -11.3369140625 290.466796875 -14.00390625 c 0
EndSplineSet
Validated: 524289
EndChar

StartChar: at
Encoding: 64 64 43
Width: 630
GlyphClass: 2
Flags: HMW
HStem: -129 84.9961<260.875 309.206> 102.002 77.9951<461.875 504.873> 118.002 79.9941<342.873 351.208> 612.994 90.0078<474.539 478.208>
VStem: 110.706 85.501 427.207 81 577.708 75.499
LayerCount: 2
Fore
SplineSet
508.202148438 5 m 0xde
 502.869140625 -4.3330078125 497.54296875 -12.5009765625 492.209960938 -19.5009765625 c 0
 486.876953125 -26.5009765625 480.209960938 -35.16796875 472.209960938 -45.5009765625 c 0
 464.209960938 -55.833984375 455.876953125 -64.6669921875 447.209960938 -72 c 0
 438.54296875 -79.3330078125 428.209960938 -86.8330078125 416.209960938 -94.5 c 0
 404.209960938 -102.166992188 391.54296875 -108.5 378.209960938 -113.5 c 0
 364.876953125 -118.5 349.376953125 -122.5 331.709960938 -125.5 c 0
 317.255859375 -127.954101562 302.466796875 -129.181640625 287.342773438 -129.181640625 c 0
 283.981445312 -129.181640625 280.603515625 -129.12109375 277.208984375 -129 c 0
 244.541992188 -129 215.875 -120.333007812 191.208007812 -103 c 0
 166.541015625 -85.6669921875 147.374023438 -61.5 133.70703125 -30.5 c 0
 120.040039062 0.5 112.373046875 38.1669921875 110.706054688 82.5 c 0
 110.502929688 87.9072265625 110.401367188 93.3759765625 110.401367188 98.9072265625 c 0
 110.401367188 138.725585938 115.669921875 181.756835938 126.206054688 228 c 0
 140.206054688 286.666992188 157.206054688 341.333984375 177.206054688 392.000976562 c 0
 197.206054688 442.66796875 219.373046875 486.834960938 243.706054688 524.501953125 c 0
 268.0390625 562.168945312 293.706054688 594.501953125 320.706054688 621.501953125 c 0
 347.706054688 648.501953125 375.5390625 668.834960938 404.206054688 682.501953125 c 0
 432.873046875 696.168945312 460.873046875 703.001953125 488.206054688 703.001953125 c 0
 508.873046875 703.001953125 527.373046875 701.168945312 543.706054688 697.501953125 c 0
 560.0390625 693.834960938 575.206054688 687.834960938 589.206054688 679.501953125 c 0
 603.206054688 671.168945312 614.5390625 660.001953125 623.206054688 646.001953125 c 0
 631.873046875 632.001953125 639.040039062 614.501953125 644.70703125 593.501953125 c 0
 650.374023438 572.501953125 653.20703125 548.001953125 653.20703125 520.001953125 c 0
 653.20703125 492.001953125 650.540039062 459.001953125 645.20703125 421.001953125 c 0
 639.874023438 383.001953125 631.874023438 340.334960938 621.20703125 293.001953125 c 0
 615.874023438 269.001953125 609.041015625 246.168945312 600.708007812 224.501953125 c 0
 592.375 202.834960938 582.541992188 182.501953125 571.208984375 163.501953125 c 0
 559.875976562 144.501953125 546.708984375 129.501953125 531.708984375 118.501953125 c 0
 516.708984375 107.501953125 500.875976562 102.001953125 484.208984375 102.001953125 c 0xde
 445.840820312 102.001953125 426.657226562 122.662109375 426.657226562 163.981445312 c 0
 426.657226562 170.764648438 427.173828125 178.104492188 428.208007812 186.001953125 c 1
 403.541015625 140.668945312 371.208007812 118.001953125 331.208007812 118.001953125 c 0
 294.541015625 118.001953125 268.874023438 130.334960938 254.20703125 155.001953125 c 0
 246.140625 168.568359375 242.106445312 186.068359375 242.106445312 207.5 c 0
 242.106445312 225.03515625 244.806640625 245.202148438 250.20703125 268.002929688 c 0
 256.20703125 293.3359375 264.20703125 316.668945312 274.20703125 338.001953125 c 0
 284.20703125 359.334960938 295.374023438 377.501953125 307.70703125 392.501953125 c 0
 320.040039062 407.501953125 333.540039062 420.168945312 348.20703125 430.501953125 c 0
 362.874023438 440.834960938 377.70703125 448.16796875 392.70703125 452.500976562 c 0
 405.706054688 456.255859375 418.705078125 458.133789062 431.704101562 458.133789062 c 0
 437.70703125 458 l 0
 452.70703125 457.333007812 466.874023438 453.666015625 480.20703125 446.999023438 c 0
 493.540039062 440.999023438 503.20703125 432.999023438 509.20703125 422.999023438 c 0
 515.20703125 412.999023438 515.20703125 403.999023438 509.20703125 395.999023438 c 0
 505.874023438 390.666015625 502.20703125 386.333007812 498.20703125 383 c 0
 494.20703125 379.666992188 489.874023438 377.333984375 485.20703125 376.000976562 c 0
 480.540039062 374.66796875 476.373046875 373.66796875 472.706054688 373.000976562 c 0
 469.0390625 372.333984375 464.372070312 372.500976562 458.705078125 373.500976562 c 0
 453.038085938 374.500976562 448.705078125 375.333984375 445.705078125 376.000976562 c 0
 442.705078125 376.66796875 438.538085938 378.000976562 433.205078125 380.000976562 c 0
 425.872070312 381.333984375 418.0390625 381.666992188 409.706054688 381 c 0
 401.373046875 380.333007812 393.040039062 377.5 384.70703125 372.5 c 0
 376.374023438 367.5 368.374023438 361.166992188 360.70703125 353.5 c 0
 353.040039062 345.833007812 346.040039062 335.666015625 339.70703125 322.999023438 c 0
 333.374023438 310.33203125 328.20703125 295.999023438 324.20703125 279.999023438 c 0
 322.20703125 271.33203125 320.874023438 263.165039062 320.20703125 255.498046875 c 0
 319.540039062 247.831054688 319.373046875 239.1640625 319.706054688 229.497070312 c 0
 320.0390625 219.830078125 322.5390625 212.163085938 327.206054688 206.49609375 c 0
 331.873046875 200.829101562 338.540039062 197.99609375 347.20703125 197.99609375 c 0xbe
 366.540039062 197.99609375 382.20703125 206.163085938 394.20703125 222.49609375 c 0
 406.20703125 238.829101562 417.20703125 265.99609375 427.20703125 303.99609375 c 0
 429.874023438 314.663085938 439.874023438 323.330078125 457.20703125 329.997070312 c 0
 468.014648438 334.2421875 477.48046875 336.365234375 485.606445312 336.365234375 c 0
 491.516601562 336.365234375 496.716796875 335.2421875 501.208007812 332.997070312 c 0
 508.541015625 329.6640625 510.874023438 322.997070312 508.20703125 312.997070312 c 0
 496.20703125 277.6640625 488.874023438 250.1640625 486.20703125 230.497070312 c 0
 484.874023438 220.6640625 484.20703125 212.4140625 484.20703125 205.747070312 c 0
 484.20703125 199.080078125 484.874023438 193.997070312 486.20703125 190.497070312 c 0
 488.874023438 183.497070312 494.20703125 179.997070312 502.20703125 179.997070312 c 0
 507.540039062 179.997070312 513.040039062 184.330078125 518.70703125 192.997070312 c 0
 524.374023438 201.6640625 529.541015625 212.997070312 534.208007812 226.997070312 c 0
 538.875 240.997070312 542.708007812 253.330078125 545.708007812 263.997070312 c 0
 548.708007812 274.6640625 551.208007812 284.997070312 553.208007812 294.997070312 c 0
 561.208007812 328.997070312 567.208007812 360.330078125 571.208007812 388.997070312 c 0
 575.208007812 417.6640625 577.375 442.1640625 577.708007812 462.497070312 c 0
 577.741210938 464.529296875 577.7578125 466.541015625 577.7578125 468.533203125 c 0
 577.7578125 486.474609375 576.408203125 502.794921875 573.708007812 517.49609375 c 0
 570.708007812 533.829101562 567.375 547.162109375 563.708007812 557.495117188 c 0
 560.041015625 567.828125 554.708007812 576.661132812 547.708007812 583.994140625 c 0
 540.708007812 591.327148438 534.375 596.827148438 528.708007812 600.494140625 c 0
 523.041015625 604.161132812 516.208007812 606.994140625 508.208007812 608.994140625 c 0
 500.208007812 610.994140625 494.208007812 612.161132812 490.208007812 612.494140625 c 0
 486.208007812 612.827148438 481.208007812 612.994140625 475.208007812 612.994140625 c 0
 450.541015625 612.994140625 425.374023438 604.661132812 399.70703125 587.994140625 c 0
 374.040039062 571.327148438 349.70703125 548.16015625 326.70703125 518.493164062 c 0
 303.70703125 488.826171875 282.374023438 451.993164062 262.70703125 407.993164062 c 0
 243.040039062 363.993164062 227.20703125 315.993164062 215.20703125 263.993164062 c 0
 204.540039062 218.66015625 198.20703125 177.827148438 196.20703125 141.494140625 c 0
 195.661132812 131.5859375 195.388671875 122.198242188 195.388671875 113.330078125 c 0
 195.388671875 89.6826171875 197.328125 69.7373046875 201.20703125 53.4951171875 c 0
 206.540039062 31.162109375 214.373046875 12.3291015625 224.706054688 -3.00390625 c 0
 235.0390625 -18.3369140625 246.5390625 -29.00390625 259.206054688 -35.00390625 c 0
 271.873046875 -41.00390625 285.873046875 -44.00390625 301.206054688 -44.00390625 c 0
 317.206054688 -44.00390625 332.373046875 -42.3369140625 346.706054688 -39.00390625 c 0
 361.0390625 -35.6708984375 373.206054688 -31.6708984375 383.206054688 -27.00390625 c 0
 393.206054688 -22.3369140625 403.0390625 -16.00390625 412.706054688 -8.00390625 c 0
 422.373046875 -0.00390625 430.373046875 7.3291015625 436.706054688 13.99609375 c 0
 443.0390625 20.6630859375 450.206054688 29.330078125 458.206054688 39.9970703125 c 0
 461.5390625 44.6640625 464.372070312 48.3310546875 466.705078125 50.998046875 c 0
 469.038085938 53.6650390625 471.87109375 56.83203125 475.204101562 60.4990234375 c 0
 478.537109375 64.166015625 481.370117188 66.8330078125 483.703125 68.5 c 0
 486.036132812 70.1669921875 488.703125 71.6669921875 491.703125 73 c 0
 494.703125 74.3330078125 497.703125 75 500.703125 75 c 0
 503.703125 75 506.536132812 74.3330078125 509.203125 73 c 0
 513.870117188 71 517.370117188 68.5 519.703125 65.5 c 0
 522.036132812 62.5 523.703125 58.5 524.703125 53.5 c 0
 525.703125 48.5 524.870117188 41.8330078125 522.203125 33.5 c 0
 519.536132812 25.1669921875 514.869140625 15.6669921875 508.202148438 5 c 0xde
EndSplineSet
Validated: 524289
EndChar

StartChar: A
Encoding: 65 65 44
Width: 630
GlyphClass: 2
Flags: HMW
HStem: 251 81.0059
VStem: 480.088 91.501
LayerCount: 2
Fore
SplineSet
161.087890625 41 m 2
 150.420898438 20.3330078125 138.420898438 6.671875 125.087890625 0.0048828125 c 0
 117.680664062 -3.69921875 110.787109375 -5.55078125 104.408203125 -5.55078125 c 0
 99.3056640625 -5.55078125 94.5322265625 -4.3662109375 90.087890625 -1.99609375 c 0
 79.89453125 3.6279296875 74.796875 13.330078125 74.796875 27.109375 c 0
 74.796875 39.4638671875 78.89453125 55.0947265625 87.087890625 74.00390625 c 0
 95.7548828125 95.3369140625 125.754882812 147.336914062 177.087890625 230.00390625 c 1
 169.829101562 236.225585938 166.200195312 243.456054688 166.200195312 251.694335938 c 0
 166.200195312 254.048828125 166.49609375 256.485351562 167.088867188 259.00390625 c 0
 168.421875 268.336914062 174.421875 277.169921875 185.088867188 285.502929688 c 0
 195.755859375 293.8359375 208.088867188 300.3359375 222.088867188 305.002929688 c 1
 342.088867188 495.669921875 430.088867188 623.002929688 486.088867188 687.002929688 c 0
 498.088867188 700.3359375 508.421875 710.002929688 517.088867188 716.002929688 c 0
 525.755859375 722.002929688 534.422851562 725.002929688 543.08984375 725.002929688 c 0
 545.271484375 725.245117188 547.392578125 725.366210938 549.453125 725.366210938 c 0
 558.725585938 725.366210938 566.771484375 722.912109375 573.58984375 718.002929688 c 0
 580.7734375 712.830078125 584.365234375 704.4375 584.365234375 692.823242188 c 0
 584.365234375 690.965820312 584.2734375 689.025390625 584.08984375 687.002929688 c 0
 577.422851562 604.3359375 572.08984375 487.168945312 568.08984375 335.501953125 c 0
 566.58984375 278.625 565.83984375 230.819335938 565.83984375 192.083984375 c 0
 565.83984375 127.528320312 567.922851562 88.16796875 572.08984375 74.0009765625 c 0
 573.676757812 67.9697265625 574.470703125 62.203125 574.470703125 56.701171875 c 0
 574.470703125 50.6474609375 573.509765625 44.9140625 571.588867188 39.5009765625 c 0
 567.921875 29.16796875 562.754882812 20.5009765625 556.087890625 13.5009765625 c 0
 549.420898438 6.5009765625 542.087890625 1.333984375 534.087890625 -1.9990234375 c 0
 528.296875 -4.4365234375 522.750976562 -5.65625 517.447265625 -5.65625 c 0
 511.150390625 -5.65625 505.197265625 -3.9365234375 499.587890625 -0.4990234375 c 0
 489.254882812 5.833984375 482.754882812 19.6669921875 480.087890625 41 c 0
 479.021484375 49.2666015625 478.487304688 65.4267578125 478.487304688 89.4794921875 c 0
 478.487304688 125.559570312 479.6875 179.399414062 482.087890625 251 c 1
 402.087890625 247.666992188 329.754882812 240.666992188 265.087890625 230 c 1
 161.087890625 41 l 2
497.087890625 602.005859375 m 1
 459.754882812 557.338867188 399.087890625 462.672851562 315.087890625 318.005859375 c 1
 379.754882812 326.005859375 436.754882812 330.672851562 486.087890625 332.005859375 c 1
 497.087890625 602.005859375 l 1
EndSplineSet
Validated: 524289
EndChar

StartChar: B
Encoding: 66 66 45
Width: 630
GlyphClass: 2
Flags: HMW
HStem: -22.9961 21G<143.543 149.876> 297.005 72<332.21 336.209> 630.005 78.998<416.207 430.543>
LayerCount: 2
Fore
SplineSet
262.208007812 -14 m 0
 251.541015625 -14.6669921875 239.7109375 -15.662109375 226.7109375 -16.9951171875 c 0
 213.7109375 -18.328125 203.043945312 -19.328125 194.7109375 -19.9951171875 c 0
 186.377929688 -20.662109375 177.877929688 -21.3291015625 169.2109375 -21.99609375 c 0
 160.543945312 -22.6630859375 153.043945312 -22.99609375 146.7109375 -22.99609375 c 0
 140.377929688 -22.99609375 134.877929688 -22.3291015625 130.2109375 -20.99609375 c 2
 126.2109375 -20.99609375 l 2
 113.543945312 -20.99609375 104.376953125 -16.49609375 98.7099609375 -7.49609375 c 0
 95.6025390625 -2.560546875 94.048828125 3.427734375 94.048828125 10.4677734375 c 0
 94.048828125 16.265625 95.1025390625 22.7783203125 97.2099609375 30.00390625 c 0
 105.876953125 58.00390625 118.876953125 111.336914062 136.209960938 190.00390625 c 0
 153.54296875 268.670898438 170.54296875 349.670898438 187.209960938 433.00390625 c 0
 196.54296875 477.670898438 202.875976562 507.670898438 206.208984375 523.00390625 c 0
 209.541992188 538.336914062 214.708984375 559.00390625 221.708984375 585.00390625 c 0
 228.708984375 611.00390625 233.541992188 629.00390625 236.208984375 639.00390625 c 0
 240.875976562 657.00390625 248.708984375 670.50390625 259.708984375 679.50390625 c 0
 270.708984375 688.50390625 282.541992188 693.00390625 295.208984375 693.00390625 c 2
 298.208984375 693.00390625 l 2
 308.875976562 696.336914062 320.04296875 699.169921875 331.709960938 701.502929688 c 0
 343.376953125 703.8359375 353.876953125 705.502929688 363.209960938 706.502929688 c 0
 372.54296875 707.502929688 382.375976562 708.169921875 392.708984375 708.502929688 c 0
 403.041992188 708.8359375 410.875 709.002929688 416.208007812 709.002929688 c 2
 434.708007812 709.002929688 l 1
 445.208007812 709.002929688 l 2
 487.208007812 709.002929688 522.708007812 700.669921875 551.708007812 684.002929688 c 0
 580.708007812 667.3359375 601.208007812 643.168945312 613.208007812 611.501953125 c 0
 619.958007812 593.689453125 623.333007812 574.2421875 623.333007812 553.16015625 c 0
 623.333007812 536.762695312 621.291015625 519.376953125 617.208007812 501.001953125 c 0
 608.541015625 462.334960938 592.541015625 429.16796875 569.208007812 401.500976562 c 0
 545.875 373.833984375 518.208007812 353.666992188 486.208007812 341 c 1
 505.541015625 333.666992188 523.708007812 322.833984375 540.708007812 308.500976562 c 0
 557.708007812 294.16796875 570.875 278.16796875 580.208007812 260.500976562 c 0
 587.084960938 247.483398438 590.5234375 235.098632812 590.5234375 223.34765625 c 0
 590.5234375 219.151367188 590.084960938 215.036132812 589.208007812 211.000976562 c 0
 583.875 185.66796875 572.208007812 160.500976562 554.208007812 135.500976562 c 0
 536.208007812 110.500976562 513.375 87.66796875 485.708007812 67.0009765625 c 0
 458.041015625 46.333984375 424.708007812 28.6669921875 385.708007812 14 c 0
 346.708007812 -0.6669921875 305.541015625 -10 262.208007812 -14 c 0
425.2109375 630.004882812 m 0
 391.877929688 630.004882812 358.209960938 625.671875 324.209960938 617.004882812 c 1
 320.876953125 604.337890625 315.543945312 584.004882812 308.2109375 556.004882812 c 0
 300.877929688 528.004882812 293.377929688 498.337890625 285.7109375 467.004882812 c 0
 278.043945312 435.671875 270.543945312 403.671875 263.2109375 371.004882812 c 1
 291.877929688 369.671875 319.2109375 369.004882812 345.2109375 369.004882812 c 0
 363.877929688 369.004882812 381.377929688 370.671875 397.7109375 374.004882812 c 0
 414.043945312 377.337890625 428.043945312 381.670898438 439.7109375 387.00390625 c 0
 451.377929688 392.336914062 462.2109375 398.836914062 472.2109375 406.50390625 c 0
 482.2109375 414.170898438 490.543945312 422.00390625 497.2109375 430.00390625 c 0
 503.877929688 438.00390625 509.7109375 446.836914062 514.7109375 456.50390625 c 0
 519.7109375 466.170898438 523.543945312 474.837890625 526.2109375 482.504882812 c 0
 528.877929688 490.171875 531.2109375 498.338867188 533.2109375 507.005859375 c 0
 535.497070312 516.91015625 536.639648438 526.379882812 536.639648438 535.4140625 c 0
 536.639648438 542.189453125 535.997070312 548.719726562 534.7109375 555.005859375 c 0
 531.7109375 569.672851562 526.377929688 581.505859375 518.7109375 590.505859375 c 0
 511.043945312 599.505859375 501.7109375 607.172851562 490.7109375 613.505859375 c 0
 479.7109375 619.838867188 468.7109375 624.171875 457.7109375 626.504882812 c 0
 446.7109375 628.837890625 435.877929688 630.004882812 425.2109375 630.004882812 c 0
336.209960938 297.004882812 m 1
 290.876953125 297.004882812 261.208007812 296.670898438 247.208007812 296.00390625 c 1
 225.208007812 188.670898438 209.875 112.337890625 201.208007812 67.0048828125 c 1
 207.875 67.0048828125 219.041992188 67.337890625 234.708984375 68.0048828125 c 0
 250.375976562 68.671875 262.54296875 69.0048828125 271.209960938 69.0048828125 c 0
 299.876953125 70.337890625 327.876953125 75.6708984375 355.209960938 85.00390625 c 0
 382.54296875 94.3369140625 405.54296875 105.50390625 424.209960938 118.50390625 c 0
 442.876953125 131.50390625 458.376953125 145.170898438 470.709960938 159.50390625 c 0
 483.04296875 173.836914062 490.875976562 187.00390625 494.208984375 199.00390625 c 0
 496.208984375 207.670898438 494.708984375 216.337890625 489.708984375 225.004882812 c 0
 484.708984375 233.671875 476.541992188 242.671875 465.208984375 252.004882812 c 0
 453.875976562 261.337890625 437.04296875 270.004882812 414.709960938 278.004882812 c 0
 392.376953125 286.004882812 366.209960938 292.337890625 336.209960938 297.004882812 c 1
EndSplineSet
Validated: 524289
EndChar

StartChar: C
Encoding: 67 67 46
Width: 630
GlyphClass: 2
Flags: HMW
HStem: -31.002 90.0029<260.805 315.471> 632.001 80.9961<545.805 547.805>
VStem: 585.471 77
LayerCount: 2
Fore
SplineSet
541.47265625 64 m 0
 475.4921875 0.607421875 389.426757812 -31.0908203125 283.276367188 -31.0908203125 c 0
 280.026367188 -31.0908203125 276.758789062 -31.0615234375 273.471679688 -31.001953125 c 0
 248.138671875 -31.001953125 225.305664062 -26.3349609375 204.97265625 -17.001953125 c 0
 184.639648438 -7.6689453125 168.139648438 4.6640625 155.47265625 19.9970703125 c 0
 142.805664062 35.330078125 132.805664062 53.1630859375 125.47265625 73.49609375 c 0
 118.139648438 93.8291015625 114.139648438 115.49609375 113.47265625 138.49609375 c 0
 113.40625 140.796875 113.373046875 143.099609375 113.373046875 145.403320312 c 0
 113.373046875 166.1328125 116.073242188 186.997070312 121.47265625 207.99609375 c 0
 132.805664062 256.663085938 148.305664062 303.663085938 167.97265625 348.99609375 c 0
 187.639648438 394.329101562 209.639648438 435.329101562 233.97265625 471.99609375 c 0
 258.305664062 508.663085938 284.638671875 542.330078125 312.971679688 572.997070312 c 0
 341.3046875 603.6640625 369.471679688 629.1640625 397.471679688 649.497070312 c 0
 425.471679688 669.830078125 453.3046875 685.497070312 480.971679688 696.497070312 c 0
 508.638671875 707.497070312 534.138671875 712.997070312 557.471679688 712.997070312 c 0
 580.138671875 712.997070312 600.471679688 710.330078125 618.471679688 704.997070312 c 1
 623.138671875 714.997070312 629.638671875 723.1640625 637.971679688 729.497070312 c 0
 646.3046875 735.830078125 655.137695312 739.330078125 664.470703125 739.997070312 c 0
 675.137695312 741.997070312 684.8046875 739.497070312 693.471679688 732.497070312 c 0
 702.138671875 725.497070312 706.471679688 715.330078125 706.471679688 701.997070312 c 0
 706.471679688 691.997070312 705.8046875 682.1640625 704.471679688 672.497070312 c 0
 703.138671875 662.830078125 701.638671875 653.330078125 699.971679688 643.997070312 c 0
 698.3046875 634.6640625 696.8046875 626.997070312 695.471679688 620.997070312 c 0
 694.138671875 614.997070312 692.471679688 607.997070312 690.471679688 599.997070312 c 0
 688.471679688 591.997070312 687.138671875 586.997070312 686.471679688 584.997070312 c 0
 683.138671875 570.997070312 675.138671875 556.830078125 662.471679688 542.497070312 c 0
 649.8046875 528.1640625 638.137695312 520.331054688 627.470703125 518.998046875 c 0
 625.1484375 518.611328125 622.875976562 518.416992188 620.653320312 518.416992188 c 0
 611.391601562 518.416992188 602.997070312 521.77734375 595.470703125 528.498046875 c 0
 588.211914062 534.979492188 584.583007812 543.174804688 584.583007812 553.083007812 c 0
 584.583007812 555.915039062 584.87890625 558.88671875 585.471679688 561.998046875 c 0
 586.8046875 567.331054688 590.8046875 581.331054688 597.471679688 603.998046875 c 0
 596.8046875 604.665039062 594.3046875 606.83203125 589.971679688 610.499023438 c 0
 585.638671875 614.166015625 582.471679688 616.833007812 580.471679688 618.5 c 0
 578.471679688 620.166992188 575.3046875 622.333984375 570.971679688 625.000976562 c 0
 566.638671875 627.66796875 562.471679688 629.500976562 558.471679688 630.500976562 c 0
 554.471679688 631.500976562 550.138671875 632.000976562 545.471679688 632.000976562 c 0
 526.138671875 632.000976562 503.971679688 625.333984375 478.971679688 612.000976562 c 0
 453.971679688 598.66796875 428.471679688 579.66796875 402.471679688 555.000976562 c 0
 376.471679688 530.333984375 351.638671875 502.000976562 327.971679688 470.000976562 c 0
 304.3046875 438.000976562 282.8046875 401.833984375 263.471679688 361.500976562 c 0
 244.138671875 321.16796875 230.138671875 280.66796875 221.471679688 240.000976562 c 0
 217.430664062 222.22265625 215.41015625 204.688476562 215.41015625 187.399414062 c 0
 215.41015625 176.163085938 216.263671875 165.030273438 217.970703125 154.000976562 c 0
 222.303710938 126.000976562 232.303710938 103.16796875 247.970703125 85.5009765625 c 0
 263.637695312 67.833984375 282.8046875 59.0009765625 305.471679688 59.0009765625 c 0
 325.471679688 59.0009765625 345.471679688 61.16796875 365.471679688 65.5009765625 c 0
 385.471679688 69.833984375 403.8046875 75.5009765625 420.471679688 82.5009765625 c 0
 437.138671875 89.5009765625 451.805664062 96.5009765625 464.47265625 103.500976562 c 0
 477.139648438 110.500976562 489.139648438 118.000976562 500.47265625 126.000976562 c 0
 509.805664062 132.000976562 517.805664062 136.66796875 524.47265625 140.000976562 c 0
 531.139648438 143.333984375 537.97265625 145.000976562 544.97265625 145.000976562 c 0
 551.97265625 145.000976562 557.805664062 142.66796875 562.47265625 138.000976562 c 0
 569.260742188 131.212890625 572.654296875 123.631835938 572.654296875 115.256835938 c 0
 572.654296875 100.600585938 562.260742188 83.515625 541.47265625 64 c 0
EndSplineSet
Validated: 524289
EndChar

StartChar: D
Encoding: 68 68 47
Width: 630
GlyphClass: 2
Flags: HMW
HStem: -31 85.998<340.653 352.323> 694.001 20G<278.321 288.654>
LayerCount: 2
Fore
SplineSet
339.65625 -31 m 0
 308.989257812 -31 279.15234375 -29.5 250.15234375 -26.5 c 0
 221.15234375 -23.5 198.319335938 -20 181.65234375 -16 c 0
 164.985351562 -12 150.485351562 -8.3330078125 138.15234375 -5 c 0
 125.819335938 -1.6669921875 118.65234375 0 116.65234375 0 c 0
 103.985351562 0 94.818359375 4.5 89.1513671875 13.5 c 0
 86.0439453125 18.435546875 84.490234375 24.423828125 84.490234375 31.4638671875 c 0
 84.490234375 37.26171875 85.5439453125 43.7744140625 87.6513671875 51 c 0
 96.984375 83 110.651367188 139.833007812 128.651367188 221.5 c 0
 146.651367188 303.166992188 165.318359375 391.666992188 184.651367188 487 c 0
 192.651367188 524.333007812 197.984375 548.833007812 200.651367188 560.5 c 0
 203.318359375 572.166992188 207.985351562 590.333984375 214.65234375 615.000976562 c 0
 221.319335938 639.66796875 225.319335938 654.66796875 226.65234375 660.000976562 c 0
 231.319335938 678.000976562 238.986328125 691.500976562 249.653320312 700.500976562 c 0
 260.3203125 709.500976562 271.987304688 714.000976562 284.654296875 714.000976562 c 0
 292.654296875 714.000976562 302.654296875 713.333984375 314.654296875 712.000976562 c 0
 326.654296875 710.66796875 342.154296875 708.000976562 361.154296875 704.000976562 c 0
 380.154296875 700.000976562 399.154296875 694.500976562 418.154296875 687.500976562 c 0
 437.154296875 680.500976562 456.987304688 670.66796875 477.654296875 658.000976562 c 0
 498.321289062 645.333984375 517.321289062 630.666992188 534.654296875 614 c 0
 551.987304688 597.333007812 567.8203125 576.5 582.153320312 551.5 c 0
 596.486328125 526.5 607.486328125 499.166992188 615.153320312 469.5 c 0
 622.20703125 442.20703125 625.733398438 410.119140625 625.733398438 373.235351562 c 0
 625.733398438 370.026367188 625.70703125 366.78125 625.653320312 363.5 c 0
 624.986328125 322.5 618.986328125 278.333007812 607.653320312 231 c 0
 602.3203125 207.666992188 593.987304688 184 582.654296875 160 c 0
 571.321289062 136 556.98828125 112.5 539.655273438 89.5 c 0
 522.322265625 66.5 503.489257812 46 483.15625 28 c 0
 462.823242188 10 440.15625 -4.3330078125 415.15625 -15 c 0
 390.15625 -25.6669921875 364.989257812 -31 339.65625 -31 c 0
243.65234375 348 m 0
 237.65234375 319.333007812 228.8203125 276.165039062 217.153320312 218.498046875 c 0
 205.486328125 160.831054688 196.986328125 117.331054688 191.653320312 87.998046875 c 1
 214.3203125 75.998046875 238.8203125 67.498046875 265.153320312 62.498046875 c 0
 291.486328125 57.498046875 322.653320312 54.998046875 358.653320312 54.998046875 c 0
 375.986328125 54.998046875 393.653320312 61.1650390625 411.653320312 73.498046875 c 0
 429.653320312 85.8310546875 445.986328125 101.831054688 460.653320312 121.498046875 c 0
 475.3203125 141.165039062 488.3203125 162.83203125 499.653320312 186.499023438 c 0
 510.986328125 210.166015625 519.319335938 233.333007812 524.65234375 256 c 0
 532.21484375 289.063476562 535.99609375 320.0625 535.99609375 348.99609375 c 0
 535.99609375 429.743164062 506.547851562 494.411132812 447.65234375 543 c 0
 418.985351562 566.333007812 375.65234375 590.333007812 317.65234375 615 c 1
 317.65234375 616 l 1
 316.65234375 616 l 1
 315.65234375 616 l 1
 314.65234375 617 l 1
 313.65234375 617 l 1
 312.65234375 618 l 1
 311.65234375 618 l 1
 310.65234375 618 l 1
 310.65234375 619 l 1
 309.65234375 619 l 1
 308.65234375 619 l 1
 307.65234375 620 l 1
 306.65234375 620 l 1
 305.65234375 620 l 1
 305.65234375 621 l 1
 283.65234375 534.333007812 262.985351562 443.333007812 243.65234375 348 c 0
EndSplineSet
Validated: 524289
EndChar

StartChar: E
Encoding: 69 69 48
Width: 630
GlyphClass: 2
Flags: HMW
HStem: -17.498 87.4961 -6 90.4971 312.001 85.999<245.403 287.074> 332.001 80.999<559.737 591.739> 614.501 82.5
LayerCount: 2
Fore
SplineSet
494.40234375 -6 m 0x48
 492.4609375 -5.87890625 489.967773438 -5.818359375 486.921875 -5.818359375 c 0
 473.234375 -5.818359375 448.396484375 -7.0439453125 412.405273438 -9.498046875 c 0
 368.405273438 -12.498046875 320.405273438 -15.1650390625 268.405273438 -17.498046875 c 0
 240.404296875 -18.75390625 215.8828125 -19.3828125 194.840820312 -19.3828125 c 0
 176.806640625 -19.3828125 161.328125 -18.9208984375 148.405273438 -17.998046875 c 0
 134.405273438 -17.3310546875 122.072265625 -9.8310546875 111.405273438 4.501953125 c 0
 102.422851562 16.5712890625 97.931640625 30.8876953125 97.931640625 47.44921875 c 0
 97.931640625 50.5546875 98.08984375 53.73828125 98.4052734375 57.001953125 c 0
 100.405273438 74.3349609375 106.572265625 105.501953125 116.905273438 150.501953125 c 0
 127.23828125 195.501953125 138.571289062 243.334960938 150.904296875 294.001953125 c 0
 163.237304688 344.668945312 175.737304688 401.668945312 188.404296875 465.001953125 c 0
 197.071289062 505.001953125 202.904296875 531.501953125 205.904296875 544.501953125 c 0
 208.904296875 557.501953125 213.737304688 576.668945312 220.404296875 602.001953125 c 0
 227.071289062 627.334960938 231.404296875 643.001953125 233.404296875 649.001953125 c 0
 238.071289062 667.001953125 245.73828125 680.668945312 256.405273438 690.001953125 c 0
 267.072265625 699.334960938 278.739257812 704.001953125 291.40625 704.001953125 c 0
 292.284179688 704.037109375 293.146484375 704.0546875 293.994140625 704.0546875 c 0
 309.251953125 704.0546875 319.721679688 698.370117188 325.40625 687.001953125 c 1
 362.073242188 692.334960938 404.240234375 695.66796875 451.907226562 697.000976562 c 0
 475.740234375 697.66796875 498.157226562 698.000976562 519.157226562 698.000976562 c 0
 540.157226562 698.000976562 559.740234375 697.666992188 577.907226562 697.000976562 c 0
 614.240234375 695.66796875 642.740234375 693.66796875 663.407226562 691.000976562 c 0
 677.407226562 689.000976562 686.740234375 685.000976562 691.407226562 679.000976562 c 0
 696.07421875 673.000976562 697.07421875 664.66796875 694.407226562 654.000976562 c 0
 693.07421875 648.000976562 691.241210938 642.333984375 688.908203125 637.000976562 c 0
 686.575195312 631.66796875 683.575195312 626.834960938 679.908203125 622.501953125 c 0
 676.241210938 618.168945312 671.408203125 614.668945312 665.408203125 612.001953125 c 0
 659.408203125 609.334960938 652.408203125 608.66796875 644.408203125 610.000976562 c 0
 602.1640625 613.439453125 559.376953125 615.159179688 516.047851562 615.159179688 c 0
 500.5703125 615.159179688 485.024414062 614.939453125 469.409179688 614.500976562 c 0
 410.076171875 612.833984375 358.409179688 608.666992188 314.409179688 602 c 1
 295.7421875 532.666992188 279.075195312 464.666992188 264.408203125 398 c 1xa8
 309.741210938 398 372.07421875 400.5 451.407226562 405.5 c 0
 530.740234375 410.5 575.073242188 413 584.40625 413 c 0
 599.073242188 413 608.573242188 409.666992188 612.90625 403 c 0
 617.239257812 396.333007812 618.072265625 387 615.405273438 375 c 0
 608.88671875 346.319335938 592.807617188 331.978515625 567.16796875 331.978515625 c 0
 566.584960938 331.978515625 565.997070312 331.986328125 565.404296875 332.000976562 c 0x18
 554.071289062 332.000976562 505.571289062 328.66796875 419.904296875 322.000976562 c 0
 334.237304688 315.333984375 276.0703125 312.000976562 245.403320312 312.000976562 c 1
 242.0703125 297.333984375 237.737304688 278.166992188 232.404296875 254.5 c 0
 227.071289062 230.833007812 222.571289062 210.5 218.904296875 193.5 c 0
 215.237304688 176.5 211.5703125 159 207.903320312 141 c 0
 204.236328125 123 201.569335938 108.166992188 199.90234375 96.5 c 0
 198.235351562 84.8330078125 197.735351562 76.666015625 198.40234375 71.9990234375 c 1
 206.958984375 69.2763671875 226.916015625 67.9150390625 258.274414062 67.9150390625 c 0
 280.668945312 67.9150390625 308.87890625 68.609375 342.903320312 69.998046875 c 0xa8
 424.5703125 73.3310546875 477.403320312 77.6640625 501.403320312 82.9970703125 c 0
 510.736328125 84.330078125 518.569335938 84.830078125 524.90234375 84.4970703125 c 0
 531.235351562 84.1640625 536.40234375 82.8310546875 540.40234375 80.498046875 c 0
 544.40234375 78.1650390625 547.40234375 75.6650390625 549.40234375 72.998046875 c 0
 551.40234375 70.3310546875 552.735351562 66.8310546875 553.40234375 62.498046875 c 0
 554.069335938 58.1650390625 554.40234375 54.33203125 554.40234375 50.9990234375 c 0
 554.40234375 47.666015625 554.069335938 44.3330078125 553.40234375 41 c 0
 550.735351562 28.3330078125 544.235351562 17 533.90234375 7 c 0
 524.78515625 -1.8232421875 513.4609375 -6.2353515625 499.930664062 -6.2353515625 c 0
 498.126953125 -6.2353515625 496.284179688 -6.1572265625 494.40234375 -6 c 0x48
EndSplineSet
Validated: 524289
EndChar

StartChar: F
Encoding: 70 70 49
Width: 630
GlyphClass: 2
Flags: HMW
HStem: 316 86.002 619.002 86.999
LayerCount: 2
Fore
SplineSet
187.013671875 24 m 0
 182.346679688 10 173.513671875 -1.166015625 160.513671875 -9.4990234375 c 0
 148.477539062 -17.21484375 136.297851562 -21.072265625 123.975585938 -21.072265625 c 0
 122.989257812 -21.072265625 122.001953125 -21.0478515625 121.013671875 -20.998046875 c 0
 108.346679688 -20.998046875 99.1796875 -16.498046875 93.5126953125 -7.498046875 c 0
 90.4052734375 -2.5625 88.8515625 3.42578125 88.8515625 10.4658203125 c 0
 88.8515625 16.263671875 89.9052734375 22.7763671875 92.0126953125 30.001953125 c 0
 100.6796875 59.3349609375 114.1796875 115.501953125 132.512695312 198.501953125 c 0
 150.845703125 281.501953125 168.678710938 367.001953125 186.01171875 455.001953125 c 0
 195.344726562 499.668945312 201.844726562 529.668945312 205.51171875 545.001953125 c 0
 209.178710938 560.334960938 214.51171875 581.001953125 221.51171875 607.001953125 c 0
 228.51171875 633.001953125 233.344726562 650.668945312 236.01171875 660.001953125 c 0
 240.678710938 678.001953125 248.345703125 691.501953125 259.012695312 700.501953125 c 0
 269.6796875 709.501953125 281.346679688 714.001953125 294.013671875 714.001953125 c 0
 295.6640625 714.12890625 297.262695312 714.192382812 298.810546875 714.192382812 c 0
 313.516601562 714.192382812 323.584960938 708.461914062 329.013671875 697.000976562 c 1
 391.013671875 701.66796875 453.013671875 704.66796875 515.013671875 706.000976562 c 0
 530.512695312 706.333984375 545.283203125 706.500976562 559.32421875 706.500976562 c 0
 601.450195312 706.500976562 637.012695312 705.000976562 666.013671875 702.000976562 c 0
 680.013671875 700.66796875 689.180664062 696.834960938 693.513671875 690.501953125 c 0
 697.846679688 684.168945312 699.013671875 675.3359375 697.013671875 664.002929688 c 0
 694.346679688 651.3359375 688.513671875 640.668945312 679.513671875 632.001953125 c 0
 670.513671875 623.334960938 658.346679688 619.001953125 643.013671875 619.001953125 c 0
 608.694335938 620.856445312 573.166015625 621.784179688 536.426757812 621.784179688 c 0
 467.541992188 621.784179688 394.404296875 618.5234375 317.012695312 612.001953125 c 1
 314.345703125 600.668945312 309.678710938 582.501953125 303.01171875 557.501953125 c 0
 296.344726562 532.501953125 289.844726562 507.001953125 283.51171875 481.001953125 c 0
 277.178710938 455.001953125 271.01171875 428.668945312 265.01171875 402.001953125 c 1
 293.58203125 405.430664062 324.845703125 407.14453125 358.803710938 407.14453125 c 0
 364.46484375 407.14453125 370.201171875 407.09765625 376.01171875 407.001953125 c 0
 416.678710938 406.334960938 453.01171875 404.501953125 485.01171875 401.501953125 c 0
 517.01171875 398.501953125 542.344726562 395.334960938 561.01171875 392.001953125 c 0
 575.01171875 389.334960938 584.178710938 385.001953125 588.51171875 379.001953125 c 0
 592.844726562 373.001953125 594.01171875 364.668945312 592.01171875 354.001953125 c 0
 590.678710938 348.001953125 588.845703125 342.501953125 586.512695312 337.501953125 c 0
 584.1796875 332.501953125 581.012695312 327.668945312 577.012695312 323.001953125 c 0
 573.012695312 318.334960938 568.1796875 314.834960938 562.512695312 312.501953125 c 0
 556.845703125 310.168945312 550.012695312 309.3359375 542.012695312 310.002929688 c 0
 524.012695312 313.3359375 498.345703125 316.168945312 465.012695312 318.501953125 c 0
 431.6796875 320.834960938 393.846679688 322.16796875 351.513671875 322.500976562 c 0
 348.694335938 322.5234375 345.90625 322.534179688 343.150390625 322.534179688 c 0
 304.528320312 322.534179688 272.1484375 320.356445312 246.013671875 316 c 1
 210.013671875 139.333007812 190.346679688 42 187.013671875 24 c 0
EndSplineSet
Validated: 524289
EndChar

StartChar: G
Encoding: 71 71 50
Width: 630
GlyphClass: 2
Flags: HMW
HStem: -30.9971 89.9971<260.032 311.032> 643.002 80.999<547.031 552.363>
LayerCount: 2
Fore
SplineSet
582.700195312 244 m 0
 578.033203125 230 570.366210938 213.669921875 559.69921875 195.002929688 c 0
 549.032226562 176.3359375 536.19921875 156.502929688 521.19921875 135.502929688 c 0
 506.19921875 114.502929688 489.032226562 94.169921875 469.69921875 74.5029296875 c 0
 450.366210938 54.8359375 430.366210938 37.0029296875 409.69921875 21.0029296875 c 0
 389.032226562 5.0029296875 366.532226562 -7.830078125 342.19921875 -17.4970703125 c 0
 319.436523438 -26.5400390625 297.694335938 -31.0615234375 276.973632812 -31.0615234375 c 0
 275.543945312 -31.0615234375 274.119140625 -31.0400390625 272.69921875 -30.9970703125 c 0
 247.366210938 -30.9970703125 224.533203125 -26.330078125 204.200195312 -16.9970703125 c 0
 183.8671875 -7.6640625 167.3671875 4.6689453125 154.700195312 20.001953125 c 0
 142.033203125 35.3349609375 132.033203125 53.16796875 124.700195312 73.5009765625 c 0
 117.3671875 93.833984375 113.3671875 115.500976562 112.700195312 138.500976562 c 0
 112.625976562 141.057617188 112.588867188 143.616210938 112.588867188 146.177734375 c 0
 112.588867188 166.653320312 114.958984375 187.26171875 119.69921875 208.000976562 c 0
 131.032226562 257.333984375 146.865234375 305.333984375 167.198242188 352.000976562 c 0
 187.53125 398.66796875 209.698242188 440.66796875 233.698242188 478.000976562 c 0
 257.698242188 515.333984375 284.03125 549.500976562 312.698242188 580.500976562 c 0
 341.365234375 611.500976562 369.865234375 637.500976562 398.198242188 658.500976562 c 0
 426.53125 679.500976562 454.53125 695.66796875 482.198242188 707.000976562 c 0
 509.865234375 718.333984375 535.365234375 724.000976562 558.698242188 724.000976562 c 0
 584.698242188 724.000976562 612.198242188 717.500976562 641.198242188 704.500976562 c 0
 670.198242188 691.500976562 688.03125 680.333984375 694.698242188 671.000976562 c 0
 699.57421875 664.295898438 702.012695312 656.685546875 702.012695312 648.169921875 c 0
 702.012695312 638.056640625 698.57421875 626.666992188 691.698242188 614.000976562 c 0
 687.698242188 605.333984375 680.53125 599.000976562 670.198242188 595.000976562 c 0
 659.865234375 591.000976562 650.365234375 591.000976562 641.698242188 595.000976562 c 0
 638.365234375 596.333984375 630.865234375 601.333984375 619.198242188 610.000976562 c 0
 607.53125 618.66796875 595.364257812 626.334960938 582.697265625 633.001953125 c 0
 570.030273438 639.668945312 558.030273438 643.001953125 546.697265625 643.001953125 c 0
 527.364257812 643.001953125 505.03125 636.168945312 479.698242188 622.501953125 c 0
 454.365234375 608.834960938 428.698242188 589.16796875 402.698242188 563.500976562 c 0
 376.698242188 537.833984375 351.698242188 508.666992188 327.698242188 476 c 0
 303.698242188 443.333007812 282.03125 406.333007812 262.698242188 365 c 0
 243.365234375 323.666992188 229.032226562 282 219.69921875 240 c 0
 215.658203125 222.221679688 213.637695312 204.6875 213.637695312 187.3984375 c 0
 213.637695312 176.162109375 214.491210938 165.029296875 216.198242188 154 c 0
 220.53125 126 230.53125 103.166992188 246.198242188 85.5 c 0
 261.865234375 67.8330078125 281.032226562 59 303.69921875 59 c 0
 318.366210938 59 334.866210938 64.1669921875 353.19921875 74.5 c 0
 371.532226562 84.8330078125 388.865234375 98 405.198242188 114 c 0
 421.53125 130 437.53125 148 453.198242188 168 c 0
 468.865234375 188 482.532226562 207.333007812 494.19921875 226 c 0
 505.866210938 244.666992188 515.366210938 262 522.69921875 278 c 1
 483.366210938 276 444.366210938 272.333007812 405.69921875 267 c 0
 367.032226562 261.666992188 339.69921875 254.666992188 323.69921875 246 c 0
 318.014648438 243.158203125 312.779296875 241.736328125 307.9921875 241.736328125 c 0
 302.673828125 241.736328125 297.91015625 243.491210938 293.69921875 247 c 0
 285.69921875 253.666992188 282.366210938 262.666992188 283.69921875 274 c 0
 285.69921875 299.333007812 302.032226562 319 332.69921875 333 c 0
 352.69921875 342.333007812 392.19921875 349.5 451.19921875 354.5 c 0
 493.341796875 358.071289062 528.9375 359.857421875 557.985351562 359.857421875 c 0
 569.604492188 359.857421875 580.17578125 359.571289062 589.69921875 359 c 0
 605.032226562 358.333007812 615.032226562 355.5 619.69921875 350.5 c 0
 624.366210938 345.5 626.366210938 337.666992188 625.69921875 327 c 0
 623.032226562 302.333007812 613.032226562 287 595.69921875 281 c 0
 595.032226562 279 593.032226562 273.666992188 589.69921875 265 c 0
 586.366210938 256.333007812 584.033203125 249.333007812 582.700195312 244 c 0
EndSplineSet
Validated: 524289
EndChar

StartChar: H
Encoding: 72 72 51
Width: 630
GlyphClass: 2
Flags: HMW
HStem: 311.999 86.001<260.288 297.62>
LayerCount: 2
Fore
SplineSet
534.290039062 24 m 0
 529.623046875 10 520.958007812 -1.16796875 508.291015625 -9.5009765625 c 0
 496.5625 -17.216796875 484.548828125 -21.07421875 472.25 -21.07421875 c 0
 471.265625 -21.07421875 470.279296875 -21.0498046875 469.291015625 -21 c 0
 456.624023438 -21 447.45703125 -16.5 441.790039062 -7.5 c 0
 438.682617188 -2.564453125 437.12890625 3.423828125 437.12890625 10.4638671875 c 0
 437.12890625 16.26171875 438.182617188 22.7744140625 440.290039062 30 c 0
 467.623046875 122.666992188 494.290039062 226.666992188 520.290039062 342 c 1
 509.623046875 341.333007812 470.456054688 336.166015625 402.7890625 326.499023438 c 0
 335.122070312 316.83203125 287.622070312 311.999023438 260.2890625 311.999023438 c 0
 259.622070312 309.999023438 258.622070312 306.499023438 257.2890625 301.499023438 c 0
 255.956054688 296.499023438 254.956054688 292.999023438 254.2890625 290.999023438 c 0
 235.622070312 224.999023438 214.955078125 135.999023438 192.288085938 23.9990234375 c 0
 187.62109375 9.9990234375 178.788085938 -1.16796875 165.788085938 -9.5009765625 c 0
 153.751953125 -17.216796875 141.858398438 -21.07421875 130.107421875 -21.07421875 c 0
 129.166992188 -21.07421875 128.2265625 -21.0498046875 127.288085938 -21 c 0
 115.288085938 -21 106.12109375 -16.5 99.7880859375 -7.5 c 0
 96.3505859375 -2.6142578125 94.630859375 3.302734375 94.630859375 10.251953125 c 0
 94.630859375 16.1025390625 95.8505859375 22.685546875 98.2880859375 30 c 0
 100.955078125 39.3330078125 104.955078125 54.3330078125 110.288085938 75 c 0
 115.62109375 95.6669921875 122.288085938 123.333984375 130.288085938 158.000976562 c 0
 138.288085938 192.66796875 145.62109375 224.000976562 152.288085938 252.000976562 c 0
 157.62109375 274.66796875 165.788085938 307.16796875 176.788085938 349.500976562 c 0
 187.788085938 391.833984375 195.62109375 423.166992188 200.288085938 443.5 c 2
 221.288085938 535 l 2
 227.288085938 565 231.288085938 584.166992188 233.288085938 592.5 c 0
 235.288085938 600.833007812 238.288085938 612.333007812 242.288085938 627 c 2
 251.288085938 660 l 2
 255.955078125 678 263.788085938 691.5 274.788085938 700.5 c 0
 285.788085938 709.5 297.62109375 714 310.288085938 714 c 0
 311.325195312 714.049804688 312.34375 714.07421875 313.342773438 714.07421875 c 0
 325.825195312 714.07421875 335.306640625 710.216796875 341.788085938 702.500976562 c 0
 346.2421875 697.198242188 348.469726562 689.9375 348.469726562 680.719726562 c 0
 348.469726562 675.453125 347.7421875 669.546875 346.288085938 663.000976562 c 0
 344.955078125 656.333984375 340.788085938 642.000976562 333.788085938 620.000976562 c 0
 326.788085938 598.000976562 321.288085938 577.66796875 317.288085938 559.000976562 c 0
 313.288085938 541.66796875 307.455078125 515.16796875 299.788085938 479.500976562 c 0
 292.12109375 443.833984375 285.954101562 416.666992188 281.287109375 398 c 1
 313.954101562 398 347.954101562 400 383.287109375 404 c 0
 418.620117188 408 450.620117188 412 479.287109375 416 c 0
 507.954101562 420 527.954101562 422.666992188 539.287109375 424 c 1
 539.954101562 428.666992188 541.12109375 435.5 542.788085938 444.5 c 0
 544.455078125 453.5 545.955078125 460.333007812 547.288085938 465 c 0
 556.62109375 506.333007812 562.62109375 533.666015625 565.288085938 546.999023438 c 0
 567.955078125 560.33203125 572.955078125 580.999023438 580.288085938 608.999023438 c 0
 587.62109375 636.999023438 592.288085938 653.999023438 594.288085938 659.999023438 c 0
 598.955078125 677.999023438 606.622070312 691.499023438 617.2890625 700.499023438 c 0
 627.956054688 709.499023438 639.623046875 713.999023438 652.290039062 713.999023438 c 0
 653.327148438 714.048828125 654.345703125 714.073242188 655.344726562 714.073242188 c 0
 667.827148438 714.073242188 677.30859375 710.215820312 683.790039062 702.5 c 0
 688.244140625 697.197265625 690.471679688 689.936523438 690.471679688 680.71875 c 0
 690.471679688 675.452148438 689.744140625 669.545898438 688.290039062 663 c 0
 685.623046875 650.333007812 679.290039062 624.333007812 669.290039062 585 c 0
 659.290039062 545.666992188 650.790039062 511.166992188 643.790039062 481.5 c 0
 636.790039062 451.833007812 627.290039062 409 615.290039062 353 c 0
 605.95703125 306.333007812 591.290039062 245 571.290039062 169 c 0
 551.290039062 93 538.95703125 44.6669921875 534.290039062 24 c 0
EndSplineSet
Validated: 524289
EndChar

StartChar: I
Encoding: 73 73 52
Width: 630
GlyphClass: 2
Flags: HMW
HStem: -13.998 80.001 -6.49902 77.999 612.001 89.001 625.002 82.999<271.727 298.394 290.061 298.394 290.061 414.393>
LayerCount: 2
Fore
SplineSet
504.400390625 -11 m 0x60
 489.067382812 -8.3330078125 463.221679688 -6.83203125 426.888671875 -6.4990234375 c 0x60
 419.625976562 -6.4326171875 412.383789062 -6.3994140625 405.161132812 -6.3994140625 c 0
 376.250976562 -6.3994140625 347.66015625 -6.9326171875 319.389648438 -7.9990234375 c 0
 284.056640625 -9.33203125 246.723632812 -10.6650390625 207.390625 -11.998046875 c 0
 168.057617188 -13.3310546875 140.724609375 -13.998046875 125.391601562 -13.998046875 c 0
 109.391601562 -13.998046875 98.224609375 -10.6650390625 91.8916015625 -3.998046875 c 0
 85.55859375 2.6689453125 83.7255859375 11.3359375 86.392578125 22.0029296875 c 0
 88.392578125 34.0029296875 94.0595703125 44.169921875 103.392578125 52.5029296875 c 0
 112.725585938 60.8359375 125.392578125 65.3359375 141.392578125 66.0029296875 c 0
 168.059570312 67.3359375 214.059570312 69.0029296875 279.392578125 71.0029296875 c 1
 312.059570312 185.002929688 341.7265625 305.669921875 368.393554688 433.002929688 c 0
 373.060546875 457.002929688 377.893554688 479.669921875 382.893554688 501.002929688 c 0
 387.893554688 522.3359375 391.393554688 537.668945312 393.393554688 547.001953125 c 0
 395.393554688 556.334960938 399.2265625 570.834960938 404.893554688 590.501953125 c 0
 410.560546875 610.168945312 413.727539062 621.668945312 414.39453125 625.001953125 c 1
 386.39453125 625.66796875 361.14453125 626.001953125 338.64453125 626.001953125 c 0
 316.14453125 626.001953125 296.39453125 625.66796875 279.39453125 625.001953125 c 0
 264.061523438 625.001953125 253.228515625 628.668945312 246.895507812 636.001953125 c 0
 240.5625 643.334960938 238.395507812 652.66796875 240.395507812 664.000976562 c 0
 242.395507812 676.000976562 248.395507812 686.333984375 258.395507812 695.000976562 c 0
 268.395507812 703.66796875 281.728515625 708.000976562 298.395507812 708.000976562 c 0x90
 350.62109375 709.556640625 398.995117188 710.334960938 443.516601562 710.334960938 c 0
 532.548828125 710.334960938 606.17578125 707.223632812 664.395507812 701.001953125 c 0
 687.090820312 698.732421875 698.438476562 688.495117188 698.438476562 670.291015625 c 0
 698.438476562 667.104492188 698.090820312 663.674804688 697.395507812 660.000976562 c 0
 696.0625 654.000976562 693.895507812 648.16796875 690.895507812 642.500976562 c 0
 687.895507812 636.833984375 684.228515625 631.333984375 679.895507812 626.000976562 c 0
 675.5625 620.66796875 670.0625 616.500976562 663.395507812 613.500976562 c 0
 656.728515625 610.500976562 649.395507812 610.000976562 641.395507812 612.000976562 c 0
 624.0625 615.333984375 579.729492188 619.000976562 508.396484375 623.000976562 c 1
 507.063476562 617.66796875 503.23046875 602.66796875 496.897460938 578.000976562 c 0
 490.564453125 553.333984375 485.564453125 533.666992188 481.897460938 519 c 0
 478.23046875 504.333007812 473.397460938 483.333007812 467.397460938 456 c 0
 461.397460938 428.666992188 455.397460938 401.666992188 449.397460938 375 c 0
 439.397460938 327.666992188 425.23046875 268.666992188 406.897460938 198 c 0
 388.564453125 127.333007812 377.731445312 85.3330078125 374.3984375 72 c 1
 401.731445312 72 432.731445312 71.8330078125 467.3984375 71.5 c 0
 502.065429688 71.1669921875 520.732421875 71 523.399414062 71 c 0
 538.06640625 71 547.399414062 67.5 551.399414062 60.5 c 0
 555.399414062 53.5 556.399414062 44.3330078125 554.399414062 33 c 0
 553.06640625 27 551.399414062 21.5 549.399414062 16.5 c 0
 547.399414062 11.5 544.399414062 6.5 540.399414062 1.5 c 0
 536.399414062 -3.5 531.232421875 -7.1669921875 524.899414062 -9.5 c 0
 518.56640625 -11.8330078125 511.733398438 -12.3330078125 504.400390625 -11 c 0x60
EndSplineSet
Validated: 524289
EndChar

StartChar: J
Encoding: 74 74 53
Width: 630
GlyphClass: 2
Flags: HMW
HStem: -35.001 101.001<291.943 299.276> 625 82.999<274.61 300.276>
VStem: 118.276 87.501 131.277 77
LayerCount: 2
Fore
SplineSet
456.275390625 215 m 0xe0
 437.608398438 155 419.110351562 106.33203125 400.77734375 68.9990234375 c 0
 382.444335938 31.666015625 364.27734375 4.9990234375 346.27734375 -11.0009765625 c 0
 328.27734375 -27.0009765625 309.27734375 -35.0009765625 289.27734375 -35.0009765625 c 0
 267.944335938 -35.0009765625 248.27734375 -31.0009765625 230.27734375 -23.0009765625 c 0
 212.27734375 -15.0009765625 197.110351562 -4.333984375 184.77734375 8.9990234375 c 0
 172.444335938 22.33203125 161.611328125 36.83203125 152.278320312 52.4990234375 c 0
 142.9453125 68.166015625 135.778320312 83.8330078125 130.778320312 99.5 c 0
 125.778320312 115.166992188 122.278320312 129.166992188 120.278320312 141.5 c 0
 118.278320312 153.833007812 117.611328125 163.666015625 118.278320312 170.999023438 c 0xe0
 118.278320312 176.999023438 119.611328125 184.166015625 122.278320312 192.499023438 c 0
 124.9453125 200.83203125 127.9453125 208.665039062 131.278320312 215.998046875 c 0
 134.611328125 223.331054688 139.778320312 229.831054688 146.778320312 235.498046875 c 0
 153.778320312 241.165039062 162.278320312 244.665039062 172.278320312 245.998046875 c 0
 175.833984375 246.64453125 179.145507812 246.967773438 182.211914062 246.967773438 c 0
 191.791992188 246.967773438 198.98046875 243.811523438 203.778320312 237.499023438 c 0
 207.927734375 232.0390625 210.001953125 225.649414062 210.001953125 218.329101562 c 0
 210.001953125 214.4765625 209.427734375 210.3671875 208.278320312 205.999023438 c 0xd0
 208.225585938 205.706054688 205.729492188 191.61328125 205.729492188 176.352539062 c 0
 205.729492188 166.751953125 207.079101562 155.80078125 209.779296875 143.5 c 0
 212.779296875 129.833007812 217.446289062 117.333007812 223.779296875 106 c 0
 230.112304688 94.6669921875 239.9453125 85.1669921875 253.278320312 77.5 c 0
 266.611328125 69.8330078125 282.611328125 66 301.278320312 66 c 0
 323.278320312 66 349.611328125 124 380.278320312 240 c 0
 383.611328125 254.666992188 393.778320312 301.666992188 410.778320312 381 c 0
 427.778320312 460.333007812 446.278320312 541.333007812 466.278320312 624 c 1
 425.079101562 625.200195312 386.51953125 625.799804688 350.600585938 625.799804688 c 0
 326.653320312 625.799804688 303.87890625 625.533203125 282.278320312 625 c 0
 266.9453125 625 255.9453125 628.666992188 249.278320312 636 c 0
 242.611328125 643.333007812 240.611328125 652.666015625 243.278320312 663.999023438 c 0
 245.278320312 675.999023438 251.4453125 686.33203125 261.778320312 694.999023438 c 0
 272.111328125 703.666015625 284.944335938 707.999023438 300.27734375 707.999023438 c 0
 352.502929688 709.5546875 400.9140625 710.333007812 445.508789062 710.333007812 c 0
 534.690429688 710.333007812 608.612304688 707.221679688 667.27734375 701 c 0
 689.97265625 698.73046875 701.3203125 688.493164062 701.3203125 670.2890625 c 0
 701.3203125 667.102539062 700.97265625 663.672851562 700.27734375 659.999023438 c 0
 698.944335938 653.999023438 696.77734375 648.166015625 693.77734375 642.499023438 c 0
 690.77734375 636.83203125 686.944335938 631.33203125 682.27734375 625.999023438 c 0
 677.610351562 620.666015625 671.943359375 616.499023438 665.276367188 613.499023438 c 0
 658.609375 610.499023438 651.609375 609.999023438 644.276367188 611.999023438 c 0
 623.609375 615.33203125 590.942382812 618.33203125 546.275390625 620.999023438 c 1
 541.608398438 601.666015625 535.44140625 572.333007812 527.774414062 533 c 0
 520.107421875 493.666992188 513.107421875 457.833984375 506.774414062 425.500976562 c 0
 500.44140625 393.16796875 492.608398438 357.16796875 483.275390625 317.500976562 c 0
 473.942382812 277.833984375 464.942382812 243.666992188 456.275390625 215 c 0xe0
EndSplineSet
Validated: 524289
EndChar

StartChar: K
Encoding: 75 75 54
Width: 630
GlyphClass: 2
Flags: W
HStem: -21.0752 21G<126.602 133.256 490.446 500.955> 694.072 20G<299.69 306.431>
LayerCount: 2
Fore
SplineSet
190.1328125 24 m 0
 185.465820312 10 176.6328125 -1.1689453125 163.6328125 -9.501953125 c 0
 151.596679688 -17.2177734375 139.416992188 -21.0751953125 127.094726562 -21.0751953125 c 0
 126.108398438 -21.0751953125 125.12109375 -21.05078125 124.1328125 -21.0009765625 c 0
 111.465820312 -21.0009765625 102.298828125 -16.5009765625 96.6318359375 -7.5009765625 c 0
 93.5244140625 -2.5654296875 91.970703125 3.4228515625 91.970703125 10.462890625 c 0
 91.970703125 16.2607421875 93.0244140625 22.7734375 95.1318359375 29.9990234375 c 0
 103.798828125 59.33203125 117.465820312 115.499023438 136.1328125 198.499023438 c 0
 154.799804688 281.499023438 172.799804688 366.999023438 190.1328125 454.999023438 c 0
 198.799804688 497.666015625 204.799804688 526.499023438 208.1328125 541.499023438 c 0
 211.465820312 556.499023438 216.965820312 578.166015625 224.6328125 606.499023438 c 0
 232.299804688 634.83203125 237.1328125 652.665039062 239.1328125 659.998046875 c 0
 243.799804688 677.998046875 251.466796875 691.498046875 262.133789062 700.498046875 c 0
 272.80078125 709.498046875 284.467773438 713.998046875 297.134765625 713.998046875 c 0
 298.171875 714.047851562 299.190429688 714.072265625 300.189453125 714.072265625 c 0
 312.671875 714.072265625 322.153320312 710.21484375 328.634765625 702.499023438 c 0
 333.088867188 697.196289062 335.31640625 689.935546875 335.31640625 680.717773438 c 0
 335.31640625 675.451171875 334.588867188 669.544921875 333.134765625 662.999023438 c 0
 329.801757812 646.999023438 321.134765625 611.999023438 307.134765625 557.999023438 c 0
 293.134765625 503.999023438 281.801757812 459.33203125 273.134765625 423.999023438 c 1
 301.134765625 447.33203125 343.134765625 482.665039062 399.134765625 529.998046875 c 0
 455.134765625 577.331054688 499.467773438 614.831054688 532.134765625 642.498046875 c 0
 564.801757812 670.165039062 585.801757812 687.33203125 595.134765625 693.999023438 c 0
 605.801757812 702.666015625 615.46875 708.499023438 624.135742188 711.499023438 c 0
 632.802734375 714.499023438 639.969726562 715.166015625 645.63671875 713.499023438 c 0
 651.303710938 711.83203125 656.13671875 708.33203125 660.13671875 702.999023438 c 0
 663.677734375 697.490234375 665.448242188 691.576171875 665.448242188 685.254882812 c 0
 665.448242188 670.155273438 655.344726562 652.736328125 635.13671875 632.999023438 c 0
 623.13671875 620.999023438 581.969726562 584.499023438 511.63671875 523.499023438 c 0
 441.303710938 462.499023438 379.13671875 409.33203125 325.13671875 363.999023438 c 1
 340.469726562 339.999023438 367.469726562 302.499023438 406.13671875 251.499023438 c 0
 444.803710938 200.499023438 478.303710938 155.666015625 506.63671875 116.999023438 c 0
 524.409179688 92.744140625 551.241210938 56.1259765625 551.241210938 40.0419921875 c 0
 551.241210938 28.9599609375 548.706054688 18.9462890625 543.635742188 9.9990234375 c 0
 537.96875 -0.0009765625 530.801757812 -7.66796875 522.134765625 -13.0009765625 c 0
 513.129882812 -18.5986328125 504.791015625 -21.3974609375 497.118164062 -21.3974609375 c 0
 483.774414062 -21.3974609375 472.446289062 -12.931640625 463.133789062 4 c 0
 458.466796875 12.6669921875 441.633789062 35.6669921875 412.633789062 73 c 0
 383.633789062 110.333007812 352.30078125 151.5 318.633789062 196.5 c 0
 284.966796875 241.5 260.799804688 277.333007812 246.1328125 304 c 1
 241.1328125 284 l 2
 239.1328125 272.666992188 222.1328125 186 190.1328125 24 c 0
EndSplineSet
Validated: 524289
EndChar

StartChar: L
Encoding: 76 76 55
Width: 630
GlyphClass: 2
Flags: HMW
HStem: -9.00488 81.0029
LayerCount: 2
Fore
SplineSet
507.734375 10 m 0
 463.734375 1.3330078125 398.407226562 -5.0048828125 311.740234375 -9.0048828125 c 0
 225.073242188 -13.0048828125 161.740234375 -15.0048828125 121.740234375 -15.0048828125 c 0
 109.073242188 -15.0048828125 99.90625 -10.5048828125 94.2392578125 -1.5048828125 c 0
 91.1318359375 3.4306640625 89.578125 9.4189453125 89.578125 16.458984375 c 0
 89.578125 22.2568359375 90.6318359375 28.76953125 92.7392578125 35.9951171875 c 0
 94.072265625 41.328125 106.405273438 79.4951171875 129.73828125 150.495117188 c 0
 153.071289062 221.495117188 174.071289062 289.995117188 192.73828125 355.995117188 c 0
 201.405273438 385.995117188 214.405273438 440.995117188 231.73828125 520.995117188 c 0
 249.071289062 600.995117188 258.404296875 644.328125 259.737304688 650.995117188 c 0
 264.404296875 668.995117188 272.237304688 682.662109375 283.237304688 691.995117188 c 0
 294.237304688 701.328125 305.737304688 705.995117188 317.737304688 705.995117188 c 0
 318.774414062 706.044921875 319.793945312 706.069335938 320.794921875 706.069335938 c 0
 333.299804688 706.069335938 342.947265625 702.211914062 349.737304688 694.49609375 c 0
 354.21875 689.404296875 356.458984375 682.506835938 356.458984375 673.8046875 c 0
 356.458984375 668.265625 355.551757812 661.997070312 353.736328125 654.99609375 c 0
 349.069335938 635.663085938 342.40234375 609.330078125 333.735351562 575.997070312 c 0
 325.068359375 542.6640625 314.068359375 500.6640625 300.735351562 449.997070312 c 0
 287.40234375 399.330078125 276.069335938 355.330078125 266.736328125 317.997070312 c 0
 259.403320312 289.997070312 247.5703125 249.330078125 231.237304688 195.997070312 c 0
 214.904296875 142.6640625 203.404296875 101.331054688 196.737304688 71.998046875 c 1
 201.260742188 71.9404296875 205.853515625 71.9111328125 210.514648438 71.9111328125 c 0
 259.448242188 71.9111328125 316.022460938 75.107421875 380.237304688 81.498046875 c 0
 450.5703125 88.498046875 498.0703125 95.3310546875 522.737304688 101.998046875 c 0
 530.737304688 103.998046875 537.404296875 103.665039062 542.737304688 100.998046875 c 0
 548.0703125 98.3310546875 551.903320312 94.3310546875 554.236328125 88.998046875 c 0
 556.569335938 83.6650390625 557.90234375 77.83203125 558.235351562 71.4990234375 c 0
 558.568359375 65.166015625 558.401367188 59.3330078125 557.734375 54 c 0
 555.067382812 42 550.067382812 32.3330078125 542.734375 25 c 0
 535.401367188 17.6669921875 523.734375 12.6669921875 507.734375 10 c 0
EndSplineSet
Validated: 524289
EndChar

StartChar: M
Encoding: 77 77 56
Width: 630
GlyphClass: 2
Flags: HMW
HStem: -9.99414 21G<99.1191 105.119>
VStem: 269.116 97.001 486.116 89.001
LayerCount: 2
Fore
SplineSet
159.118164062 59 m 0
 155.118164062 37.6669921875 147.119140625 20.8388671875 135.119140625 8.505859375 c 0
 123.119140625 -3.8271484375 111.119140625 -9.994140625 99.119140625 -9.994140625 c 0
 84.302734375 -9.544921875 76.89453125 1.7900390625 76.89453125 24.009765625 c 0
 76.89453125 34.783203125 78.6357421875 48.115234375 82.119140625 64.0068359375 c 0
 84.119140625 72.0068359375 88.2861328125 85.673828125 94.619140625 105.006835938 c 0
 100.952148438 124.33984375 109.119140625 149.672851562 119.119140625 181.005859375 c 0
 129.119140625 212.338867188 137.786132812 239.671875 145.119140625 263.004882812 c 0
 147.119140625 271.004882812 150.786132812 283.337890625 156.119140625 300.004882812 c 0
 170.786132812 349.337890625 182.619140625 387.837890625 191.619140625 415.504882812 c 0
 200.619140625 443.171875 211.786132812 477.671875 225.119140625 519.004882812 c 0
 238.452148438 560.337890625 249.78515625 592.837890625 259.118164062 616.504882812 c 0
 268.451171875 640.171875 276.451171875 656.671875 283.118164062 666.004882812 c 0
 292.451171875 680.004882812 304.451171875 690.171875 319.118164062 696.504882812 c 0
 331.234375 701.736328125 342.213867188 704.352539062 352.0546875 704.352539062 c 0
 354.126953125 704.352539062 356.147460938 704.236328125 358.118164062 704.004882812 c 0
 386.118164062 704.004882812 400.118164062 691.671875 400.118164062 667.004882812 c 0
 400.178710938 664.336914062 400.208984375 661.510742188 400.208984375 658.526367188 c 0
 400.208984375 628.69140625 397.178710938 583.017578125 391.118164062 521.504882812 c 0
 384.451171875 453.837890625 375.784179688 376.670898438 365.1171875 290.00390625 c 0
 354.450195312 203.336914062 347.450195312 146.00390625 344.1171875 118.00390625 c 1
 372.1171875 212.00390625 398.784179688 296.670898438 424.1171875 372.00390625 c 0
 442.1171875 427.336914062 462.450195312 483.00390625 485.1171875 539.00390625 c 0
 507.784179688 595.00390625 526.1171875 637.670898438 540.1171875 667.00390625 c 0
 544.784179688 677.00390625 551.784179688 685.170898438 561.1171875 691.50390625 c 0
 570.450195312 697.836914062 579.450195312 701.669921875 588.1171875 703.002929688 c 0
 596.784179688 704.3359375 605.1171875 704.668945312 613.1171875 704.001953125 c 2
 617.1171875 704.001953125 l 1
 629.6171875 704.001953125 l 2
 632.6171875 704.001953125 636.784179688 703.168945312 642.1171875 701.501953125 c 0
 647.450195312 699.834960938 651.6171875 697.66796875 654.6171875 695.000976562 c 0
 657.6171875 692.333984375 660.1171875 688.166992188 662.1171875 682.5 c 0
 664.1171875 676.833007812 664.784179688 670 664.1171875 662 c 0
 662.1171875 642 646.784179688 544.333007812 618.1171875 369 c 0
 589.450195312 193.666992188 575.1171875 94.6669921875 575.1171875 72 c 0
 574.450195312 32 561.783203125 6.6669921875 537.116210938 -4 c 0
 531.021484375 -6.4375 525.309570312 -7.6572265625 519.98046875 -7.6572265625 c 0
 513.65234375 -7.6572265625 507.864257812 -5.9375 502.616210938 -2.5 c 0
 492.94921875 3.8330078125 487.44921875 17.666015625 486.116210938 38.9990234375 c 0
 486.017578125 40.6533203125 485.967773438 42.513671875 485.967773438 44.580078125 c 0
 485.967773438 98.29296875 519.350585938 291.099609375 586.115234375 623 c 1
 546.115234375 526.333007812 514.448242188 438.333007812 491.115234375 359 c 0
 467.782226562 283 443.44921875 210.833007812 418.116210938 142.5 c 0
 392.783203125 74.1669921875 375.450195312 32.333984375 366.1171875 17.0009765625 c 0
 355.450195312 1.0009765625 336.1171875 -6.9990234375 308.1171875 -6.9990234375 c 0
 295.450195312 -7.666015625 285.783203125 -5.666015625 279.116210938 -0.9990234375 c 0
 272.44921875 3.66796875 269.116210938 10.3349609375 269.116210938 19.001953125 c 0
 269.116210938 51.001953125 273.783203125 124.501953125 283.116210938 239.501953125 c 0
 292.44921875 354.501953125 302.116210938 464.668945312 312.116210938 570.001953125 c 1
 289.616210938 498.001953125 l 2
 281.283203125 471.334960938 274.283203125 448.16796875 268.616210938 428.500976562 c 0
 262.94921875 408.833984375 254.44921875 379.666992188 243.116210938 341 c 0
 231.783203125 302.333007812 223.116210938 273 217.116210938 253 c 0
 209.116210938 225 200.44921875 196.166992188 191.116210938 166.5 c 0
 181.783203125 136.833007812 174.450195312 113.5 169.1171875 96.5 c 0
 163.784179688 79.5 160.451171875 67 159.118164062 59 c 0
EndSplineSet
Validated: 524289
EndChar

StartChar: N
Encoding: 78 78 57
Width: 630
GlyphClass: 2
Flags: W
HStem: -12.0664 21G<117.325 123.606>
LayerCount: 2
Fore
SplineSet
470.356445312 -14 m 0
 458.356445312 -14.6669921875 449.182617188 -12.5029296875 442.849609375 -7.5029296875 c 0
 436.516601562 -2.5029296875 432.68359375 4.330078125 431.350585938 12.9970703125 c 0
 428.68359375 26.330078125 420.516601562 55.6630859375 406.849609375 100.99609375 c 0
 393.182617188 146.329101562 379.182617188 193.49609375 364.849609375 242.49609375 c 0
 350.516601562 291.49609375 336.18359375 346.329101562 321.850585938 406.99609375 c 0
 307.517578125 467.663085938 298.350585938 519.330078125 294.350585938 561.997070312 c 1
 281.017578125 489.330078125 266.684570312 421.663085938 251.3515625 358.99609375 c 0
 236.018554688 296.329101562 219.8515625 232.49609375 202.8515625 167.49609375 c 0
 185.8515625 102.49609375 176.018554688 62.99609375 173.3515625 48.99609375 c 0
 169.3515625 27.6630859375 161.8515625 11.99609375 150.8515625 1.99609375 c 0
 140.5390625 -7.37890625 129.495117188 -12.06640625 117.717773438 -12.06640625 c 0
 116.932617188 -12.06640625 116.143554688 -12.0458984375 115.3515625 -12.00390625 c 0
 102.684570312 -12.00390625 95.3515625 -6.3369140625 93.3515625 4.99609375 c 0
 92.751953125 8.396484375 92.451171875 12.2763671875 92.451171875 16.63671875 c 0
 92.451171875 26.8095703125 94.0849609375 39.5966796875 97.3515625 54.99609375 c 0
 100.018554688 68.3291015625 112.685546875 119.99609375 135.352539062 209.99609375 c 0
 158.01953125 299.99609375 177.686523438 378.663085938 194.353515625 445.99609375 c 0
 211.020507812 513.329101562 225.353515625 577.99609375 237.353515625 639.99609375 c 0
 239.353515625 653.329101562 243.353515625 664.662109375 249.353515625 673.995117188 c 0
 255.353515625 683.328125 262.353515625 690.161132812 270.353515625 694.494140625 c 0
 278.353515625 698.827148438 286.353515625 701.827148438 294.353515625 703.494140625 c 0
 302.353515625 705.161132812 310.020507812 705.328125 317.353515625 703.995117188 c 0
 344.686523438 703.995117188 359.01953125 691.662109375 360.352539062 666.995117188 c 0
 363.01953125 622.995117188 380.186523438 541.995117188 411.853515625 423.995117188 c 0
 443.520507812 305.995117188 471.353515625 210.662109375 495.353515625 137.995117188 c 1
 512.020507812 200.662109375 533.6875 291.829101562 560.354492188 411.49609375 c 0
 587.021484375 531.163085938 602.354492188 609.99609375 606.354492188 647.99609375 c 0
 608.354492188 663.99609375 614.521484375 677.49609375 624.854492188 688.49609375 c 0
 635.1875 699.49609375 646.354492188 704.99609375 658.354492188 704.99609375 c 0
 665.021484375 704.99609375 670.688476562 704.163085938 675.35546875 702.49609375 c 0
 680.022460938 700.829101562 683.522460938 698.829101562 685.85546875 696.49609375 c 0
 688.188476562 694.163085938 689.688476562 690.330078125 690.35546875 684.997070312 c 0
 691.022460938 679.6640625 691.189453125 674.831054688 690.856445312 670.498046875 c 0
 690.5234375 666.165039062 690.0234375 659.33203125 689.356445312 649.999023438 c 0
 688.689453125 639.33203125 677.356445312 585.83203125 655.356445312 489.499023438 c 0
 633.356445312 393.166015625 609.189453125 293.333007812 582.856445312 190 c 0
 556.5234375 86.6669921875 538.0234375 27 527.356445312 11 c 0
 517.356445312 -5.6669921875 498.356445312 -14 470.356445312 -14 c 0
EndSplineSet
Validated: 524289
EndChar

StartChar: O
Encoding: 79 79 58
Width: 630
GlyphClass: 2
Flags: HMW
HStem: -24 83.998<288.034 289.038> 636.997 81.001<477.036 488.702>
LayerCount: 2
Fore
SplineSet
276.372070312 -24 m 0
 238.372070312 -23.3330078125 207.03515625 -10.8349609375 182.368164062 13.498046875 c 0
 157.701171875 37.8310546875 141.868164062 70.498046875 134.868164062 111.498046875 c 0
 132.2890625 126.603515625 131 142.228515625 131 158.375 c 0
 131 186.053710938 134.7890625 215.260742188 142.368164062 245.998046875 c 0
 143.03515625 249.331054688 144.368164062 254.998046875 146.368164062 262.998046875 c 0
 153.03515625 292.998046875 158.702148438 316.998046875 163.369140625 334.998046875 c 0
 168.036132812 352.998046875 174.869140625 376.998046875 183.869140625 406.998046875 c 0
 192.869140625 436.998046875 203.036132812 465.498046875 214.369140625 492.498046875 c 0
 225.702148438 519.498046875 238.369140625 544.998046875 252.369140625 568.998046875 c 0
 278.369140625 612.331054688 314.202148438 647.998046875 359.869140625 675.998046875 c 0
 405.536132812 703.998046875 452.703125 717.998046875 501.370117188 717.998046875 c 0
 526.037109375 717.998046875 548.704101562 712.831054688 569.37109375 702.498046875 c 0
 590.038085938 692.165039062 607.205078125 677.33203125 620.872070312 657.999023438 c 0
 634.5390625 638.666015625 643.872070312 613.999023438 648.872070312 583.999023438 c 0
 651.291015625 569.483398438 652.500976562 554.108398438 652.500976562 537.875976562 c 0
 652.500976562 520.560546875 651.125 502.267578125 648.372070312 482.999023438 c 0
 643.0390625 449.666015625 636.206054688 413.999023438 627.873046875 375.999023438 c 0
 619.540039062 337.999023438 609.540039062 299.499023438 597.873046875 260.499023438 c 0
 586.206054688 221.499023438 575.0390625 190.666015625 564.372070312 167.999023438 c 0
 549.705078125 136.666015625 533.705078125 109.666015625 516.372070312 86.9990234375 c 0
 499.0390625 64.33203125 481.5390625 45.83203125 463.872070312 31.4990234375 c 0
 446.205078125 17.166015625 427.038085938 5.8330078125 406.37109375 -2.5 c 0
 385.704101562 -10.8330078125 365.204101562 -16.5 344.87109375 -19.5 c 0
 324.538085938 -22.5 301.705078125 -24 276.372070312 -24 c 0
295.368164062 59.998046875 m 0
 312.03515625 59.998046875 328.702148438 62.1650390625 345.369140625 66.498046875 c 0
 362.036132812 70.8310546875 378.369140625 77.8310546875 394.369140625 87.498046875 c 0
 410.369140625 97.1650390625 425.869140625 109.998046875 440.869140625 125.998046875 c 0
 455.869140625 141.998046875 468.702148438 160.665039062 479.369140625 181.998046875 c 0
 483.369140625 190.665039062 490.536132812 210.665039062 500.869140625 241.998046875 c 0
 511.202148438 273.331054688 522.03515625 310.6640625 533.368164062 353.997070312 c 0
 544.701171875 397.330078125 553.701171875 439.997070312 560.368164062 481.997070312 c 0
 562.30078125 494.750976562 563.266601562 506.903320312 563.266601562 518.453125 c 0
 563.266601562 546.748046875 557.467773438 571.4296875 545.869140625 592.497070312 c 0
 529.536132812 622.1640625 505.036132812 636.997070312 472.369140625 636.997070312 c 0
 439.036132812 636.997070312 408.036132812 623.830078125 379.369140625 597.497070312 c 0
 350.702148438 571.1640625 325.702148438 534.331054688 304.369140625 486.998046875 c 0
 275.702148438 423.665039062 253.03515625 348.665039062 236.368164062 261.998046875 c 0
 232.368164062 240.665039062 229.53515625 220.998046875 227.868164062 202.998046875 c 0
 226.826171875 191.749023438 226.305664062 180.499023438 226.305664062 169.25 c 0
 226.305664062 162.499023438 226.493164062 155.749023438 226.868164062 148.998046875 c 0
 227.868164062 130.998046875 230.701171875 115.498046875 235.368164062 102.498046875 c 0
 240.03515625 89.498046875 247.53515625 79.1650390625 257.868164062 71.498046875 c 0
 268.201171875 63.8310546875 280.701171875 59.998046875 295.368164062 59.998046875 c 0
EndSplineSet
Validated: 524289
EndChar

StartChar: P
Encoding: 80 80 59
Width: 630
GlyphClass: 2
Flags: HMW
HStem: 230.001 82<347.198 356.198 347.198 372.864> 630.003 80.998<443.53 494.197>
LayerCount: 2
Fore
SplineSet
208.198242188 24 m 0
 205.53125 10 197.694335938 -0.830078125 184.694335938 -8.4970703125 c 0
 172.734375 -15.55078125 160.633789062 -19.0771484375 148.392578125 -19.0771484375 c 0
 147.327148438 -19.0771484375 146.26171875 -19.05078125 145.194335938 -18.9970703125 c 0
 131.861328125 -18.9970703125 122.028320312 -14.830078125 115.6953125 -6.4970703125 c 0
 112.2578125 -1.9736328125 110.538085938 3.6796875 110.538085938 10.462890625 c 0
 110.538085938 16.17578125 111.7578125 22.6884765625 114.1953125 30.0029296875 c 0
 116.862304688 40.669921875 120.862304688 56.5029296875 126.1953125 77.5029296875 c 0
 131.528320312 98.5029296875 137.528320312 124.502929688 144.1953125 155.502929688 c 0
 150.862304688 186.502929688 157.1953125 216.502929688 163.1953125 245.502929688 c 0
 169.1953125 274.502929688 176.528320312 310.002929688 185.1953125 352.002929688 c 0
 193.862304688 394.002929688 201.1953125 429.002929688 207.1953125 457.002929688 c 0
 216.528320312 500.3359375 230.1953125 557.668945312 248.1953125 629.001953125 c 1
 244.1953125 634.001953125 l 2
 241.528320312 642.001953125 241.861328125 650.168945312 245.194335938 658.501953125 c 0
 248.52734375 666.834960938 253.52734375 674.334960938 260.194335938 681.001953125 c 0
 266.861328125 687.668945312 273.528320312 691.668945312 280.1953125 693.001953125 c 0
 304.1953125 698.334960938 338.1953125 702.66796875 382.1953125 706.000976562 c 0
 426.1953125 709.333984375 456.528320312 711.000976562 473.1953125 711.000976562 c 0
 515.1953125 711.000976562 550.862304688 703.000976562 580.1953125 687.000976562 c 0
 609.528320312 671.000976562 630.1953125 646.833984375 642.1953125 614.500976562 c 0
 648.9453125 596.313476562 652.3203125 576.174804688 652.3203125 554.0859375 c 0
 652.3203125 536.904296875 650.278320312 518.54296875 646.1953125 499.000976562 c 0
 637.528320312 461.66796875 623.6953125 426.500976562 604.6953125 393.500976562 c 0
 585.6953125 360.500976562 563.6953125 332.000976562 538.6953125 308.000976562 c 0
 513.6953125 284.000976562 485.362304688 265.000976562 453.6953125 251.000976562 c 0
 422.028320312 237.000976562 389.528320312 230.000976562 356.1953125 230.000976562 c 0
 307.528320312 230.000976562 270.1953125 233.66796875 244.1953125 241.000976562 c 1
 238.862304688 213.000976562 234.029296875 186.16796875 229.696289062 160.500976562 c 0
 225.36328125 134.833984375 221.030273438 108.166992188 216.697265625 80.5 c 0
 212.364257812 52.8330078125 209.53125 34 208.198242188 24 c 0
454.194335938 630.002929688 m 0
 432.861328125 630.002929688 393.194335938 627.333984375 335.194335938 622.000976562 c 1
 331.861328125 608.66796875 325.528320312 584.000976562 316.1953125 548.000976562 c 0
 306.862304688 512.000976562 297.529296875 475.000976562 288.196289062 437.000976562 c 0
 278.86328125 399.000976562 270.196289062 362.000976562 262.196289062 326.000976562 c 1
 283.446289062 316.625976562 309.67578125 311.938476562 340.885742188 311.938476562 c 0
 342.966796875 311.938476562 345.0703125 311.958984375 347.196289062 312.000976562 c 0
 365.196289062 312.000976562 381.86328125 313.333984375 397.196289062 316.000976562 c 0
 412.529296875 318.66796875 426.196289062 322.334960938 438.196289062 327.001953125 c 0
 450.196289062 331.668945312 461.529296875 337.8359375 472.196289062 345.502929688 c 0
 482.86328125 353.169921875 491.86328125 360.836914062 499.196289062 368.50390625 c 0
 506.529296875 376.170898438 513.362304688 385.170898438 519.6953125 395.50390625 c 0
 526.028320312 405.836914062 531.1953125 415.169921875 535.1953125 423.502929688 c 0
 539.1953125 431.8359375 543.028320312 441.502929688 546.6953125 452.502929688 c 0
 550.362304688 463.502929688 553.1953125 472.502929688 555.1953125 479.502929688 c 0
 557.1953125 486.502929688 559.528320312 495.002929688 562.1953125 505.002929688 c 0
 564.595703125 516.203125 565.795898438 526.743164062 565.795898438 536.623046875 c 0
 565.795898438 543.209960938 565.26171875 549.502929688 564.1953125 555.502929688 c 0
 561.528320312 570.502929688 556.361328125 582.502929688 548.694335938 591.502929688 c 0
 541.02734375 600.502929688 531.694335938 608.002929688 520.694335938 614.002929688 c 0
 509.694335938 620.002929688 498.52734375 624.169921875 487.194335938 626.502929688 c 0
 475.861328125 628.8359375 464.861328125 630.002929688 454.194335938 630.002929688 c 0
EndSplineSet
Validated: 524289
EndChar

StartChar: Q
Encoding: 81 81 60
Width: 630
GlyphClass: 2
Flags: HMW
HStem: -23.9961 84.002<283.707 327.707> 637.005 80.9971<475.375 487.04>
LayerCount: 2
Fore
SplineSet
476.708007812 -206 m 0
 469.154296875 -210.443359375 461.749023438 -212.6640625 454.491210938 -212.6640625 c 0
 450.859375 -212.6640625 447.264648438 -212.107421875 443.70703125 -210.99609375 c 0
 433.040039062 -207.663085938 424.70703125 -199.99609375 418.70703125 -187.99609375 c 0
 412.70703125 -175.99609375 403.20703125 -153.663085938 390.20703125 -120.99609375 c 0
 377.20703125 -88.3291015625 364.70703125 -54.99609375 352.70703125 -20.99609375 c 1
 339.374023438 -23.1298828125 324.975585938 -24.1962890625 309.510742188 -24.1962890625 c 0
 305.642578125 -24.1962890625 301.708007812 -24.1298828125 297.70703125 -23.99609375 c 0
 269.70703125 -23.99609375 245.374023438 -19.3291015625 224.70703125 -9.99609375 c 0
 204.040039062 -0.6630859375 187.040039062 12.3369140625 173.70703125 29.00390625 c 0
 160.374023438 45.6708984375 150.20703125 65.50390625 143.20703125 88.50390625 c 0
 135.797851562 112.848632812 132.180664062 138.78515625 132.180664062 166.670898438 c 0
 132.180664062 191.768554688 135.022460938 218.212890625 140.70703125 246.002929688 c 0
 166.040039062 375.3359375 202.70703125 481.668945312 250.70703125 565.001953125 c 0
 276.70703125 609.001953125 312.540039062 645.501953125 358.20703125 674.501953125 c 0
 403.874023438 703.501953125 451.041015625 718.001953125 499.708007812 718.001953125 c 0
 525.041015625 718.001953125 547.708007812 713.334960938 567.708007812 704.001953125 c 0
 587.708007812 694.668945312 604.541015625 681.001953125 618.208007812 663.001953125 c 0
 631.875 645.001953125 641.208007812 620.668945312 646.208007812 590.001953125 c 0
 648.626953125 575.163085938 649.836914062 559.154296875 649.836914062 541.974609375 c 0
 649.836914062 523.6484375 648.4609375 503.991210938 645.708007812 483.000976562 c 0
 639.708007812 437.000976562 628.375 380.833984375 611.708007812 314.500976562 c 0
 595.041015625 248.16796875 579.374023438 197.66796875 564.70703125 163.000976562 c 0
 534.70703125 91.0009765625 492.374023438 39.66796875 437.70703125 9.0009765625 c 1
 445.70703125 -10.33203125 454.374023438 -29.9990234375 463.70703125 -49.9990234375 c 0
 473.040039062 -69.9990234375 482.040039062 -88.666015625 490.70703125 -105.999023438 c 0
 499.374023438 -123.33203125 505.374023438 -134.999023438 508.70703125 -140.999023438 c 0
 511.374023438 -148.33203125 511.041015625 -156.33203125 507.708007812 -164.999023438 c 0
 504.375 -173.666015625 499.708007812 -181.833007812 493.708007812 -189.5 c 0
 487.708007812 -197.166992188 482.041015625 -202.666992188 476.708007812 -206 c 0
234.70703125 262.004882812 m 0
 230.666992188 238.974609375 228.646484375 217.353515625 228.646484375 197.139648438 c 0
 228.646484375 184 229.5 171.456054688 231.20703125 159.505859375 c 0
 235.540039062 129.172851562 245.040039062 105.005859375 259.70703125 87.005859375 c 0
 274.374023438 69.005859375 293.70703125 60.005859375 317.70703125 60.005859375 c 2
 327.70703125 60.005859375 l 1
 319.70703125 90.005859375 314.374023438 113.338867188 311.70703125 130.005859375 c 0
 310.928710938 136.561523438 310.540039062 142.802734375 310.540039062 148.729492188 c 0
 310.540039062 178.358398438 320.26171875 200.1171875 339.706054688 214.005859375 c 0
 346.373046875 218.672851562 353.040039062 221.505859375 359.70703125 222.505859375 c 0
 366.374023438 223.505859375 372.20703125 221.505859375 377.20703125 216.505859375 c 0
 382.20703125 211.505859375 385.040039062 204.005859375 385.70703125 194.005859375 c 0
 389.040039062 160.672851562 397.040039062 124.33984375 409.70703125 85.0068359375 c 1
 441.040039062 104.33984375 465.70703125 135.33984375 483.70703125 178.006835938 c 0
 487.70703125 188.006835938 494.20703125 208.173828125 503.20703125 238.506835938 c 0
 512.20703125 268.83984375 522.374023438 306.672851562 533.70703125 352.005859375 c 0
 545.040039062 397.338867188 553.373046875 440.671875 558.706054688 482.004882812 c 0
 560.342773438 494.9140625 561.16015625 507.103515625 561.16015625 518.575195312 c 0
 561.16015625 549.1640625 555.342773438 574.641601562 543.706054688 595.004882812 c 0
 527.706054688 623.004882812 503.373046875 637.004882812 470.706054688 637.004882812 c 0
 436.706054688 637.004882812 405.206054688 624.004882812 376.206054688 598.004882812 c 0
 347.206054688 572.004882812 322.373046875 535.671875 301.706054688 489.004882812 c 0
 270.373046875 419.671875 248.040039062 344.004882812 234.70703125 262.004882812 c 0
EndSplineSet
Validated: 524289
EndChar

